SplineFontDB: 3.2
FontName: NotoSerif-Condensed
FullName: Noto Serif Condensed
FamilyName: Noto Serif Condensed
Weight: Book
Copyright: Copyright 2015 Google Inc. All Rights Reserved.
Version: 2.002; ttfautohint (v1.8.2)
ItalicAngle: 0
UnderlinePosition: -125
UnderlineWidth: 50
Ascent: 800
Descent: 200
InvalidEm: 0
sfntRevision: 0x00020083
LayerCount: 2
Layer: 0 1 "+BBcEMAQ0BD0EOAQ5 +BD8EOwQwBD0A" 1
Layer: 1 1 "+BB8ENQRABDUENAQ9BDgEOQAA +BD8EOwQwBD0A" 0
XUID: [1021 42 1189819461 9040373]
StyleMap: 0x0040
FSType: 0
OS2Version: 4
OS2_WeightWidthSlopeOnly: 1
OS2_UseTypoMetrics: 0
CreationTime: 1561037343
ModificationTime: 1584535261
PfmFamily: 17
TTFWeight: 400
TTFWidth: 3
LineGap: 0
VLineGap: 0
Panose: 2 2 5 6 6 5 5 2 2 4
OS2TypoAscent: 1069
OS2TypoAOffset: 0
OS2TypoDescent: -293
OS2TypoDOffset: 0
OS2TypoLinegap: 0
OS2WinAscent: 1069
OS2WinAOffset: 0
OS2WinDescent: 293
OS2WinDOffset: 0
HheadAscent: 1069
HheadAOffset: 0
HheadDescent: -293
HheadDOffset: 0
OS2SubXSize: 650
OS2SubYSize: 600
OS2SubXOff: 0
OS2SubYOff: 75
OS2SupXSize: 650
OS2SupYSize: 600
OS2SupXOff: 0
OS2SupYOff: 350
OS2StrikeYSize: 50
OS2StrikeYPos: 322
OS2CapHeight: 714
OS2XHeight: 536
OS2Vendor: 'GOOG'
OS2CodePages: 0000019f.00000000
OS2UnicodeRanges: e00002ff.4000201f.08000029.00100000
Lookup: 1 0 0 "'aalt' Access All Alternates lookup 0" { "'aalt' Access All Alternates lookup 0 subtable"  } ['aalt' ('DFLT' <'dflt' > 'cyrl' <'MKD ' 'SRB ' 'dflt' > 'grek' <'dflt' > 'latn' <'APPH' 'CAT ' 'IPPH' 'MAH ' 'MOL ' 'NAV ' 'ROM ' 'dflt' > ) ]
Lookup: 3 0 0 "'aalt' Access All Alternates lookup 1" { "'aalt' Access All Alternates lookup 1 subtable"  } ['aalt' ('DFLT' <'dflt' > 'cyrl' <'MKD ' 'SRB ' 'dflt' > 'grek' <'dflt' > 'latn' <'APPH' 'CAT ' 'IPPH' 'MAH ' 'MOL ' 'NAV ' 'ROM ' 'dflt' > ) ]

StartChar: .notdef
Encoding: 256 -1 0
Width: 590
Flags: W
LayerCount: 2
Fore
SplineSet
88 0 m 1,0,-1
 88 714 l 1,1,-1
 499 714 l 1,2,-1
 499 0 l 1,3,-1
 88 0 l 1,0,-1
139 51 m 1,4,-1
 448 51 l 1,5,-1
 448 663 l 1,6,-1
 139 663 l 1,7,-1
 139 51 l 1,4,-1
EndSplineSet
Validated: 1
EndChar

StartChar: exclam
Encoding: 260 33 4
Width: 291
Flags: W
LayerCount: 2
Fore
SplineSet
121 206 m 1,0,-1
 92 714 l 1,1,-1
 199 714 l 1,2,-1
 170 206 l 1,3,-1
 121 206 l 1,0,-1
146 -7 m 0,4,5
 123 -7 123 -7 107 7 c 128,-1,6
 91 21 91 21 91 57 c 256,7,8
 91 93 91 93 107 107 c 128,-1,9
 123 121 123 121 146 121 c 0,10,11
 168 121 168 121 184 107 c 128,-1,12
 200 93 200 93 200 57 c 256,13,14
 200 21 200 21 184 7 c 128,-1,15
 168 -7 168 -7 146 -7 c 0,4,5
EndSplineSet
Validated: 1
Substitution2: "'smcp' Lowercase to Small Capitals lookup 38 subtable" exclam.sc
Substitution2: "'c2sc' Capitals to Small Capitals lookup 37 subtable" exclam.sc
Substitution2: "'aalt' Access All Alternates lookup 0 subtable" exclam.sc
EndChar

StartChar: quotedbl
Encoding: 261 34 5
Width: 363
Flags: W
LayerCount: 2
Fore
SplineSet
243 482 m 1,0,-1
 215 714 l 1,1,-1
 313 714 l 1,2,-1
 285 482 l 1,3,-1
 243 482 l 1,0,-1
79 482 m 1,4,-1
 51 714 l 1,5,-1
 148 714 l 1,6,-1
 120 482 l 1,7,-1
 79 482 l 1,4,-1
EndSplineSet
Validated: 1
EndChar

StartChar: numbersign
Encoding: 262 35 6
Width: 478
Flags: W
LayerCount: 2
Fore
SplineSet
55 0 m 1,0,-1
 93 207 l 1,1,-1
 12 207 l 1,2,-1
 12 260 l 1,3,-1
 104 260 l 1,4,-1
 141 459 l 1,5,-1
 44 459 l 1,6,-1
 44 514 l 1,7,-1
 152 514 l 1,8,-1
 189 714 l 1,9,-1
 246 714 l 1,10,-1
 208 514 l 1,11,-1
 323 514 l 1,12,-1
 360 714 l 1,13,-1
 417 714 l 1,14,-1
 379 514 l 1,15,-1
 465 514 l 1,16,-1
 465 459 l 1,17,-1
 369 459 l 1,18,-1
 331 260 l 1,19,-1
 433 260 l 1,20,-1
 433 207 l 1,21,-1
 321 207 l 1,22,-1
 282 0 l 1,23,-1
 226 0 l 1,24,-1
 264 207 l 1,25,-1
 150 207 l 1,26,-1
 111 0 l 1,27,-1
 55 0 l 1,0,-1
160 260 m 1,28,-1
 275 260 l 1,29,-1
 313 459 l 1,30,-1
 198 459 l 1,31,-1
 160 260 l 1,28,-1
EndSplineSet
Validated: 1
EndChar

StartChar: dollar
Encoding: 263 36 7
Width: 477
Flags: W
LayerCount: 2
Fore
SplineSet
218 -79 m 1,0,-1
 218 40 l 1,1,2
 137 43 137 43 93 79 c 128,-1,3
 49 115 49 115 49 176 c 0,4,5
 49 204 49 204 66 222.5 c 128,-1,6
 83 241 83 241 113 241 c 1,7,8
 119 172 119 172 142 130.5 c 128,-1,9
 165 89 165 89 218 83 c 1,10,-1
 218 335 l 1,11,12
 136 375 136 375 103 418 c 128,-1,13
 70 461 70 461 70 526 c 0,14,15
 70 594 70 594 111.5 634 c 128,-1,16
 153 674 153 674 218 683 c 1,17,-1
 218 760 l 1,18,-1
 260 760 l 1,19,-1
 260 684 l 1,20,21
 334 683 334 683 368.5 651 c 128,-1,22
 403 619 403 619 403 576 c 0,23,24
 403 546 403 546 384.5 529 c 128,-1,25
 366 512 366 512 333 512 c 1,26,27
 333 543 333 543 326.5 572 c 128,-1,28
 320 601 320 601 304 620.5 c 128,-1,29
 288 640 288 640 260 642 c 1,30,-1
 260 405 l 1,31,32
 340 365 340 365 380 320 c 128,-1,33
 420 275 420 275 420 210 c 0,34,35
 420 138 420 138 377 95 c 128,-1,36
 334 52 334 52 260 42 c 1,37,-1
 260 -79 l 1,38,-1
 218 -79 l 1,0,-1
218 427 m 1,39,-1
 218 642 l 1,40,41
 185 635 185 635 166 608 c 128,-1,42
 147 581 147 581 147 542 c 0,43,44
 147 498 147 498 164.5 472.5 c 128,-1,45
 182 447 182 447 218 427 c 1,39,-1
260 85 m 1,46,47
 299 92 299 92 320.5 120.5 c 128,-1,48
 342 149 342 149 342 192 c 0,49,50
 342 234 342 234 322.5 262.5 c 128,-1,51
 303 291 303 291 260 315 c 1,52,-1
 260 85 l 1,46,47
EndSplineSet
Validated: 1
EndChar

StartChar: percent
Encoding: 264 37 8
Width: 767
Flags: W
LayerCount: 2
Fore
SplineSet
179 280 m 0,0,1
 104 280 104 280 70.5 341.5 c 128,-1,2
 37 403 37 403 37 503 c 0,3,4
 37 604 37 604 70.5 664 c 128,-1,5
 104 724 104 724 180 724 c 0,6,7
 251 724 251 724 286.5 664 c 128,-1,8
 322 604 322 604 322 503 c 0,9,10
 322 403 322 403 286.5 341.5 c 128,-1,11
 251 280 251 280 179 280 c 0,0,1
201 0 m 1,12,-1
 505 714 l 1,13,-1
 562 714 l 1,14,-1
 260 0 l 1,15,-1
 201 0 l 1,12,-1
179 318 m 0,16,17
 217 318 217 318 231.5 366 c 128,-1,18
 246 414 246 414 246 503 c 0,19,20
 246 590 246 590 231.5 638 c 128,-1,21
 217 686 217 686 180 686 c 0,22,23
 142 686 142 686 127 638 c 128,-1,24
 112 590 112 590 112 503 c 0,25,26
 112 414 112 414 127 366 c 128,-1,27
 142 318 142 318 179 318 c 0,16,17
587 -10 m 0,28,29
 512 -10 512 -10 478.5 51.5 c 128,-1,30
 445 113 445 113 445 213 c 0,31,32
 445 314 445 314 478.5 374 c 128,-1,33
 512 434 512 434 588 434 c 0,34,35
 659 434 659 434 694.5 374 c 128,-1,36
 730 314 730 314 730 213 c 0,37,38
 730 113 730 113 694.5 51.5 c 128,-1,39
 659 -10 659 -10 587 -10 c 0,28,29
587 28 m 0,40,41
 625 28 625 28 639.5 76 c 128,-1,42
 654 124 654 124 654 213 c 0,43,44
 654 300 654 300 639.5 348 c 128,-1,45
 625 396 625 396 587 396 c 0,46,47
 550 396 550 396 535 348 c 128,-1,48
 520 300 520 300 520 213 c 0,49,50
 520 124 520 124 535 76 c 128,-1,51
 550 28 550 28 587 28 c 0,40,41
EndSplineSet
Validated: 1
EndChar

StartChar: ampersand
Encoding: 265 38 9
Width: 643
Flags: W
LayerCount: 2
Fore
SplineSet
234 -10 m 0,0,1
 136 -10 136 -10 83.5 47.5 c 128,-1,2
 31 105 31 105 31 199 c 0,3,4
 31 255 31 255 49.5 293.5 c 128,-1,5
 68 332 68 332 100 358 c 128,-1,6
 132 384 132 384 172 404 c 1,7,8
 139 447 139 447 122.5 484.5 c 128,-1,9
 106 522 106 522 106 574 c 0,10,11
 106 639 106 639 145 681.5 c 128,-1,12
 184 724 184 724 268 724 c 0,13,14
 323 724 323 724 357 704 c 128,-1,15
 391 684 391 684 406 651.5 c 128,-1,16
 421 619 421 619 421 582 c 0,17,18
 421 518 421 518 387.5 476.5 c 128,-1,19
 354 435 354 435 280 400 c 1,20,-1
 429 207 l 1,21,22
 441 251 441 251 445.5 297.5 c 128,-1,23
 450 344 450 344 450 382 c 2,24,-1
 450 421 l 1,25,-1
 607 421 l 1,26,-1
 607 380 l 1,27,-1
 598 380 l 2,28,29
 579 380 579 380 561.5 376.5 c 128,-1,30
 544 373 544 373 530.5 359.5 c 128,-1,31
 517 346 517 346 510 315 c 0,32,33
 503 280 503 280 492.5 241 c 128,-1,34
 482 202 482 202 467 165 c 1,35,-1
 549 67 l 2,36,37
 562 51 562 51 579 46 c 128,-1,38
 596 41 596 41 626 41 c 2,39,-1
 634 41 l 1,40,-1
 634 0 l 1,41,-1
 491 0 l 1,42,-1
 421 90 l 1,43,44
 392 49 392 49 346.5 19.5 c 128,-1,45
 301 -10 301 -10 234 -10 c 0,0,1
250 435 m 1,46,47
 301 460 301 460 324 494 c 128,-1,48
 347 528 347 528 347 581 c 0,49,50
 347 622 347 622 328.5 650 c 128,-1,51
 310 678 310 678 269 678 c 0,52,53
 230 678 230 678 209.5 651 c 128,-1,54
 189 624 189 624 189 580 c 0,55,56
 189 542 189 542 203.5 509.5 c 128,-1,57
 218 477 218 477 250 435 c 1,46,47
249 45 m 0,58,59
 296 45 296 45 331.5 68.5 c 128,-1,60
 367 92 367 92 390 127 c 1,61,-1
 203 367 l 1,62,63
 167 344 167 344 144.5 305.5 c 128,-1,64
 122 267 122 267 122 199 c 0,65,66
 122 122 122 122 157 83.5 c 128,-1,67
 192 45 192 45 249 45 c 0,58,59
EndSplineSet
Validated: 1
Substitution2: "'smcp' Lowercase to Small Capitals lookup 38 subtable" ampersand.sc
Substitution2: "'c2sc' Capitals to Small Capitals lookup 37 subtable" ampersand.sc
Substitution2: "'aalt' Access All Alternates lookup 0 subtable" ampersand.sc
EndChar

StartChar: quotesingle
Encoding: 266 39 10
Width: 199
Flags: W
LayerCount: 2
Fore
SplineSet
79 482 m 1,0,-1
 51 714 l 1,1,-1
 148 714 l 1,2,-1
 120 482 l 1,3,-1
 79 482 l 1,0,-1
EndSplineSet
Validated: 1
EndChar

StartChar: parenleft
Encoding: 267 40 11
Width: 303
Flags: W
LayerCount: 2
Fore
SplineSet
276 -127 m 1,0,1
 195 -91 195 -91 144.5 -33.5 c 128,-1,2
 94 24 94 24 71.5 109.5 c 128,-1,3
 49 195 49 195 49 317 c 0,4,5
 49 438 49 438 71.5 523.5 c 128,-1,6
 94 609 94 609 144.5 666 c 128,-1,7
 195 723 195 723 276 759 c 1,8,-1
 276 716 l 1,9,10
 219 674 219 674 191 611 c 128,-1,11
 163 548 163 548 154.5 472.5 c 128,-1,12
 146 397 146 397 146 317 c 0,13,14
 146 238 146 238 154.5 161.5 c 128,-1,15
 163 85 163 85 191 22 c 128,-1,16
 219 -41 219 -41 276 -83 c 1,17,-1
 276 -127 l 1,0,1
EndSplineSet
Validated: 1
Substitution2: "'smcp' Lowercase to Small Capitals lookup 38 subtable" parenleft.sc
Substitution2: "'c2sc' Capitals to Small Capitals lookup 37 subtable" parenleft.sc
Substitution2: "'sups' Superscript lookup 22 subtable" uni207D
Substitution2: "'subs' Subscript lookup 21 subtable" uni208D
AlternateSubs2: "'aalt' Access All Alternates lookup 1 subtable" uni208D uni207D parenleft.sc
EndChar

StartChar: parenright
Encoding: 268 41 12
Width: 303
Flags: W
LayerCount: 2
Fore
SplineSet
27 -127 m 1,0,-1
 27 -83 l 1,1,2
 85 -41 85 -41 112.5 22 c 128,-1,3
 140 85 140 85 149 161.5 c 128,-1,4
 158 238 158 238 158 317 c 0,5,6
 158 397 158 397 149 472.5 c 128,-1,7
 140 548 140 548 112.5 611 c 128,-1,8
 85 674 85 674 27 716 c 1,9,-1
 27 759 l 1,10,11
 109 723 109 723 159 666 c 128,-1,12
 209 609 209 609 232 523.5 c 128,-1,13
 255 438 255 438 255 317 c 0,14,15
 255 195 255 195 232 109.5 c 128,-1,16
 209 24 209 24 159 -33.5 c 128,-1,17
 109 -91 109 -91 27 -127 c 1,0,-1
EndSplineSet
Validated: 1
Substitution2: "'smcp' Lowercase to Small Capitals lookup 38 subtable" parenright.sc
Substitution2: "'c2sc' Capitals to Small Capitals lookup 37 subtable" parenright.sc
Substitution2: "'sups' Superscript lookup 22 subtable" uni207E
Substitution2: "'subs' Subscript lookup 21 subtable" uni208E
AlternateSubs2: "'aalt' Access All Alternates lookup 1 subtable" uni208E uni207E parenright.sc
EndChar

StartChar: asterisk
Encoding: 269 42 13
Width: 413
Flags: W
LayerCount: 2
Fore
SplineSet
168 375 m 1,0,-1
 191 540 l 1,1,-1
 65 442 l 1,2,-1
 34 516 l 1,3,-1
 171 568 l 1,4,-1
 34 619 l 1,5,-1
 65 693 l 1,6,-1
 191 595 l 1,7,-1
 168 760 l 1,8,-1
 244 760 l 1,9,-1
 220 596 l 1,10,-1
 347 691 l 1,11,-1
 377 618 l 1,12,-1
 241 568 l 1,13,-1
 377 517 l 1,14,-1
 347 444 l 1,15,-1
 220 540 l 1,16,-1
 244 375 l 1,17,-1
 168 375 l 1,0,-1
EndSplineSet
Validated: 1
EndChar

StartChar: plus
Encoding: 270 43 14
Width: 465
Flags: W
LayerCount: 2
Fore
SplineSet
202 143 m 1,0,-1
 202 329 l 1,1,-1
 50 329 l 1,2,-1
 50 386 l 1,3,-1
 202 386 l 1,4,-1
 202 572 l 1,5,-1
 261 572 l 1,6,-1
 261 386 l 1,7,-1
 416 386 l 1,8,-1
 416 329 l 1,9,-1
 261 329 l 1,10,-1
 261 143 l 1,11,-1
 202 143 l 1,0,-1
EndSplineSet
Validated: 1
Substitution2: "'sups' Superscript lookup 22 subtable" uni207A
Substitution2: "'subs' Subscript lookup 21 subtable" uni208A
AlternateSubs2: "'aalt' Access All Alternates lookup 1 subtable" uni208A uni207A
EndChar

StartChar: comma
Encoding: 271 44 15
Width: 220
Flags: W
LayerCount: 2
Fore
SplineSet
31 -154 m 1,0,-1
 31 -115 l 1,1,2
 70 -100 70 -100 88.5 -76 c 128,-1,3
 107 -52 107 -52 107 -25 c 0,4,5
 107 -11 107 -11 98 -2.5 c 128,-1,6
 89 6 89 6 78 13.5 c 128,-1,7
 67 21 67 21 58 33 c 128,-1,8
 49 45 49 45 49 66 c 0,9,10
 49 92 49 92 64.5 106.5 c 128,-1,11
 80 121 80 121 102 121 c 0,12,13
 130 121 130 121 148.5 97.5 c 128,-1,14
 167 74 167 74 167 31 c 0,15,16
 167 -29 167 -29 136 -79 c 128,-1,17
 105 -129 105 -129 31 -154 c 1,0,-1
EndSplineSet
Validated: 1
EndChar

StartChar: hyphen
Encoding: 272 45 16
Width: 265
Flags: W
LayerCount: 2
Fore
SplineSet
22 236 m 1,0,-1
 22 309 l 1,1,-1
 244 309 l 1,2,-1
 244 236 l 1,3,-1
 22 236 l 1,0,-1
EndSplineSet
Validated: 1
EndChar

StartChar: period
Encoding: 273 46 17
Width: 220
Flags: W
LayerCount: 2
Fore
SplineSet
110 -7 m 0,0,1
 87 -7 87 -7 71 7 c 128,-1,2
 55 21 55 21 55 57 c 256,3,4
 55 93 55 93 71 107 c 128,-1,5
 87 121 87 121 110 121 c 0,6,7
 132 121 132 121 148.5 107 c 128,-1,8
 165 93 165 93 165 57 c 256,9,10
 165 21 165 21 148.5 7 c 128,-1,11
 132 -7 132 -7 110 -7 c 0,0,1
EndSplineSet
Validated: 1
EndChar

StartChar: slash
Encoding: 274 47 18
Width: 246
Flags: W
LayerCount: 2
Fore
SplineSet
0 -121 m 1,0,-1
 195 760 l 1,1,-1
 246 760 l 1,2,-1
 53 -120 l 1,3,-1
 0 -121 l 1,0,-1
EndSplineSet
Validated: 1
Substitution2: "'frac' Diagonal Fractions lookup 26 subtable" fraction
Substitution2: "'aalt' Access All Alternates lookup 0 subtable" fraction
EndChar

StartChar: zero
Encoding: 275 48 19
Width: 477
Flags: W
LayerCount: 2
Fore
SplineSet
239 -10 m 0,0,1
 130 -10 130 -10 83.5 87 c 128,-1,2
 37 184 37 184 37 359 c 0,3,4
 37 472 37 472 56.5 554 c 128,-1,5
 76 636 76 636 120.5 680 c 128,-1,6
 165 724 165 724 240 724 c 0,7,8
 345 724 345 724 392.5 628 c 128,-1,9
 440 532 440 532 440 358 c 0,10,11
 440 186 440 186 391.5 88 c 128,-1,12
 343 -10 343 -10 239 -10 c 0,0,1
239 41 m 0,13,14
 299 41 299 41 322.5 124.5 c 128,-1,15
 346 208 346 208 346 358 c 256,16,17
 346 508 346 508 323 590.5 c 128,-1,18
 300 673 300 673 240 673 c 0,19,20
 178 673 178 673 155 590.5 c 128,-1,21
 132 508 132 508 132 358 c 256,22,23
 132 208 132 208 155 124.5 c 128,-1,24
 178 41 178 41 239 41 c 0,13,14
EndSplineSet
Validated: 1
Substitution2: "'zero' Slashed Zero lookup 42 subtable" zero.slash
Substitution2: "'case' Case-Sensitive Forms lookup 39 subtable" zero.lf
Substitution2: "'onum' Oldstyle Figures lookup 36 subtable" zero.tosf
Substitution2: "'pnum' Proportional Numbers lookup 34 subtable" zero.lf
Substitution2: "'frac' Diagonal Fractions lookup 27 subtable" zero.numr
Substitution2: "'dnom' Denominators lookup 25 subtable" zero.dnom
Substitution2: "'numr' Numerators lookup 24 subtable" zero.numr
Substitution2: "'sups' Superscript lookup 22 subtable" uni2070
Substitution2: "'subs' Subscript lookup 21 subtable" uni2080
AlternateSubs2: "'aalt' Access All Alternates lookup 1 subtable" uni2070 zero.lf zero.tosf zero.dnom zero.numr uni2080
EndChar

StartChar: one
Encoding: 276 49 20
Width: 477
Flags: W
LayerCount: 2
Fore
SplineSet
84 0 m 1,0,-1
 84 41 l 1,1,-1
 135 41 l 2,2,3
 166 41 166 41 186.5 53 c 128,-1,4
 207 65 207 65 207 113 c 2,5,-1
 207 640 l 1,6,7
 175 596 175 596 148.5 567.5 c 128,-1,8
 122 539 122 539 96 539 c 0,9,10
 77 539 77 539 65 553 c 128,-1,11
 53 567 53 567 53 590 c 1,12,13
 79 598 79 598 107.5 614 c 128,-1,14
 136 630 136 630 179 667 c 2,15,-1
 239 718 l 1,16,-1
 296 718 l 1,17,-1
 296 113 l 2,18,19
 296 67 296 67 316.5 54 c 128,-1,20
 337 41 337 41 368 41 c 2,21,-1
 406 41 l 1,22,-1
 406 0 l 1,23,-1
 84 0 l 1,0,-1
EndSplineSet
Validated: 1
Substitution2: "'case' Case-Sensitive Forms lookup 39 subtable" one.lf
Substitution2: "'onum' Oldstyle Figures lookup 36 subtable" one.tosf
Substitution2: "'pnum' Proportional Numbers lookup 34 subtable" one.lf
Substitution2: "'frac' Diagonal Fractions lookup 27 subtable" one.numr
Substitution2: "'dnom' Denominators lookup 25 subtable" one.dnom
Substitution2: "'numr' Numerators lookup 24 subtable" one.numr
Substitution2: "'sups' Superscript lookup 22 subtable" uni00B9
Substitution2: "'subs' Subscript lookup 21 subtable" uni2081
AlternateSubs2: "'aalt' Access All Alternates lookup 1 subtable" uni00B9 one.lf one.tosf one.dnom one.numr uni2081
EndChar

StartChar: two
Encoding: 277 50 21
Width: 477
Flags: W
LayerCount: 2
Fore
SplineSet
44 0 m 1,0,-1
 44 69 l 1,1,-1
 191 262 l 2,2,3
 237 322 237 322 264 369 c 128,-1,4
 291 416 291 416 302 458 c 128,-1,5
 313 500 313 500 313 546 c 0,6,7
 313 604 313 604 292 639.5 c 128,-1,8
 271 675 271 675 227 675 c 0,9,10
 188 675 188 675 167.5 654.5 c 128,-1,11
 147 634 147 634 139 600.5 c 128,-1,12
 131 567 131 567 131 529 c 1,13,14
 101 529 101 529 77 542.5 c 128,-1,15
 53 556 53 556 53 594 c 0,16,17
 53 648 53 648 96.5 686 c 128,-1,18
 140 724 140 724 227 724 c 0,19,20
 311 724 311 724 359 677.5 c 128,-1,21
 407 631 407 631 407 555 c 0,22,23
 407 478 407 478 367 410.5 c 128,-1,24
 327 343 327 343 260 261 c 2,25,-1
 114 78 l 1,26,-1
 311 78 l 2,27,28
 348 78 348 78 362.5 98.5 c 128,-1,29
 377 119 377 119 384 152 c 2,30,-1
 388 171 l 1,31,-1
 427 171 l 1,32,-1
 424 0 l 1,33,-1
 44 0 l 1,0,-1
EndSplineSet
Validated: 1
Substitution2: "'case' Case-Sensitive Forms lookup 39 subtable" two.lf
Substitution2: "'onum' Oldstyle Figures lookup 36 subtable" two.tosf
Substitution2: "'pnum' Proportional Numbers lookup 34 subtable" two.lf
Substitution2: "'frac' Diagonal Fractions lookup 27 subtable" two.numr
Substitution2: "'dnom' Denominators lookup 25 subtable" two.dnom
Substitution2: "'numr' Numerators lookup 24 subtable" two.numr
Substitution2: "'sups' Superscript lookup 22 subtable" uni00B2
Substitution2: "'subs' Subscript lookup 21 subtable" uni2082
AlternateSubs2: "'aalt' Access All Alternates lookup 1 subtable" uni00B2 two.lf two.tosf two.dnom two.numr uni2082
EndChar

StartChar: three
Encoding: 278 51 22
Width: 477
Flags: W
LayerCount: 2
Fore
SplineSet
218 -10 m 0,0,1
 126 -10 126 -10 84.5 23 c 128,-1,2
 43 56 43 56 43 102 c 0,3,4
 43 131 43 131 61.5 148 c 128,-1,5
 80 165 80 165 108 165 c 1,6,7
 108 113 108 113 136.5 78 c 128,-1,8
 165 43 165 43 218 43 c 0,9,10
 250 43 250 43 277 58 c 128,-1,11
 304 73 304 73 320.5 107.5 c 128,-1,12
 337 142 337 142 337 199 c 0,13,14
 337 268 337 268 300 307.5 c 128,-1,15
 263 347 263 347 192 347 c 2,16,-1
 155 347 l 1,17,-1
 155 395 l 1,18,-1
 192 395 l 2,19,20
 249 395 249 395 282.5 436.5 c 128,-1,21
 316 478 316 478 316 550 c 0,22,23
 316 609 316 609 294 642 c 128,-1,24
 272 675 272 675 227 675 c 0,25,26
 191 675 191 675 170.5 655 c 128,-1,27
 150 635 150 635 141.5 602 c 128,-1,28
 133 569 133 569 133 530 c 1,29,30
 102 530 102 530 79.5 543 c 128,-1,31
 57 556 57 556 57 591 c 0,32,33
 57 646 57 646 101 685 c 128,-1,34
 145 724 145 724 232 724 c 0,35,36
 311 724 311 724 360.5 681.5 c 128,-1,37
 410 639 410 639 410 561 c 0,38,39
 410 493 410 493 372 444 c 128,-1,40
 334 395 334 395 278 379 c 1,41,42
 312 374 312 374 347.5 356 c 128,-1,43
 383 338 383 338 407 300.5 c 128,-1,44
 431 263 431 263 431 198 c 0,45,46
 431 140 431 140 412.5 100 c 128,-1,47
 394 60 394 60 362.5 36 c 128,-1,48
 331 12 331 12 293.5 1 c 128,-1,49
 256 -10 256 -10 218 -10 c 0,0,1
EndSplineSet
Validated: 1
Substitution2: "'case' Case-Sensitive Forms lookup 39 subtable" three.lf
Substitution2: "'onum' Oldstyle Figures lookup 36 subtable" three.tosf
Substitution2: "'pnum' Proportional Numbers lookup 34 subtable" three.lf
Substitution2: "'frac' Diagonal Fractions lookup 27 subtable" three.numr
Substitution2: "'dnom' Denominators lookup 25 subtable" three.dnom
Substitution2: "'numr' Numerators lookup 24 subtable" three.numr
Substitution2: "'sups' Superscript lookup 22 subtable" uni00B3
Substitution2: "'subs' Subscript lookup 21 subtable" uni2083
AlternateSubs2: "'aalt' Access All Alternates lookup 1 subtable" uni00B3 three.lf three.tosf three.dnom three.numr uni2083
EndChar

StartChar: four
Encoding: 279 52 23
Width: 477
Flags: W
LayerCount: 2
Fore
SplineSet
180 0 m 1,0,-1
 180 41 l 1,1,-1
 203 41 l 2,2,3
 233 41 233 41 253.5 53.5 c 128,-1,4
 274 66 274 66 274 113 c 2,5,-1
 274 197 l 1,6,-1
 14 197 l 1,7,-1
 14 236 l 1,8,-1
 273 714 l 1,9,-1
 362 714 l 1,10,-1
 362 252 l 1,11,-1
 464 252 l 1,12,-1
 464 197 l 1,13,-1
 362 197 l 1,14,-1
 362 113 l 2,15,16
 362 66 362 66 382.5 53.5 c 128,-1,17
 403 41 403 41 432 41 c 2,18,-1
 443 41 l 1,19,-1
 443 0 l 1,20,-1
 180 0 l 1,0,-1
76 252 m 1,21,-1
 274 252 l 1,22,-1
 274 440 l 2,23,24
 274 483 274 483 275 541 c 128,-1,25
 276 599 276 599 280 645 c 1,26,27
 273 630 273 630 259 600.5 c 128,-1,28
 245 571 245 571 229 539.5 c 128,-1,29
 213 508 213 508 202 487 c 2,30,-1
 76 252 l 1,21,-1
EndSplineSet
Validated: 1
Substitution2: "'case' Case-Sensitive Forms lookup 39 subtable" four.lf
Substitution2: "'onum' Oldstyle Figures lookup 36 subtable" four.tosf
Substitution2: "'pnum' Proportional Numbers lookup 34 subtable" four.lf
Substitution2: "'frac' Diagonal Fractions lookup 27 subtable" four.numr
Substitution2: "'dnom' Denominators lookup 25 subtable" four.dnom
Substitution2: "'numr' Numerators lookup 24 subtable" four.numr
Substitution2: "'sups' Superscript lookup 22 subtable" uni2074
Substitution2: "'subs' Subscript lookup 21 subtable" uni2084
AlternateSubs2: "'aalt' Access All Alternates lookup 1 subtable" uni2074 four.lf four.tosf four.dnom four.numr uni2084
EndChar

StartChar: five
Encoding: 280 53 24
Width: 477
Flags: W
LayerCount: 2
Fore
SplineSet
208 -10 m 256,0,1
 145 -10 145 -10 109 6.5 c 128,-1,2
 73 23 73 23 59 47 c 128,-1,3
 45 71 45 71 45 93 c 0,4,5
 45 120 45 120 59.5 137 c 128,-1,6
 74 154 74 154 101 154 c 1,7,8
 101 109 101 109 126 76 c 128,-1,9
 151 43 151 43 203 43 c 0,10,11
 237 43 237 43 264 59.5 c 128,-1,12
 291 76 291 76 307 114 c 128,-1,13
 323 152 323 152 323 218 c 0,14,15
 323 297 323 297 288.5 337 c 128,-1,16
 254 377 254 377 197 377 c 0,17,18
 158 377 158 377 132.5 368.5 c 128,-1,19
 107 360 107 360 90 351 c 1,20,-1
 70 360 l 1,21,-1
 98 714 l 1,22,-1
 389 714 l 1,23,-1
 392 565 l 1,24,-1
 353 565 l 1,25,-1
 348 589 l 2,26,27
 342 615 342 615 335.5 625.5 c 128,-1,28
 329 636 329 636 303 636 c 2,29,-1
 137 636 l 1,30,-1
 119 412 l 1,31,32
 134 418 134 418 160 423.5 c 128,-1,33
 186 429 186 429 217 429 c 0,34,35
 304 429 304 429 360.5 376 c 128,-1,36
 417 323 417 323 417 218 c 0,37,38
 417 151 417 151 391 99.5 c 128,-1,39
 365 48 365 48 318 19 c 128,-1,40
 271 -10 271 -10 208 -10 c 256,0,1
EndSplineSet
Validated: 1
Substitution2: "'case' Case-Sensitive Forms lookup 39 subtable" five.lf
Substitution2: "'onum' Oldstyle Figures lookup 36 subtable" five.tosf
Substitution2: "'pnum' Proportional Numbers lookup 34 subtable" five.lf
Substitution2: "'frac' Diagonal Fractions lookup 27 subtable" five.numr
Substitution2: "'dnom' Denominators lookup 25 subtable" five.dnom
Substitution2: "'numr' Numerators lookup 24 subtable" five.numr
Substitution2: "'sups' Superscript lookup 22 subtable" uni2075
Substitution2: "'subs' Subscript lookup 21 subtable" uni2085
AlternateSubs2: "'aalt' Access All Alternates lookup 1 subtable" uni2075 five.lf five.tosf five.dnom five.numr uni2085
EndChar

StartChar: six
Encoding: 281 54 25
Width: 477
Flags: W
LayerCount: 2
Fore
SplineSet
250 -10 m 0,0,1
 193 -10 193 -10 147.5 27 c 128,-1,2
 102 64 102 64 76 143 c 128,-1,3
 50 222 50 222 50 346 c 0,4,5
 50 459 50 459 74 544 c 128,-1,6
 98 629 98 629 147 676.5 c 128,-1,7
 196 724 196 724 272 724 c 0,8,9
 345 724 345 724 381.5 692 c 128,-1,10
 418 660 418 660 418 619 c 0,11,12
 418 561 418 561 348 561 c 1,13,14
 348 612 348 612 330 644.5 c 128,-1,15
 312 677 312 677 270 677 c 0,16,17
 209 677 209 677 177.5 601.5 c 128,-1,18
 146 526 146 526 143 380 c 1,19,20
 163 400 163 400 193 416.5 c 128,-1,21
 223 433 223 433 266 433 c 0,22,23
 343 433 343 433 389.5 378.5 c 128,-1,24
 436 324 436 324 436 229 c 0,25,26
 436 159 436 159 414 105 c 128,-1,27
 392 51 392 51 350.5 20.5 c 128,-1,28
 309 -10 309 -10 250 -10 c 0,0,1
253 42 m 0,29,30
 297 42 297 42 320.5 84.5 c 128,-1,31
 344 127 344 127 344 219 c 0,32,33
 344 305 344 305 319.5 344.5 c 128,-1,34
 295 384 295 384 248 384 c 0,35,36
 211 384 211 384 184.5 365 c 128,-1,37
 158 346 158 346 142 326 c 1,38,39
 144 180 144 180 173.5 111 c 128,-1,40
 203 42 203 42 253 42 c 0,29,30
EndSplineSet
Validated: 1
Substitution2: "'case' Case-Sensitive Forms lookup 39 subtable" six.lf
Substitution2: "'onum' Oldstyle Figures lookup 36 subtable" six.tosf
Substitution2: "'pnum' Proportional Numbers lookup 34 subtable" six.lf
Substitution2: "'frac' Diagonal Fractions lookup 27 subtable" six.numr
Substitution2: "'dnom' Denominators lookup 25 subtable" six.dnom
Substitution2: "'numr' Numerators lookup 24 subtable" six.numr
Substitution2: "'sups' Superscript lookup 22 subtable" uni2076
Substitution2: "'subs' Subscript lookup 21 subtable" uni2086
AlternateSubs2: "'aalt' Access All Alternates lookup 1 subtable" uni2076 six.lf six.tosf six.dnom six.numr uni2086
EndChar

StartChar: seven
Encoding: 282 55 26
Width: 477
Flags: W
LayerCount: 2
Fore
SplineSet
152 0 m 1,0,-1
 366 636 l 1,1,-1
 141 636 l 2,2,3
 97 636 97 636 92 583 c 2,4,-1
 88 535 l 1,5,-1
 46 535 l 1,6,-1
 51 714 l 1,7,-1
 435 714 l 1,8,-1
 435 686 l 1,9,-1
 217 0 l 1,10,-1
 152 0 l 1,0,-1
EndSplineSet
Validated: 1
Substitution2: "'case' Case-Sensitive Forms lookup 39 subtable" seven.lf
Substitution2: "'onum' Oldstyle Figures lookup 36 subtable" seven.tosf
Substitution2: "'pnum' Proportional Numbers lookup 34 subtable" seven.lf
Substitution2: "'frac' Diagonal Fractions lookup 27 subtable" seven.numr
Substitution2: "'dnom' Denominators lookup 25 subtable" seven.dnom
Substitution2: "'numr' Numerators lookup 24 subtable" seven.numr
Substitution2: "'sups' Superscript lookup 22 subtable" uni2077
Substitution2: "'subs' Subscript lookup 21 subtable" uni2087
AlternateSubs2: "'aalt' Access All Alternates lookup 1 subtable" uni2077 seven.lf seven.tosf seven.dnom seven.numr uni2087
EndChar

StartChar: eight
Encoding: 283 56 27
Width: 477
Flags: W
LayerCount: 2
Fore
SplineSet
235 -10 m 0,0,1
 169 -10 169 -10 125.5 14.5 c 128,-1,2
 82 39 82 39 60 81 c 128,-1,3
 38 123 38 123 38 175 c 0,4,5
 38 250 38 250 76 293.5 c 128,-1,6
 114 337 114 337 168 366 c 1,7,8
 119 397 119 397 88 439 c 128,-1,9
 57 481 57 481 57 547 c 0,10,11
 57 595 57 595 76.5 635.5 c 128,-1,12
 96 676 96 676 137 700 c 128,-1,13
 178 724 178 724 242 724 c 0,14,15
 325 724 325 724 370 677 c 128,-1,16
 415 630 415 630 415 556 c 0,17,18
 415 488 415 488 384 448 c 128,-1,19
 353 408 353 408 301 380 c 1,20,21
 364 347 364 347 402 302 c 128,-1,22
 440 257 440 257 440 182 c 0,23,24
 440 91 440 91 384.5 40.5 c 128,-1,25
 329 -10 329 -10 235 -10 c 0,0,1
259 403 m 1,26,27
 301 430 301 430 317.5 466 c 128,-1,28
 334 502 334 502 334 555 c 0,29,30
 334 586 334 586 324.5 613.5 c 128,-1,31
 315 641 315 641 294 658.5 c 128,-1,32
 273 676 273 676 239 676 c 0,33,34
 193 676 193 676 168.5 643.5 c 128,-1,35
 144 611 144 611 144 559 c 0,36,37
 144 501 144 501 174 467 c 128,-1,38
 204 433 204 433 259 403 c 1,26,27
237 38 m 0,39,40
 290 38 290 38 321.5 72.5 c 128,-1,41
 353 107 353 107 353 168 c 0,42,43
 353 220 353 220 320 259 c 128,-1,44
 287 298 287 298 208 341 c 1,45,46
 169 315 169 315 147 273.5 c 128,-1,47
 125 232 125 232 125 176 c 0,48,49
 125 111 125 111 154 74.5 c 128,-1,50
 183 38 183 38 237 38 c 0,39,40
EndSplineSet
Validated: 1
Substitution2: "'case' Case-Sensitive Forms lookup 39 subtable" eight.lf
Substitution2: "'onum' Oldstyle Figures lookup 36 subtable" eight.tosf
Substitution2: "'pnum' Proportional Numbers lookup 34 subtable" eight.lf
Substitution2: "'frac' Diagonal Fractions lookup 27 subtable" eight.numr
Substitution2: "'dnom' Denominators lookup 25 subtable" eight.dnom
Substitution2: "'numr' Numerators lookup 24 subtable" eight.numr
Substitution2: "'sups' Superscript lookup 22 subtable" uni2078
Substitution2: "'subs' Subscript lookup 21 subtable" uni2088
AlternateSubs2: "'aalt' Access All Alternates lookup 1 subtable" uni2078 eight.lf eight.tosf eight.dnom eight.numr uni2088
EndChar

StartChar: nine
Encoding: 284 57 28
Width: 477
Flags: W
LayerCount: 2
Fore
SplineSet
194 -11 m 0,0,1
 123 -11 123 -11 95 15 c 128,-1,2
 67 41 67 41 67 72 c 0,3,4
 67 111 67 111 97 122 c 1,5,6
 109 91 109 91 132 67 c 128,-1,7
 155 43 155 43 199 43 c 0,8,9
 267 43 267 43 299 117.5 c 128,-1,10
 331 192 331 192 336 346 c 1,11,12
 319 322 319 322 286.5 300.5 c 128,-1,13
 254 279 254 279 210 279 c 0,14,15
 136 279 136 279 88.5 331 c 128,-1,16
 41 383 41 383 41 482 c 0,17,18
 41 553 41 553 62.5 607.5 c 128,-1,19
 84 662 84 662 125 693 c 128,-1,20
 166 724 166 724 224 724 c 256,21,22
 282 724 282 724 328.5 689.5 c 128,-1,23
 375 655 375 655 401.5 581 c 128,-1,24
 428 507 428 507 428 388 c 0,25,26
 428 274 428 274 404.5 184 c 128,-1,27
 381 94 381 94 329 41.5 c 128,-1,28
 277 -11 277 -11 194 -11 c 0,0,1
232 331 m 0,29,30
 274 333 274 333 299.5 356.5 c 128,-1,31
 325 380 325 380 337 404 c 1,32,33
 335 546 335 546 306 609.5 c 128,-1,34
 277 673 277 673 227 673 c 0,35,36
 182 673 182 673 158 625 c 128,-1,37
 134 577 134 577 134 488 c 0,38,39
 134 409 134 409 158 371 c 128,-1,40
 182 333 182 333 232 331 c 0,29,30
EndSplineSet
Validated: 1
Substitution2: "'case' Case-Sensitive Forms lookup 39 subtable" nine.lf
Substitution2: "'onum' Oldstyle Figures lookup 36 subtable" nine.tosf
Substitution2: "'pnum' Proportional Numbers lookup 34 subtable" nine.lf
Substitution2: "'frac' Diagonal Fractions lookup 27 subtable" nine.numr
Substitution2: "'dnom' Denominators lookup 25 subtable" nine.dnom
Substitution2: "'numr' Numerators lookup 24 subtable" nine.numr
Substitution2: "'sups' Superscript lookup 22 subtable" uni2079
Substitution2: "'subs' Subscript lookup 21 subtable" uni2089
AlternateSubs2: "'aalt' Access All Alternates lookup 1 subtable" uni2079 nine.lf nine.tosf nine.dnom nine.numr uni2089
EndChar

StartChar: colon
Encoding: 285 58 29
Width: 240
Flags: W
LayerCount: 2
Fore
SplineSet
120 408 m 0,0,1
 97 408 97 408 81.5 421.5 c 128,-1,2
 66 435 66 435 66 471 c 256,3,4
 66 507 66 507 81.5 520.5 c 128,-1,5
 97 534 97 534 120 534 c 0,6,7
 142 534 142 534 158.5 520.5 c 128,-1,8
 175 507 175 507 175 471 c 256,9,10
 175 435 175 435 158.5 421.5 c 128,-1,11
 142 408 142 408 120 408 c 0,0,1
120 -7 m 0,12,13
 97 -7 97 -7 81.5 7 c 128,-1,14
 66 21 66 21 66 57 c 256,15,16
 66 93 66 93 81.5 107 c 128,-1,17
 97 121 97 121 120 121 c 0,18,19
 142 121 142 121 158.5 107 c 128,-1,20
 175 93 175 93 175 57 c 256,21,22
 175 21 175 21 158.5 7 c 128,-1,23
 142 -7 142 -7 120 -7 c 0,12,13
EndSplineSet
Validated: 1
EndChar

StartChar: semicolon
Encoding: 286 59 30
Width: 240
Flags: W
LayerCount: 2
Fore
SplineSet
120 408 m 256,0,1
 97 408 97 408 81.5 421.5 c 128,-1,2
 66 435 66 435 66 471 c 256,3,4
 66 507 66 507 81.5 520.5 c 128,-1,5
 97 534 97 534 120 534 c 256,6,7
 143 534 143 534 159 520.5 c 128,-1,8
 175 507 175 507 175 471 c 256,9,10
 175 435 175 435 159 421.5 c 128,-1,11
 143 408 143 408 120 408 c 256,0,1
42 -154 m 1,12,-1
 42 -115 l 1,13,14
 81 -100 81 -100 100 -76 c 128,-1,15
 119 -52 119 -52 119 -25 c 0,16,17
 119 -11 119 -11 110 -2.5 c 128,-1,18
 101 6 101 6 89.5 13.5 c 128,-1,19
 78 21 78 21 69 33 c 128,-1,20
 60 45 60 45 60 66 c 0,21,22
 60 92 60 92 75.5 106.5 c 128,-1,23
 91 121 91 121 113 121 c 0,24,25
 141 121 141 121 159.5 97.5 c 128,-1,26
 178 74 178 74 178 31 c 0,27,28
 178 -29 178 -29 147 -79 c 128,-1,29
 116 -129 116 -129 42 -154 c 1,12,-1
EndSplineSet
Validated: 1
EndChar

StartChar: less
Encoding: 287 60 31
Width: 465
Flags: W
LayerCount: 2
Fore
SplineSet
416 111 m 1,0,-1
 50 340 l 1,1,-1
 50 375 l 1,2,-1
 416 605 l 1,3,-1
 416 540 l 1,4,-1
 131 357 l 1,5,-1
 416 177 l 1,6,-1
 416 111 l 1,0,-1
EndSplineSet
Validated: 1
EndChar

StartChar: equal
Encoding: 288 61 32
Width: 465
Flags: W
LayerCount: 2
Fore
SplineSet
50 424 m 1,0,-1
 50 482 l 1,1,-1
 416 482 l 1,2,-1
 416 424 l 1,3,-1
 50 424 l 1,0,-1
50 232 m 1,4,-1
 50 290 l 1,5,-1
 416 290 l 1,6,-1
 416 232 l 1,7,-1
 50 232 l 1,4,-1
EndSplineSet
Validated: 1
Substitution2: "'sups' Superscript lookup 22 subtable" uni207C
Substitution2: "'subs' Subscript lookup 21 subtable" uni208C
AlternateSubs2: "'aalt' Access All Alternates lookup 1 subtable" uni208C uni207C
EndChar

StartChar: greater
Encoding: 289 62 33
Width: 465
Flags: W
LayerCount: 2
Fore
SplineSet
50 111 m 1,0,-1
 50 177 l 1,1,-1
 334 357 l 1,2,-1
 50 540 l 1,3,-1
 50 605 l 1,4,-1
 416 375 l 1,5,-1
 416 340 l 1,6,-1
 50 111 l 1,0,-1
EndSplineSet
Validated: 1
EndChar

StartChar: question
Encoding: 290 63 34
Width: 431
Flags: W
LayerCount: 2
Fore
SplineSet
171 207 m 1,0,-1
 164 348 l 1,1,2
 238 384 238 384 266 436 c 128,-1,3
 294 488 294 488 294 552 c 0,4,5
 294 605 294 605 271.5 640.5 c 128,-1,6
 249 676 249 676 202 676 c 0,7,8
 151 676 151 676 131 640.5 c 128,-1,9
 111 605 111 605 111 551 c 1,10,11
 77 551 77 551 55.5 565 c 128,-1,12
 34 579 34 579 34 611 c 0,13,14
 34 658 34 658 76 691 c 128,-1,15
 118 724 118 724 200 724 c 0,16,17
 284 724 284 724 335 677.5 c 128,-1,18
 386 631 386 631 386 546 c 0,19,20
 386 463 386 463 345.5 410.5 c 128,-1,21
 305 358 305 358 225 320 c 1,22,-1
 218 207 l 1,23,-1
 171 207 l 1,0,-1
193 -7 m 0,24,25
 171 -7 171 -7 155.5 7 c 128,-1,26
 140 21 140 21 140 57 c 256,27,28
 140 93 140 93 155.5 107 c 128,-1,29
 171 121 171 121 193 121 c 0,30,31
 216 121 216 121 232.5 107 c 128,-1,32
 249 93 249 93 249 57 c 256,33,34
 249 21 249 21 232.5 7 c 128,-1,35
 216 -7 216 -7 193 -7 c 0,24,25
EndSplineSet
Validated: 1
Substitution2: "'smcp' Lowercase to Small Capitals lookup 38 subtable" question.sc
Substitution2: "'c2sc' Capitals to Small Capitals lookup 37 subtable" question.sc
Substitution2: "'aalt' Access All Alternates lookup 0 subtable" question.sc
EndChar

StartChar: at
Encoding: 291 64 35
Width: 786
Flags: W
LayerCount: 2
Fore
SplineSet
370 -142 m 0,0,1
 280 -142 280 -142 209 -103 c 128,-1,2
 138 -64 138 -64 97 14.5 c 128,-1,3
 56 93 56 93 56 214 c 0,4,5
 56 325 56 325 86.5 417 c 128,-1,6
 117 509 117 509 171 575.5 c 128,-1,7
 225 642 225 642 297 678 c 128,-1,8
 369 714 369 714 452 714 c 0,9,10
 545 714 545 714 609.5 672 c 128,-1,11
 674 630 674 630 707.5 557 c 128,-1,12
 741 484 741 484 741 391 c 0,13,14
 741 296 741 296 715.5 225.5 c 128,-1,15
 690 155 690 155 651 116 c 128,-1,16
 612 77 612 77 571 77 c 0,17,18
 493 77 493 77 471 172 c 1,19,-1
 467 172 l 1,20,21
 449 133 449 133 421 105 c 128,-1,22
 393 77 393 77 348 77 c 0,23,24
 297 77 297 77 259.5 119.5 c 128,-1,25
 222 162 222 162 222 248 c 0,26,27
 222 293 222 293 235 342 c 128,-1,28
 248 391 248 391 275 433.5 c 128,-1,29
 302 476 302 476 343 502.5 c 128,-1,30
 384 529 384 529 440 529 c 0,31,32
 466 529 466 529 487.5 519.5 c 128,-1,33
 509 510 509 510 522 499 c 1,34,-1
 556 520 l 1,35,-1
 576 520 l 1,36,-1
 534 273 l 2,37,38
 532 257 532 257 529.5 235.5 c 128,-1,39
 527 214 527 214 527 198 c 0,40,41
 527 159 527 159 542.5 141.5 c 128,-1,42
 558 124 558 124 577 124 c 0,43,44
 602 124 602 124 628 155.5 c 128,-1,45
 654 187 654 187 672 246 c 128,-1,46
 690 305 690 305 690 389 c 0,47,48
 690 479 690 479 659 541.5 c 128,-1,49
 628 604 628 604 573 637 c 128,-1,50
 518 670 518 670 447 670 c 0,51,52
 382 670 382 670 323 637.5 c 128,-1,53
 264 605 264 605 218 545 c 128,-1,54
 172 485 172 485 145.5 401.5 c 128,-1,55
 119 318 119 318 119 216 c 0,56,57
 119 107 119 107 152.5 38.5 c 128,-1,58
 186 -30 186 -30 244.5 -62 c 128,-1,59
 303 -94 303 -94 378 -94 c 0,60,61
 450 -94 450 -94 505 -67.5 c 128,-1,62
 560 -41 560 -41 597 -10 c 1,63,-1
 618 -44 l 1,64,65
 573 -81 573 -81 512.5 -111.5 c 128,-1,66
 452 -142 452 -142 370 -142 c 0,0,1
367 124 m 0,67,68
 394 124 394 124 412.5 143.5 c 128,-1,69
 431 163 431 163 442 191.5 c 128,-1,70
 453 220 453 220 458 248 c 2,71,-1
 494 462 l 1,72,73
 488 474 488 474 473 483 c 128,-1,74
 458 492 458 492 440 492 c 0,75,76
 402 492 402 492 375.5 465.5 c 128,-1,77
 349 439 349 439 332.5 398.5 c 128,-1,78
 316 358 316 358 308 313.5 c 128,-1,79
 300 269 300 269 300 233 c 0,80,81
 300 176 300 176 318.5 150 c 128,-1,82
 337 124 337 124 367 124 c 0,67,68
EndSplineSet
Validated: 1
EndChar

StartChar: A
Encoding: 292 65 36
Width: 609
GlyphClass: 2
Flags: W
AnchorPoint: "Anchor-2" 487 714 basechar 0
AnchorPoint: "Anchor-1" 305 714 basechar 0
AnchorPoint: "Anchor-0" 305 0 basechar 0
LayerCount: 2
Fore
SplineSet
1 0 m 1,0,-1
 1 41 l 1,1,-1
 16 41 l 2,2,3
 40 41 40 41 53 56 c 128,-1,4
 66 71 66 71 82 119 c 2,5,-1
 270 714 l 1,6,-1
 345 714 l 1,7,-1
 538 89 l 2,8,9
 546 61 546 61 560 51 c 128,-1,10
 574 41 574 41 600 41 c 2,11,-1
 609 41 l 1,12,-1
 609 0 l 1,13,-1
 366 0 l 1,14,-1
 366 41 l 1,15,-1
 386 41 l 2,16,17
 437 41 437 41 437 83 c 0,18,19
 437 92 437 92 433.5 106.5 c 128,-1,20
 430 121 430 121 427 135 c 2,21,-1
 396 240 l 1,22,-1
 175 240 l 1,23,-1
 146 142 l 2,24,25
 142 130 142 130 138.5 114.5 c 128,-1,26
 135 99 135 99 135 88 c 0,27,28
 135 41 135 41 190 41 c 2,29,-1
 212 41 l 1,30,-1
 212 0 l 1,31,-1
 1 0 l 1,0,-1
192 289 m 1,32,-1
 381 289 l 1,33,-1
 327 475 l 2,34,35
 314 520 314 520 304 556.5 c 128,-1,36
 294 593 294 593 287 623 c 1,37,38
 281 593 281 593 272 559 c 128,-1,39
 263 525 263 525 251 485 c 2,40,-1
 192 289 l 1,32,-1
EndSplineSet
Validated: 1
Substitution2: "'c2sc' Capitals to Small Capitals lookup 37 subtable" a.sc
Substitution2: "Single Substitution lookup 32 subtable" ordfeminine
AlternateSubs2: "'aalt' Access All Alternates lookup 1 subtable" ordfeminine a.sc
EndChar

StartChar: B
Encoding: 293 66 37
Width: 567
GlyphClass: 2
Flags: W
AnchorPoint: "Anchor-2" 547 714 basechar 0
AnchorPoint: "Anchor-1" 284 714 basechar 0
AnchorPoint: "Anchor-0" 284 0 basechar 0
LayerCount: 2
Fore
SplineSet
31 0 m 1,0,-1
 31 41 l 1,1,-1
 47 41 l 2,2,3
 76 41 76 41 94 54 c 128,-1,4
 112 67 112 67 112 113 c 2,5,-1
 112 605 l 2,6,7
 112 650 112 650 93 661.5 c 128,-1,8
 74 673 74 673 47 673 c 2,9,-1
 31 673 l 1,10,-1
 31 714 l 1,11,-1
 268 714 l 2,12,13
 379 714 379 714 435.5 672 c 128,-1,14
 492 630 492 630 492 539 c 0,15,16
 492 473 492 473 459.5 435 c 128,-1,17
 427 397 427 397 380 381 c 1,18,-1
 380 376 l 1,19,20
 441 366 441 366 479 320.5 c 128,-1,21
 517 275 517 275 517 193 c 0,22,23
 517 0 517 0 293 0 c 2,24,-1
 31 0 l 1,0,-1
206 399 m 1,25,-1
 263 399 l 2,26,27
 335 399 335 399 363.5 432 c 128,-1,28
 392 465 392 465 392 535 c 0,29,30
 392 609 392 609 361.5 637 c 128,-1,31
 331 665 331 665 262 665 c 2,32,-1
 206 665 l 1,33,-1
 206 399 l 1,25,-1
206 49 m 1,34,-1
 286 49 l 2,35,36
 356 49 356 49 386.5 82 c 128,-1,37
 417 115 417 115 417 196 c 0,38,39
 417 274 417 274 388.5 312 c 128,-1,40
 360 350 360 350 288 350 c 2,41,-1
 206 350 l 1,42,-1
 206 49 l 1,34,-1
EndSplineSet
Validated: 1
Substitution2: "'c2sc' Capitals to Small Capitals lookup 37 subtable" b.sc
Substitution2: "'aalt' Access All Alternates lookup 0 subtable" b.sc
EndChar

StartChar: C
Encoding: 294 67 38
Width: 533
GlyphClass: 2
Flags: W
AnchorPoint: "Anchor-2" 513 714 basechar 0
AnchorPoint: "Anchor-1" 312 714 basechar 0
AnchorPoint: "Anchor-0" 309 0 basechar 0
LayerCount: 2
Fore
SplineSet
312 -10 m 0,0,1
 225 -10 225 -10 166.5 36 c 128,-1,2
 108 82 108 82 78 164.5 c 128,-1,3
 48 247 48 247 48 358 c 0,4,5
 48 468 48 468 79 550 c 128,-1,6
 110 632 110 632 171.5 678 c 128,-1,7
 233 724 233 724 324 724 c 0,8,9
 411 724 411 724 456.5 690.5 c 128,-1,10
 502 657 502 657 502 611 c 0,11,12
 502 580 502 580 480.5 562 c 128,-1,13
 459 544 459 544 424 544 c 1,14,15
 424 576 424 576 414 605 c 128,-1,16
 404 634 404 634 380.5 653 c 128,-1,17
 357 672 357 672 317 672 c 0,18,19
 228 672 228 672 189.5 588.5 c 128,-1,20
 151 505 151 505 151 358 c 0,21,22
 151 215 151 215 192.5 132 c 128,-1,23
 234 49 234 49 327 49 c 0,24,25
 391 49 391 49 426 76 c 128,-1,26
 461 103 461 103 485 139 c 1,27,28
 500 128 500 128 500 103 c 0,29,30
 500 79 500 79 480.5 53 c 128,-1,31
 461 27 461 27 419.5 8.5 c 128,-1,32
 378 -10 378 -10 312 -10 c 0,0,1
EndSplineSet
Validated: 1
Substitution2: "'c2sc' Capitals to Small Capitals lookup 37 subtable" c.sc
Substitution2: "'aalt' Access All Alternates lookup 0 subtable" c.sc
EndChar

StartChar: D
Encoding: 295 68 39
Width: 627
GlyphClass: 2
Flags: W
AnchorPoint: "Anchor-3" 314 357 basechar 0
AnchorPoint: "Anchor-2" 607 714 basechar 0
AnchorPoint: "Anchor-1" 314 714 basechar 0
AnchorPoint: "Anchor-0" 314 0 basechar 0
LayerCount: 2
Fore
SplineSet
31 0 m 1,0,-1
 31 41 l 1,1,-1
 48 41 l 2,2,3
 76 41 76 41 94 54.5 c 128,-1,4
 112 68 112 68 112 113 c 2,5,-1
 112 605 l 2,6,7
 112 648 112 648 93 660.5 c 128,-1,8
 74 673 74 673 46 673 c 2,9,-1
 31 673 l 1,10,-1
 31 714 l 1,11,-1
 296 714 l 2,12,13
 429 714 429 714 503.5 620.5 c 128,-1,14
 578 527 578 527 578 357 c 0,15,16
 578 247 578 247 546.5 167 c 128,-1,17
 515 87 515 87 452.5 43.5 c 128,-1,18
 390 0 390 0 296 0 c 2,19,-1
 31 0 l 1,0,-1
207 50 m 1,20,-1
 276 50 l 2,21,22
 376 50 376 50 425.5 129 c 128,-1,23
 475 208 475 208 475 357 c 256,24,25
 475 506 475 506 425.5 585.5 c 128,-1,26
 376 665 376 665 277 665 c 2,27,-1
 207 665 l 1,28,-1
 207 50 l 1,20,-1
EndSplineSet
Validated: 1
Substitution2: "'c2sc' Capitals to Small Capitals lookup 37 subtable" d.sc
Substitution2: "'aalt' Access All Alternates lookup 0 subtable" d.sc
EndChar

StartChar: E
Encoding: 296 69 40
Width: 536
GlyphClass: 2
Flags: W
AnchorPoint: "Anchor-2" 516 714 basechar 0
AnchorPoint: "Anchor-1" 269 714 basechar 0
AnchorPoint: "Anchor-0" 269 0 basechar 0
LayerCount: 2
Fore
SplineSet
31 0 m 1,0,-1
 31 41 l 1,1,-1
 47 41 l 2,2,3
 76 41 76 41 94 53 c 128,-1,4
 112 65 112 65 112 108 c 2,5,-1
 112 601 l 2,6,7
 112 648 112 648 93 660.5 c 128,-1,8
 74 673 74 673 47 673 c 2,9,-1
 31 673 l 1,10,-1
 31 714 l 1,11,-1
 469 714 l 1,12,-1
 474 540 l 1,13,-1
 426 540 l 1,14,-1
 421 582 l 2,15,16
 419 615 419 615 402 640 c 128,-1,17
 385 665 385 665 346 665 c 2,18,-1
 207 665 l 1,19,-1
 207 398 l 1,20,-1
 411 398 l 1,21,-1
 411 350 l 1,22,-1
 207 350 l 1,23,-1
 207 49 l 1,24,-1
 367 49 l 2,25,26
 408 49 408 49 426 74 c 128,-1,27
 444 99 444 99 449 132 c 2,28,-1
 454 174 l 1,29,-1
 502 174 l 1,30,-1
 496 0 l 1,31,-1
 31 0 l 1,0,-1
EndSplineSet
Validated: 1
Substitution2: "'c2sc' Capitals to Small Capitals lookup 37 subtable" e.sc
Substitution2: "'aalt' Access All Alternates lookup 0 subtable" e.sc
EndChar

StartChar: F
Encoding: 297 70 41
Width: 509
GlyphClass: 2
Flags: W
AnchorPoint: "Anchor-2" 489 714 basechar 0
AnchorPoint: "Anchor-1" 254 714 basechar 0
AnchorPoint: "Anchor-0" 160 0 basechar 0
LayerCount: 2
Fore
SplineSet
31 0 m 1,0,-1
 31 41 l 1,1,-1
 44 41 l 2,2,3
 75 41 75 41 93.5 53 c 128,-1,4
 112 65 112 65 112 108 c 2,5,-1
 112 605 l 2,6,7
 112 648 112 648 93.5 660.5 c 128,-1,8
 75 673 75 673 47 673 c 2,9,-1
 31 673 l 1,10,-1
 31 714 l 1,11,-1
 469 714 l 1,12,-1
 474 540 l 1,13,-1
 426 540 l 1,14,-1
 421 583 l 2,15,16
 418 615 418 615 401 640 c 128,-1,17
 384 665 384 665 346 665 c 2,18,-1
 207 665 l 1,19,-1
 207 375 l 1,20,-1
 412 375 l 1,21,-1
 412 326 l 1,22,-1
 207 326 l 1,23,-1
 207 112 l 2,24,25
 207 67 207 67 226.5 54 c 128,-1,26
 246 41 246 41 278 41 c 2,27,-1
 304 41 l 1,28,-1
 304 0 l 1,29,-1
 31 0 l 1,0,-1
EndSplineSet
Validated: 1
Substitution2: "'c2sc' Capitals to Small Capitals lookup 37 subtable" f.sc
Substitution2: "'aalt' Access All Alternates lookup 0 subtable" f.sc
EndChar

StartChar: G
Encoding: 298 71 42
Width: 617
GlyphClass: 2
Flags: W
AnchorPoint: "Anchor-2" 597 714 basechar 0
AnchorPoint: "Anchor-1" 345 714 basechar 0
AnchorPoint: "Anchor-0" 337 0 basechar 0
LayerCount: 2
Fore
SplineSet
346 -10 m 0,0,1
 245 -10 245 -10 179 36 c 128,-1,2
 113 82 113 82 80.5 164.5 c 128,-1,3
 48 247 48 247 48 358 c 0,4,5
 48 466 48 466 82 548.5 c 128,-1,6
 116 631 116 631 183.5 677.5 c 128,-1,7
 251 724 251 724 350 724 c 0,8,9
 444 724 444 724 493.5 692 c 128,-1,10
 543 660 543 660 543 613 c 0,11,12
 543 580 543 580 521 561.5 c 128,-1,13
 499 543 499 543 463 543 c 1,14,15
 463 574 463 574 451.5 603.5 c 128,-1,16
 440 633 440 633 414.5 652.5 c 128,-1,17
 389 672 389 672 347 672 c 0,18,19
 244 672 244 672 198 593 c 128,-1,20
 152 514 152 514 152 358 c 0,21,22
 152 206 152 206 198.5 125 c 128,-1,23
 245 44 245 44 359 44 c 0,24,25
 382 44 382 44 404 47 c 128,-1,26
 426 50 426 50 443 57 c 1,27,-1
 443 221 l 2,28,29
 443 265 443 265 425 276.5 c 128,-1,30
 407 288 407 288 378 288 c 2,31,-1
 371 288 l 1,32,-1
 371 329 l 1,33,-1
 598 329 l 1,34,-1
 598 288 l 1,35,-1
 592 288 l 2,36,37
 567 288 567 288 552.5 276 c 128,-1,38
 538 264 538 264 538 217 c 2,39,-1
 538 35 l 1,40,41
 494 13 494 13 447.5 1.5 c 128,-1,42
 401 -10 401 -10 346 -10 c 0,0,1
EndSplineSet
Validated: 1
Substitution2: "'c2sc' Capitals to Small Capitals lookup 37 subtable" g.sc
Substitution2: "'aalt' Access All Alternates lookup 0 subtable" g.sc
EndChar

StartChar: H
Encoding: 299 72 43
Width: 681
GlyphClass: 2
Flags: W
AnchorPoint: "Anchor-3" 341 357 basechar 0
AnchorPoint: "Anchor-2" 661 714 basechar 0
AnchorPoint: "Anchor-1" 341 714 basechar 0
AnchorPoint: "Anchor-0" 341 0 basechar 0
LayerCount: 2
Fore
SplineSet
31 0 m 1,0,-1
 31 41 l 1,1,-1
 48 41 l 2,2,3
 76 41 76 41 94 54 c 128,-1,4
 112 67 112 67 112 112 c 2,5,-1
 112 605 l 2,6,7
 112 648 112 648 93 660.5 c 128,-1,8
 74 673 74 673 45 673 c 2,9,-1
 31 673 l 1,10,-1
 31 714 l 1,11,-1
 284 714 l 1,12,-1
 284 673 l 1,13,-1
 271 673 l 2,14,15
 242 673 242 673 224.5 660 c 128,-1,16
 207 647 207 647 207 603 c 2,17,-1
 207 398 l 1,18,-1
 474 398 l 1,19,-1
 474 602 l 2,20,21
 474 647 474 647 456.5 660 c 128,-1,22
 439 673 439 673 410 673 c 2,23,-1
 398 673 l 1,24,-1
 398 714 l 1,25,-1
 650 714 l 1,26,-1
 650 673 l 1,27,-1
 634 673 l 2,28,29
 605 673 605 673 587 660 c 128,-1,30
 569 647 569 647 569 602 c 2,31,-1
 569 108 l 2,32,33
 569 66 569 66 587.5 53.5 c 128,-1,34
 606 41 606 41 634 41 c 2,35,-1
 650 41 l 1,36,-1
 650 0 l 1,37,-1
 398 0 l 1,38,-1
 398 41 l 1,39,-1
 410 41 l 2,40,41
 439 41 439 41 456.5 54 c 128,-1,42
 474 67 474 67 474 113 c 2,43,-1
 474 349 l 1,44,-1
 207 349 l 1,45,-1
 207 112 l 2,46,47
 207 67 207 67 224.5 54 c 128,-1,48
 242 41 242 41 271 41 c 2,49,-1
 284 41 l 1,50,-1
 284 0 l 1,51,-1
 31 0 l 1,0,-1
EndSplineSet
Validated: 1
Substitution2: "'c2sc' Capitals to Small Capitals lookup 37 subtable" h.sc
Substitution2: "'aalt' Access All Alternates lookup 0 subtable" h.sc
EndChar

StartChar: I
Encoding: 300 73 44
Width: 318
GlyphClass: 2
Flags: W
AnchorPoint: "Anchor-2" 298 714 basechar 0
AnchorPoint: "Anchor-1" 160 714 basechar 0
AnchorPoint: "Anchor-0" 160 0 basechar 0
LayerCount: 2
Fore
SplineSet
31 0 m 1,0,-1
 31 41 l 1,1,-1
 48 41 l 2,2,3
 75 41 75 41 93.5 54 c 128,-1,4
 112 67 112 67 112 111 c 2,5,-1
 112 601 l 2,6,7
 112 647 112 647 93.5 660 c 128,-1,8
 75 673 75 673 48 673 c 2,9,-1
 31 673 l 1,10,-1
 31 714 l 1,11,-1
 288 714 l 1,12,-1
 288 673 l 1,13,-1
 271 673 l 2,14,15
 243 673 243 673 225 660 c 128,-1,16
 207 647 207 647 207 601 c 2,17,-1
 207 112 l 2,18,19
 207 67 207 67 225 54 c 128,-1,20
 243 41 243 41 271 41 c 2,21,-1
 288 41 l 1,22,-1
 288 0 l 1,23,-1
 31 0 l 1,0,-1
EndSplineSet
Validated: 1
Substitution2: "'c2sc' Capitals to Small Capitals lookup 37 subtable" i.sc
Substitution2: "'aalt' Access All Alternates lookup 0 subtable" i.sc
EndChar

StartChar: J
Encoding: 301 74 45
Width: 314
GlyphClass: 2
Flags: W
AnchorPoint: "Anchor-2" 292 714 basechar 0
AnchorPoint: "Anchor-1" 159 714 basechar 0
AnchorPoint: "Anchor-0" 99 -240 basechar 0
LayerCount: 2
Fore
SplineSet
-8 -240 m 1,0,-1
 -8 -194 l 1,1,-1
 1 -194 l 2,2,3
 36 -194 36 -194 61.5 -177 c 128,-1,4
 87 -160 87 -160 101 -120 c 128,-1,5
 115 -80 115 -80 115 -10 c 2,6,-1
 115 605 l 2,7,8
 115 648 115 648 96 660.5 c 128,-1,9
 77 673 77 673 50 673 c 2,10,-1
 35 673 l 1,11,-1
 35 714 l 1,12,-1
 291 714 l 1,13,-1
 291 673 l 1,14,-1
 274 673 l 2,15,16
 247 673 247 673 228.5 660 c 128,-1,17
 210 647 210 647 210 601 c 2,18,-1
 210 -9 l 2,19,20
 210 -98 210 -98 182.5 -148.5 c 128,-1,21
 155 -199 155 -199 109.5 -219.5 c 128,-1,22
 64 -240 64 -240 10 -240 c 2,23,-1
 -8 -240 l 1,0,-1
EndSplineSet
Validated: 1
Substitution2: "'c2sc' Capitals to Small Capitals lookup 37 subtable" j.sc
Substitution2: "'aalt' Access All Alternates lookup 0 subtable" j.sc
EndChar

StartChar: K
Encoding: 302 75 46
Width: 608
GlyphClass: 2
Flags: W
AnchorPoint: "Anchor-2" 588 714 basechar 0
AnchorPoint: "Anchor-1" 304 714 basechar 0
AnchorPoint: "Anchor-0" 304 0 basechar 0
LayerCount: 2
Fore
SplineSet
31 0 m 1,0,-1
 31 41 l 1,1,-1
 45 41 l 2,2,3
 74 41 74 41 93 53 c 128,-1,4
 112 65 112 65 112 108 c 2,5,-1
 112 606 l 2,6,7
 112 648 112 648 93.5 660.5 c 128,-1,8
 75 673 75 673 47 673 c 2,9,-1
 31 673 l 1,10,-1
 31 714 l 1,11,-1
 284 714 l 1,12,-1
 284 673 l 1,13,-1
 271 673 l 2,14,15
 243 673 243 673 225 660 c 128,-1,16
 207 647 207 647 207 603 c 2,17,-1
 207 310 l 1,18,-1
 379 556 l 2,19,20
 407 595 407 595 418.5 616.5 c 128,-1,21
 430 638 430 638 430 652 c 0,22,23
 430 674 430 674 385 674 c 1,24,-1
 385 714 l 1,25,-1
 579 714 l 1,26,-1
 579 674 l 1,27,28
 549 674 549 674 522.5 649.5 c 128,-1,29
 496 625 496 625 463 581 c 2,30,-1
 339 415 l 1,31,-1
 522 122 l 2,32,33
 547 83 547 83 569 62 c 128,-1,34
 591 41 591 41 615 41 c 2,35,-1
 618 41 l 1,36,-1
 618 0 l 1,37,-1
 593 0 l 2,38,39
 542 0 542 0 512.5 8 c 128,-1,40
 483 16 483 16 463 38 c 128,-1,41
 443 60 443 60 420 101 c 2,42,-1
 277 342 l 1,43,-1
 207 259 l 1,44,-1
 207 111 l 2,45,46
 207 67 207 67 225.5 54 c 128,-1,47
 244 41 244 41 273 41 c 2,48,-1
 284 41 l 1,49,-1
 284 0 l 1,50,-1
 31 0 l 1,0,-1
EndSplineSet
Validated: 1
Substitution2: "'c2sc' Capitals to Small Capitals lookup 37 subtable" k.sc
Substitution2: "'aalt' Access All Alternates lookup 0 subtable" k.sc
EndChar

StartChar: L
Encoding: 303 76 47
Width: 536
GlyphClass: 2
Flags: W
AnchorPoint: "Anchor-3" 268 357 basechar 0
AnchorPoint: "Anchor-2" 516 714 basechar 0
AnchorPoint: "Anchor-1" 268 714 basechar 0
AnchorPoint: "Anchor-0" 268 0 basechar 0
LayerCount: 2
Fore
SplineSet
31 0 m 1,0,-1
 31 41 l 1,1,-1
 48 41 l 2,2,3
 75 41 75 41 93.5 54 c 128,-1,4
 112 67 112 67 112 111 c 2,5,-1
 112 602 l 2,6,7
 112 647 112 647 93 660 c 128,-1,8
 74 673 74 673 46 673 c 2,9,-1
 31 673 l 1,10,-1
 31 714 l 1,11,-1
 288 714 l 1,12,-1
 288 673 l 1,13,-1
 272 673 l 2,14,15
 242 673 242 673 224.5 660.5 c 128,-1,16
 207 648 207 648 207 605 c 2,17,-1
 207 49 l 1,18,-1
 374 49 l 2,19,20
 411 49 411 49 428 75 c 128,-1,21
 445 101 445 101 450 139 c 2,22,-1
 459 214 l 1,23,-1
 502 214 l 1,24,-1
 496 0 l 1,25,-1
 31 0 l 1,0,-1
EndSplineSet
Validated: 1
Substitution2: "'c2sc' Capitals to Small Capitals lookup 37 subtable" l.sc
Substitution2: "'aalt' Access All Alternates lookup 0 subtable" l.sc
EndChar

StartChar: M
Encoding: 304 77 48
Width: 803
GlyphClass: 2
Flags: W
AnchorPoint: "Anchor-2" 783 714 basechar 0
AnchorPoint: "Anchor-1" 402 714 basechar 0
AnchorPoint: "Anchor-0" 402 0 basechar 0
LayerCount: 2
Fore
SplineSet
31 0 m 1,0,-1
 31 41 l 1,1,-1
 43 41 l 2,2,3
 73 41 73 41 92.5 53 c 128,-1,4
 112 65 112 65 112 108 c 2,5,-1
 112 605 l 2,6,7
 112 648 112 648 93 660.5 c 128,-1,8
 74 673 74 673 47 673 c 2,9,-1
 31 673 l 1,10,-1
 31 714 l 1,11,-1
 234 714 l 1,12,-1
 403 136 l 1,13,-1
 571 714 l 1,14,-1
 772 714 l 1,15,-1
 772 673 l 1,16,-1
 755 673 l 2,17,18
 728 673 728 673 710 660 c 128,-1,19
 692 647 692 647 692 603 c 2,20,-1
 692 111 l 2,21,22
 692 67 692 67 710 54 c 128,-1,23
 728 41 728 41 758 41 c 2,24,-1
 772 41 l 1,25,-1
 772 0 l 1,26,-1
 530 0 l 1,27,-1
 530 41 l 1,28,-1
 539 41 l 2,29,30
 570 41 570 41 585.5 53.5 c 128,-1,31
 601 66 601 66 601 111 c 2,32,-1
 601 641 l 1,33,-1
 412 0 l 1,34,-1
 358 0 l 1,35,-1
 166 639 l 1,36,-1
 166 113 l 2,37,38
 166 66 166 66 182.5 53.5 c 128,-1,39
 199 41 199 41 228 41 c 2,40,-1
 235 41 l 1,41,-1
 235 0 l 1,42,-1
 31 0 l 1,0,-1
EndSplineSet
Validated: 1
Substitution2: "'c2sc' Capitals to Small Capitals lookup 37 subtable" m.sc
Substitution2: "'aalt' Access All Alternates lookup 0 subtable" m.sc
EndChar

StartChar: N
Encoding: 305 78 49
Width: 655
GlyphClass: 2
Flags: W
AnchorPoint: "Anchor-2" 635 714 basechar 0
AnchorPoint: "Anchor-1" 328 714 basechar 0
AnchorPoint: "Anchor-0" 328 0 basechar 0
LayerCount: 2
Fore
SplineSet
31 0 m 1,0,-1
 31 41 l 1,1,-1
 43 41 l 2,2,3
 74 41 74 41 93 53.5 c 128,-1,4
 112 66 112 66 112 113 c 2,5,-1
 112 605 l 2,6,7
 112 649 112 649 93 661 c 128,-1,8
 74 673 74 673 45 673 c 2,9,-1
 31 673 l 1,10,-1
 31 714 l 1,11,-1
 197 714 l 1,12,-1
 498 153 l 1,13,-1
 498 605 l 2,14,15
 498 648 498 648 479 660.5 c 128,-1,16
 460 673 460 673 431 673 c 2,17,-1
 418 673 l 1,18,-1
 418 714 l 1,19,-1
 633 714 l 1,20,-1
 633 673 l 1,21,-1
 618 673 l 2,22,23
 589 673 589 673 570.5 660 c 128,-1,24
 552 647 552 647 552 601 c 2,25,-1
 552 0 l 1,26,-1
 486 0 l 1,27,-1
 166 589 l 1,28,-1
 166 113 l 2,29,30
 166 66 166 66 184 53.5 c 128,-1,31
 202 41 202 41 232 41 c 2,32,-1
 247 41 l 1,33,-1
 247 0 l 1,34,-1
 31 0 l 1,0,-1
EndSplineSet
Validated: 1
Substitution2: "'c2sc' Capitals to Small Capitals lookup 37 subtable" n.sc
Substitution2: "'aalt' Access All Alternates lookup 0 subtable" n.sc
EndChar

StartChar: O
Encoding: 306 79 50
Width: 641
GlyphClass: 2
Flags: W
AnchorPoint: "Anchor-3" 321 357 basechar 0
AnchorPoint: "Anchor-2" 621 714 basechar 0
AnchorPoint: "Anchor-1" 321 714 basechar 0
AnchorPoint: "Anchor-0" 321 0 basechar 0
LayerCount: 2
Fore
SplineSet
320 -10 m 0,0,1
 228 -10 228 -10 167.5 36 c 128,-1,2
 107 82 107 82 77.5 165 c 128,-1,3
 48 248 48 248 48 359 c 256,4,5
 48 470 48 470 77.5 552 c 128,-1,6
 107 634 107 634 168 679.5 c 128,-1,7
 229 725 229 725 321 725 c 0,8,9
 408 725 408 725 468.5 679.5 c 128,-1,10
 529 634 529 634 560.5 551.5 c 128,-1,11
 592 469 592 469 592 358 c 256,12,13
 592 247 592 247 560.5 164.5 c 128,-1,14
 529 82 529 82 468 36 c 128,-1,15
 407 -10 407 -10 320 -10 c 0,0,1
320 43 m 0,16,17
 413 43 413 43 451 126.5 c 128,-1,18
 489 210 489 210 489 358 c 0,19,20
 489 507 489 507 451.5 589.5 c 128,-1,21
 414 672 414 672 321 672 c 0,22,23
 230 672 230 672 190.5 589.5 c 128,-1,24
 151 507 151 507 151 358 c 0,25,26
 151 210 151 210 190.5 126.5 c 128,-1,27
 230 43 230 43 320 43 c 0,16,17
EndSplineSet
Validated: 1
Substitution2: "'c2sc' Capitals to Small Capitals lookup 37 subtable" o.sc
Substitution2: "Single Substitution lookup 32 subtable" ordmasculine
AlternateSubs2: "'aalt' Access All Alternates lookup 1 subtable" ordmasculine o.sc
EndChar

StartChar: P
Encoding: 307 80 51
Width: 521
GlyphClass: 2
Flags: W
AnchorPoint: "Anchor-2" 517 714 basechar 0
AnchorPoint: "Anchor-1" 261 714 basechar 0
AnchorPoint: "Anchor-0" 160 0 basechar 0
LayerCount: 2
Fore
SplineSet
31 0 m 1,0,-1
 31 41 l 1,1,-1
 45 41 l 2,2,3
 74 41 74 41 93 53.5 c 128,-1,4
 112 66 112 66 112 113 c 2,5,-1
 112 605 l 2,6,7
 112 649 112 649 92.5 661 c 128,-1,8
 73 673 73 673 46 673 c 2,9,-1
 31 673 l 1,10,-1
 31 714 l 1,11,-1
 277 714 l 2,12,13
 388 714 388 714 440.5 659 c 128,-1,14
 493 604 493 604 493 505 c 0,15,16
 493 445 493 445 470.5 393 c 128,-1,17
 448 341 448 341 396.5 309.5 c 128,-1,18
 345 278 345 278 258 278 c 2,19,-1
 207 278 l 1,20,-1
 207 108 l 2,21,22
 207 64 207 64 227.5 52.5 c 128,-1,23
 248 41 248 41 275 41 c 2,24,-1
 301 41 l 1,25,-1
 301 0 l 1,26,-1
 31 0 l 1,0,-1
207 324 m 1,27,-1
 250 324 l 2,28,29
 326 324 326 324 359.5 364.5 c 128,-1,30
 393 405 393 405 393 501 c 0,31,32
 393 586 393 586 363 626.5 c 128,-1,33
 333 667 333 667 263 667 c 2,34,-1
 207 667 l 1,35,-1
 207 324 l 1,27,-1
EndSplineSet
Validated: 1
Substitution2: "'c2sc' Capitals to Small Capitals lookup 37 subtable" p.sc
Substitution2: "'aalt' Access All Alternates lookup 0 subtable" p.sc
EndChar

StartChar: Q
Encoding: 308 81 52
Width: 641
GlyphClass: 2
Flags: W
AnchorPoint: "Anchor-2" 621 714 basechar 0
AnchorPoint: "Anchor-1" 321 714 basechar 0
AnchorPoint: "Anchor-0" 321 -229 basechar 0
LayerCount: 2
Fore
SplineSet
480 -229 m 2,0,1
 434 -229 434 -229 390 -209.5 c 128,-1,2
 346 -190 346 -190 315 -142 c 128,-1,3
 284 -94 284 -94 279 -9 c 1,4,5
 201 1 201 1 149.5 49 c 128,-1,6
 98 97 98 97 73 176 c 128,-1,7
 48 255 48 255 48 359 c 0,8,9
 48 470 48 470 77.5 552 c 128,-1,10
 107 634 107 634 168 679.5 c 128,-1,11
 229 725 229 725 321 725 c 0,12,13
 408 725 408 725 468.5 679.5 c 128,-1,14
 529 634 529 634 560.5 551.5 c 128,-1,15
 592 469 592 469 592 358 c 0,16,17
 592 211 592 211 537.5 114 c 128,-1,18
 483 17 483 17 381 -5 c 1,19,20
 386 -73 386 -73 403 -111.5 c 128,-1,21
 420 -150 420 -150 447 -166 c 128,-1,22
 474 -182 474 -182 508 -182 c 2,23,-1
 522 -182 l 1,24,-1
 522 -229 l 1,25,-1
 480 -229 l 2,0,1
320 43 m 0,26,27
 413 43 413 43 451 126.5 c 128,-1,28
 489 210 489 210 489 358 c 0,29,30
 489 507 489 507 451.5 589.5 c 128,-1,31
 414 672 414 672 321 672 c 0,32,33
 229 672 229 672 190 589.5 c 128,-1,34
 151 507 151 507 151 358 c 0,35,36
 151 210 151 210 189.5 126.5 c 128,-1,37
 228 43 228 43 320 43 c 0,26,27
EndSplineSet
Validated: 1
Substitution2: "'c2sc' Capitals to Small Capitals lookup 37 subtable" q.sc
Substitution2: "'aalt' Access All Alternates lookup 0 subtable" q.sc
EndChar

StartChar: R
Encoding: 309 82 53
Width: 569
GlyphClass: 2
Flags: W
AnchorPoint: "Anchor-2" 549 714 basechar 0
AnchorPoint: "Anchor-1" 285 714 basechar 0
AnchorPoint: "Anchor-0" 285 0 basechar 0
LayerCount: 2
Fore
SplineSet
31 0 m 1,0,-1
 31 41 l 1,1,-1
 45 41 l 2,2,3
 72 41 72 41 92 52.5 c 128,-1,4
 112 64 112 64 112 108 c 2,5,-1
 112 605 l 2,6,7
 112 649 112 649 92 661 c 128,-1,8
 72 673 72 673 45 673 c 2,9,-1
 31 673 l 1,10,-1
 31 714 l 1,11,-1
 269 714 l 2,12,13
 385 714 385 714 439 668 c 128,-1,14
 493 622 493 622 493 525 c 0,15,16
 493 469 493 469 475 432 c 128,-1,17
 457 395 457 395 428.5 372 c 128,-1,18
 400 349 400 349 367 337 c 1,19,-1
 482 121 l 2,20,21
 503 82 503 82 523.5 61.5 c 128,-1,22
 544 41 544 41 570 41 c 2,23,-1
 573 41 l 1,24,-1
 573 0 l 1,25,-1
 558 0 l 2,26,27
 510 0 510 0 480 7 c 128,-1,28
 450 14 450 14 429.5 33.5 c 128,-1,29
 409 53 409 53 391 90 c 2,30,-1
 278 315 l 1,31,-1
 207 315 l 1,32,-1
 207 108 l 2,33,34
 207 64 207 64 226 52.5 c 128,-1,35
 245 41 245 41 273 41 c 2,36,-1
 284 41 l 1,37,-1
 284 0 l 1,38,-1
 31 0 l 1,0,-1
207 361 m 1,39,-1
 257 361 l 2,40,41
 330 361 330 361 361.5 402 c 128,-1,42
 393 443 393 443 393 521 c 0,43,44
 393 595 393 595 363 631 c 128,-1,45
 333 667 333 667 263 667 c 2,46,-1
 207 667 l 1,47,-1
 207 361 l 1,39,-1
EndSplineSet
Validated: 1
Substitution2: "'c2sc' Capitals to Small Capitals lookup 37 subtable" r.sc
Substitution2: "'aalt' Access All Alternates lookup 0 subtable" r.sc
EndChar

StartChar: S
Encoding: 310 83 54
Width: 468
GlyphClass: 2
Flags: W
AnchorPoint: "Anchor-2" 448 714 basechar 0
AnchorPoint: "Anchor-1" 234 714 basechar 0
AnchorPoint: "Anchor-0" 234 0 basechar 0
LayerCount: 2
Fore
SplineSet
223 -10 m 0,0,1
 130 -10 130 -10 85 28 c 128,-1,2
 40 66 40 66 40 128 c 0,3,4
 40 159 40 159 58 177.5 c 128,-1,5
 76 196 76 196 107 196 c 1,6,7
 110 127 110 127 141 82 c 128,-1,8
 172 37 172 37 230 37 c 0,9,10
 285 37 285 37 315.5 69.5 c 128,-1,11
 346 102 346 102 346 162 c 0,12,13
 346 202 346 202 331 229.5 c 128,-1,14
 316 257 316 257 285.5 279.5 c 128,-1,15
 255 302 255 302 207 326 c 0,16,17
 131 365 131 365 93 415 c 128,-1,18
 55 465 55 465 55 547 c 0,19,20
 55 601 55 601 80 640.5 c 128,-1,21
 105 680 105 680 147.5 702 c 128,-1,22
 190 724 190 724 244 724 c 0,23,24
 297 724 297 724 333.5 707.5 c 128,-1,25
 370 691 370 691 389 665 c 128,-1,26
 408 639 408 639 408 611 c 0,27,28
 408 579 408 579 389.5 564 c 128,-1,29
 371 549 371 549 336 549 c 1,30,31
 336 582 336 582 325.5 611 c 128,-1,32
 315 640 315 640 293 658 c 128,-1,33
 271 676 271 676 236 676 c 0,34,35
 188 676 188 676 162.5 644.5 c 128,-1,36
 137 613 137 613 137 559 c 0,37,38
 137 522 137 522 149 495.5 c 128,-1,39
 161 469 161 469 190 447 c 128,-1,40
 219 425 219 425 269 400 c 0,41,42
 346 361 346 361 387.5 314.5 c 128,-1,43
 429 268 429 268 429 188 c 0,44,45
 429 93 429 93 372 41.5 c 128,-1,46
 315 -10 315 -10 223 -10 c 0,0,1
EndSplineSet
Validated: 1
Substitution2: "'c2sc' Capitals to Small Capitals lookup 37 subtable" s.sc
Substitution2: "'aalt' Access All Alternates lookup 0 subtable" s.sc
EndChar

StartChar: T
Encoding: 311 84 55
Width: 530
GlyphClass: 2
Flags: W
AnchorPoint: "Anchor-3" 265 357 basechar 0
AnchorPoint: "Anchor-2" 510 714 basechar 0
AnchorPoint: "Anchor-1" 265 714 basechar 0
AnchorPoint: "Anchor-0" 265 0 basechar 0
LayerCount: 2
Fore
SplineSet
126 0 m 1,0,-1
 126 41 l 1,1,-1
 144 41 l 2,2,3
 173 41 173 41 195 52.5 c 128,-1,4
 217 64 217 64 217 108 c 2,5,-1
 217 665 l 1,6,-1
 137 665 l 2,7,8
 99 665 99 665 84.5 640 c 128,-1,9
 70 615 70 615 67 582 c 2,10,-1
 62 540 l 1,11,-1
 16 540 l 1,12,-1
 20 714 l 1,13,-1
 509 714 l 1,14,-1
 513 540 l 1,15,-1
 468 540 l 1,16,-1
 463 582 l 2,17,18
 459 615 459 615 444.5 640 c 128,-1,19
 430 665 430 665 391 665 c 2,20,-1
 311 665 l 1,21,-1
 311 113 l 2,22,23
 311 66 311 66 332 53.5 c 128,-1,24
 353 41 353 41 383 41 c 2,25,-1
 401 41 l 1,26,-1
 401 0 l 1,27,-1
 126 0 l 1,0,-1
EndSplineSet
Validated: 1
Substitution2: "'c2sc' Capitals to Small Capitals lookup 37 subtable" t.sc
Substitution2: "'aalt' Access All Alternates lookup 0 subtable" t.sc
EndChar

StartChar: U
Encoding: 312 85 56
Width: 616
GlyphClass: 2
Flags: W
AnchorPoint: "Anchor-2" 605 714 basechar 0
AnchorPoint: "Anchor-1" 315 714 basechar 0
AnchorPoint: "Anchor-0" 309 0 basechar 0
LayerCount: 2
Fore
SplineSet
310 -10 m 0,0,1
 210 -10 210 -10 152 42 c 128,-1,2
 94 94 94 94 94 216 c 2,3,-1
 94 605 l 2,4,5
 94 649 94 649 74 661 c 128,-1,6
 54 673 54 673 25 673 c 2,7,-1
 13 673 l 1,8,-1
 13 714 l 1,9,-1
 269 714 l 1,10,-1
 269 673 l 1,11,-1
 258 673 l 2,12,13
 228 673 228 673 208.5 660.5 c 128,-1,14
 189 648 189 648 189 601 c 2,15,-1
 189 210 l 2,16,17
 189 122 189 122 228 85.5 c 128,-1,18
 267 49 267 49 328 49 c 0,19,20
 399 49 399 49 433.5 94.5 c 128,-1,21
 468 140 468 140 468 207 c 2,22,-1
 468 605 l 2,23,24
 468 649 468 649 448.5 661 c 128,-1,25
 429 673 429 673 399 673 c 2,26,-1
 388 673 l 1,27,-1
 388 714 l 1,28,-1
 603 714 l 1,29,-1
 603 673 l 1,30,-1
 592 673 l 2,31,32
 562 673 562 673 542 660.5 c 128,-1,33
 522 648 522 648 522 601 c 2,34,-1
 522 205 l 2,35,36
 522 106 522 106 468.5 48 c 128,-1,37
 415 -10 415 -10 310 -10 c 0,0,1
EndSplineSet
Validated: 1
Substitution2: "'c2sc' Capitals to Small Capitals lookup 37 subtable" u.sc
Substitution2: "'aalt' Access All Alternates lookup 0 subtable" u.sc
EndChar

StartChar: V
Encoding: 313 86 57
Width: 579
GlyphClass: 2
Flags: W
AnchorPoint: "Anchor-2" 559 714 basechar 0
AnchorPoint: "Anchor-1" 290 714 basechar 0
AnchorPoint: "Anchor-0" 290 0 basechar 0
LayerCount: 2
Fore
SplineSet
252 0 m 1,0,-1
 72 620 l 2,1,2
 63 651 63 651 50.5 662 c 128,-1,3
 38 673 38 673 13 673 c 2,4,-1
 0 673 l 1,5,-1
 0 714 l 1,6,-1
 241 714 l 1,7,-1
 241 673 l 1,8,-1
 221 673 l 2,9,10
 171 673 171 673 171 633 c 0,11,12
 171 623 171 623 173.5 611 c 128,-1,13
 176 599 176 599 180 586 c 2,14,-1
 269 259 l 2,15,16
 282 213 282 213 291 175.5 c 128,-1,17
 300 138 300 138 307 103 c 1,18,19
 314 139 314 139 323 175.5 c 128,-1,20
 332 212 332 212 346 260 c 2,21,-1
 437 579 l 2,22,23
 441 593 441 593 444 606.5 c 128,-1,24
 447 620 447 620 447 631 c 0,25,26
 447 673 447 673 392 673 c 2,27,-1
 372 673 l 1,28,-1
 372 714 l 1,29,-1
 579 714 l 1,30,-1
 579 673 l 1,31,-1
 565 673 l 2,32,33
 538 673 538 673 525.5 658 c 128,-1,34
 513 643 513 643 498 595 c 2,35,-1
 325 0 l 1,36,-1
 252 0 l 1,0,-1
EndSplineSet
Validated: 1
Substitution2: "'c2sc' Capitals to Small Capitals lookup 37 subtable" v.sc
Substitution2: "'aalt' Access All Alternates lookup 0 subtable" v.sc
EndChar

StartChar: W
Encoding: 314 87 58
Width: 897
GlyphClass: 2
Flags: W
AnchorPoint: "Anchor-2" 877 714 basechar 0
AnchorPoint: "Anchor-1" 448 714 basechar 0
AnchorPoint: "Anchor-0" 448 0 basechar 0
LayerCount: 2
Fore
SplineSet
226 0 m 1,0,-1
 78 620 l 2,1,2
 71 652 71 652 57 662.5 c 128,-1,3
 43 673 43 673 18 673 c 2,4,-1
 7 673 l 1,5,-1
 7 714 l 1,6,-1
 250 714 l 1,7,-1
 250 673 l 1,8,-1
 230 673 l 2,9,10
 179 673 179 673 179 634 c 0,11,12
 179 624 179 624 181 612.5 c 128,-1,13
 183 601 183 601 186 589 c 2,14,-1
 259 262 l 2,15,16
 269 217 269 217 277.5 176 c 128,-1,17
 286 135 286 135 292 99 c 1,18,19
 298 139 298 139 308 185.5 c 128,-1,20
 318 232 318 232 330 284 c 2,21,-1
 433 707 l 1,22,-1
 505 707 l 1,23,-1
 604 271 l 2,24,25
 616 220 616 220 625 177.5 c 128,-1,26
 634 135 634 135 640 98 c 1,27,28
 646 133 646 133 653 168.5 c 128,-1,29
 660 204 660 204 671 252 c 2,30,-1
 746 572 l 2,31,32
 749 585 749 585 752.5 603.5 c 128,-1,33
 756 622 756 622 756 633 c 0,34,35
 756 655 756 655 742 664 c 128,-1,36
 728 673 728 673 699 673 c 2,37,-1
 680 673 l 1,38,-1
 680 714 l 1,39,-1
 891 714 l 1,40,-1
 891 673 l 1,41,-1
 874 673 l 2,42,43
 849 673 849 673 835 658.5 c 128,-1,44
 821 644 821 644 809 595 c 2,45,-1
 668 0 l 1,46,-1
 579 0 l 1,47,-1
 450 568 l 1,48,-1
 316 0 l 1,49,-1
 226 0 l 1,0,-1
EndSplineSet
Validated: 1
Substitution2: "'c2sc' Capitals to Small Capitals lookup 37 subtable" w.sc
Substitution2: "'aalt' Access All Alternates lookup 0 subtable" w.sc
EndChar

StartChar: X
Encoding: 315 88 59
Width: 574
GlyphClass: 2
Flags: W
AnchorPoint: "Anchor-2" 554 714 basechar 0
AnchorPoint: "Anchor-1" 287 714 basechar 0
AnchorPoint: "Anchor-0" 287 0 basechar 0
LayerCount: 2
Fore
SplineSet
7 0 m 1,0,-1
 7 41 l 1,1,-1
 12 41 l 2,2,3
 43 41 43 41 60.5 56 c 128,-1,4
 78 71 78 71 101 111 c 2,5,-1
 243 355 l 1,6,-1
 103 620 l 2,7,8
 88 649 88 649 71 661 c 128,-1,9
 54 673 54 673 31 673 c 2,10,-1
 20 673 l 1,11,-1
 20 714 l 1,12,-1
 259 714 l 1,13,-1
 259 673 l 1,14,-1
 256 673 l 2,15,16
 227 673 227 673 217.5 664.5 c 128,-1,17
 208 656 208 656 208 644 c 0,18,19
 208 633 208 633 213.5 618.5 c 128,-1,20
 219 604 219 604 229 585 c 2,21,-1
 306 432 l 1,22,-1
 386 583 l 2,23,24
 395 600 395 600 401 615 c 128,-1,25
 407 630 407 630 407 644 c 0,26,27
 407 662 407 662 393.5 667.5 c 128,-1,28
 380 673 380 673 360 673 c 2,29,-1
 358 673 l 1,30,-1
 358 714 l 1,31,-1
 546 714 l 1,32,-1
 546 673 l 1,33,-1
 539 673 l 2,34,35
 513 673 513 673 495.5 658 c 128,-1,36
 478 643 478 643 454 601 c 2,37,-1
 332 385 l 1,38,-1
 487 94 l 2,39,40
 504 65 504 65 521.5 53 c 128,-1,41
 539 41 539 41 555 41 c 2,42,-1
 567 41 l 1,43,-1
 567 0 l 1,44,-1
 328 0 l 1,45,-1
 328 41 l 1,46,-1
 332 41 l 2,47,48
 383 41 383 41 383 74 c 0,49,50
 383 86 383 86 377.5 98 c 128,-1,51
 372 110 372 110 355 143 c 2,52,-1
 270 308 l 1,53,-1
 180 145 l 2,54,55
 171 127 171 127 163 107.5 c 128,-1,56
 155 88 155 88 155 72 c 0,57,58
 155 41 155 41 209 41 c 2,59,-1
 212 41 l 1,60,-1
 212 0 l 1,61,-1
 7 0 l 1,0,-1
EndSplineSet
Validated: 1
Substitution2: "'c2sc' Capitals to Small Capitals lookup 37 subtable" x.sc
Substitution2: "'aalt' Access All Alternates lookup 0 subtable" x.sc
EndChar

StartChar: Y
Encoding: 316 89 60
Width: 543
GlyphClass: 2
Flags: W
AnchorPoint: "Anchor-2" 523 714 basechar 0
AnchorPoint: "Anchor-1" 272 714 basechar 0
AnchorPoint: "Anchor-0" 272 0 basechar 0
LayerCount: 2
Fore
SplineSet
137 0 m 1,0,-1
 137 41 l 1,1,-1
 154 41 l 2,2,3
 183 41 183 41 204.5 53.5 c 128,-1,4
 226 66 226 66 226 110 c 2,5,-1
 226 303 l 1,6,-1
 69 620 l 2,7,8
 54 649 54 649 42 661 c 128,-1,9
 30 673 30 673 7 673 c 2,10,-1
 -4 673 l 1,11,-1
 -4 714 l 1,12,-1
 236 714 l 1,13,-1
 236 673 l 1,14,-1
 211 673 l 2,15,16
 187 673 187 673 179 663.5 c 128,-1,17
 171 654 171 654 171 642 c 256,18,19
 171 630 171 630 176 615 c 128,-1,20
 181 600 181 600 186 589 c 2,21,-1
 250 457 l 2,22,23
 264 427 264 427 275 399.5 c 128,-1,24
 286 372 286 372 293 349 c 1,25,26
 301 369 301 369 314 397 c 128,-1,27
 327 425 327 425 341 457 c 2,28,-1
 396 569 l 2,29,30
 414 607 414 607 414 633 c 0,31,32
 414 655 414 655 399 664 c 128,-1,33
 384 673 384 673 359 673 c 2,34,-1
 339 673 l 1,35,-1
 339 714 l 1,36,-1
 546 714 l 1,37,-1
 546 673 l 1,38,-1
 537 673 l 2,39,40
 518 673 518 673 502.5 656.5 c 128,-1,41
 487 640 487 640 465 595 c 2,42,-1
 321 303 l 1,43,-1
 321 115 l 2,44,45
 321 68 321 68 342 54.5 c 128,-1,46
 363 41 363 41 391 41 c 2,47,-1
 411 41 l 1,48,-1
 411 0 l 1,49,-1
 137 0 l 1,0,-1
EndSplineSet
Validated: 1
Substitution2: "'c2sc' Capitals to Small Capitals lookup 37 subtable" y.sc
Substitution2: "'aalt' Access All Alternates lookup 0 subtable" y.sc
EndChar

StartChar: Z
Encoding: 317 90 61
Width: 516
GlyphClass: 2
Flags: W
AnchorPoint: "Anchor-2" 496 714 basechar 0
AnchorPoint: "Anchor-1" 258 714 basechar 0
AnchorPoint: "Anchor-0" 258 0 basechar 0
LayerCount: 2
Fore
SplineSet
31 0 m 1,0,-1
 31 39 l 1,1,-1
 355 665 l 1,2,-1
 170 665 l 2,3,4
 131 665 131 665 116.5 640.5 c 128,-1,5
 102 616 102 616 99 584 c 2,6,-1
 95 541 l 1,7,-1
 48 541 l 1,8,-1
 52 714 l 1,9,-1
 465 714 l 1,10,-1
 465 674 l 1,11,-1
 141 49 l 1,12,-1
 354 49 l 2,13,14
 395 49 395 49 410 73 c 128,-1,15
 425 97 425 97 429 131 c 2,16,-1
 432 173 l 1,17,-1
 479 173 l 1,18,-1
 476 0 l 1,19,-1
 31 0 l 1,0,-1
EndSplineSet
Validated: 1
Substitution2: "'c2sc' Capitals to Small Capitals lookup 37 subtable" z.sc
Substitution2: "'aalt' Access All Alternates lookup 0 subtable" z.sc
EndChar

StartChar: bracketleft
Encoding: 318 91 62
Width: 315
Flags: W
LayerCount: 2
Fore
SplineSet
85 -128 m 1,0,-1
 85 760 l 1,1,-1
 284 760 l 1,2,-1
 284 719 l 1,3,-1
 247 719 l 2,4,5
 219 719 219 719 198 706.5 c 128,-1,6
 177 694 177 694 177 647 c 2,7,-1
 177 -15 l 2,8,9
 177 -62 177 -62 198 -74.5 c 128,-1,10
 219 -87 219 -87 247 -87 c 2,11,-1
 284 -87 l 1,12,-1
 284 -128 l 1,13,-1
 85 -128 l 1,0,-1
EndSplineSet
Validated: 1
Substitution2: "'smcp' Lowercase to Small Capitals lookup 38 subtable" bracketleft.sc
Substitution2: "'c2sc' Capitals to Small Capitals lookup 37 subtable" bracketleft.sc
Substitution2: "'aalt' Access All Alternates lookup 0 subtable" bracketleft.sc
EndChar

StartChar: backslash
Encoding: 319 92 63
Width: 246
Flags: W
LayerCount: 2
Fore
SplineSet
194 -121 m 1,0,-1
 0 760 l 1,1,-1
 52 760 l 1,2,-1
 246 -121 l 1,3,-1
 194 -121 l 1,0,-1
EndSplineSet
Validated: 1
EndChar

StartChar: bracketright
Encoding: 320 93 64
Width: 315
Flags: W
LayerCount: 2
Fore
SplineSet
32 -128 m 1,0,-1
 32 -87 l 1,1,-1
 68 -87 l 2,2,3
 97 -87 97 -87 117.5 -74.5 c 128,-1,4
 138 -62 138 -62 138 -15 c 2,5,-1
 138 647 l 2,6,7
 138 694 138 694 117.5 706.5 c 128,-1,8
 97 719 97 719 68 719 c 2,9,-1
 32 719 l 1,10,-1
 32 760 l 1,11,-1
 230 760 l 1,12,-1
 230 -128 l 1,13,-1
 32 -128 l 1,0,-1
EndSplineSet
Validated: 1
Substitution2: "'smcp' Lowercase to Small Capitals lookup 38 subtable" bracketright.sc
Substitution2: "'c2sc' Capitals to Small Capitals lookup 37 subtable" bracketright.sc
Substitution2: "'aalt' Access All Alternates lookup 0 subtable" bracketright.sc
EndChar

StartChar: asciicircum
Encoding: 321 94 65
Width: 465
Flags: W
LayerCount: 2
Fore
SplineSet
36 267 m 1,0,-1
 216 714 l 1,1,-1
 247 714 l 1,2,-1
 428 267 l 1,3,-1
 369 267 l 1,4,-1
 231 623 l 1,5,-1
 95 267 l 1,6,-1
 36 267 l 1,0,-1
EndSplineSet
Validated: 1
EndChar

StartChar: underscore
Encoding: 322 95 66
Width: 391
Flags: W
LayerCount: 2
Fore
SplineSet
-4 -142 m 1,0,-1
 -4 -83 l 1,1,-1
 395 -83 l 1,2,-1
 395 -142 l 1,3,-1
 -4 -142 l 1,0,-1
EndSplineSet
Validated: 1
EndChar

StartChar: grave
Encoding: 323 96 67
Width: 258
Flags: W
LayerCount: 2
Fore
SplineSet
181 606 m 1,0,1
 158 624 158 624 129 652.5 c 128,-1,2
 100 681 100 681 75.5 710 c 128,-1,3
 51 739 51 739 40 756 c 1,4,-1
 40 766 l 1,5,-1
 139 766 l 1,6,7
 147 744 147 744 161 717 c 128,-1,8
 175 690 175 690 190.5 664 c 128,-1,9
 206 638 206 638 218 619 c 1,10,-1
 218 606 l 1,11,-1
 181 606 l 1,0,1
EndSplineSet
Validated: 1
EndChar

StartChar: a
Encoding: 324 97 68
Width: 487
GlyphClass: 2
Flags: W
AnchorPoint: "Anchor-2" 467 536 basechar 0
AnchorPoint: "Anchor-1" 244 536 basechar 0
AnchorPoint: "Anchor-0" 244 0 basechar 0
LayerCount: 2
Fore
SplineSet
173 -10 m 0,0,1
 118 -10 118 -10 80 29 c 128,-1,2
 42 68 42 68 42 150 c 0,3,4
 42 230 42 230 90 268 c 128,-1,5
 138 306 138 306 236 309 c 2,6,-1
 306 312 l 1,7,-1
 306 373 l 2,8,9
 306 429 306 429 292.5 463 c 128,-1,10
 279 497 279 497 230 497 c 0,11,12
 183 497 183 497 169 466.5 c 128,-1,13
 155 436 155 436 155 388 c 1,14,15
 77 388 77 388 77 450 c 0,16,17
 77 497 77 497 121.5 521.5 c 128,-1,18
 166 546 166 546 236 546 c 0,19,20
 315 546 315 546 355.5 507 c 128,-1,21
 396 468 396 468 396 372 c 2,22,-1
 396 113 l 2,23,24
 396 71 396 71 407.5 56 c 128,-1,25
 419 41 419 41 448 41 c 2,26,-1
 451 41 l 1,27,-1
 451 0 l 1,28,-1
 328 0 l 1,29,-1
 314 87 l 1,30,-1
 308 87 l 1,31,32
 290 59 290 59 272.5 37 c 128,-1,33
 255 15 255 15 232 2.5 c 128,-1,34
 209 -10 209 -10 173 -10 c 0,0,1
199 45 m 0,35,36
 249 45 249 45 278 86 c 128,-1,37
 307 127 307 127 307 191 c 2,38,-1
 307 273 l 1,39,-1
 256 270 l 2,40,41
 187 266 187 266 160.5 234.5 c 128,-1,42
 134 203 134 203 134 144 c 0,43,44
 134 98 134 98 149.5 71.5 c 128,-1,45
 165 45 165 45 199 45 c 0,35,36
EndSplineSet
Validated: 1
Substitution2: "'smcp' Lowercase to Small Capitals lookup 38 subtable" a.sc
Substitution2: "Single Substitution lookup 32 subtable" ordfeminine
AlternateSubs2: "'aalt' Access All Alternates lookup 1 subtable" ordfeminine a.sc
EndChar

StartChar: b
Encoding: 325 98 69
Width: 529
GlyphClass: 2
Flags: W
AnchorPoint: "Anchor-2" 498 760 basechar 0
AnchorPoint: "Anchor-1" 265 760 basechar 0
AnchorPoint: "Anchor-0" 265 0 basechar 0
LayerCount: 2
Fore
SplineSet
310 -10 m 0,0,1
 260 -10 260 -10 228.5 14.5 c 128,-1,2
 197 39 197 39 179 78 c 1,3,-1
 173 78 l 1,4,-1
 156 0 l 1,5,-1
 15 0 l 1,6,-1
 15 41 l 1,7,-1
 22 41 l 2,8,9
 50 41 50 41 70.5 53.5 c 128,-1,10
 91 66 91 66 91 113 c 2,11,-1
 91 651 l 2,12,13
 91 695 91 695 70.5 707 c 128,-1,14
 50 719 50 719 22 719 c 2,15,-1
 15 719 l 1,16,-1
 15 760 l 1,17,-1
 180 760 l 1,18,-1
 180 575 l 2,19,20
 180 557 180 557 179.5 532 c 128,-1,21
 179 507 179 507 178.5 482.5 c 128,-1,22
 178 458 178 458 177 444 c 1,23,-1
 180 444 l 1,24,25
 198 490 198 490 229.5 518 c 128,-1,26
 261 546 261 546 313 546 c 0,27,28
 395 546 395 546 439 479.5 c 128,-1,29
 483 413 483 413 483 269 c 0,30,31
 483 124 483 124 437.5 57 c 128,-1,32
 392 -10 392 -10 310 -10 c 0,0,1
292 48 m 0,33,34
 346 48 346 48 369 105.5 c 128,-1,35
 392 163 392 163 392 271 c 0,36,37
 392 381 392 381 368.5 435 c 128,-1,38
 345 489 345 489 291 489 c 0,39,40
 228 489 228 489 204 433.5 c 128,-1,41
 180 378 180 378 180 270 c 256,42,43
 180 162 180 162 204 105 c 128,-1,44
 228 48 228 48 292 48 c 0,33,34
EndSplineSet
Validated: 1
Substitution2: "'smcp' Lowercase to Small Capitals lookup 38 subtable" b.sc
Substitution2: "'aalt' Access All Alternates lookup 0 subtable" b.sc
EndChar

StartChar: c
Encoding: 326 99 70
Width: 426
GlyphClass: 2
Flags: W
AnchorPoint: "Anchor-2" 406 536 basechar 0
AnchorPoint: "Anchor-1" 233 536 basechar 0
AnchorPoint: "Anchor-0" 233 0 basechar 0
LayerCount: 2
Fore
SplineSet
244 -10 m 0,0,1
 186 -10 186 -10 141 18 c 128,-1,2
 96 46 96 46 71 106.5 c 128,-1,3
 46 167 46 167 46 265 c 0,4,5
 46 372 46 372 71.5 433.5 c 128,-1,6
 97 495 97 495 141 520.5 c 128,-1,7
 185 546 185 546 240 546 c 0,8,9
 305 546 305 546 348.5 520 c 128,-1,10
 392 494 392 494 392 444 c 0,11,12
 392 410 392 410 372 396.5 c 128,-1,13
 352 383 352 383 310 383 c 1,14,15
 310 430 310 430 296 463.5 c 128,-1,16
 282 497 282 497 240 497 c 0,17,18
 209 497 209 497 185.5 476.5 c 128,-1,19
 162 456 162 456 149.5 406 c 128,-1,20
 137 356 137 356 137 266 c 0,21,22
 137 159 137 159 166 103.5 c 128,-1,23
 195 48 195 48 258 48 c 0,24,25
 302 48 302 48 331.5 71.5 c 128,-1,26
 361 95 361 95 376 126 c 1,27,28
 383 120 383 120 387.5 111 c 128,-1,29
 392 102 392 102 392 88 c 0,30,31
 392 67 392 67 377 44 c 128,-1,32
 362 21 362 21 329 5.5 c 128,-1,33
 296 -10 296 -10 244 -10 c 0,0,1
EndSplineSet
Validated: 1
Substitution2: "'smcp' Lowercase to Small Capitals lookup 38 subtable" c.sc
Substitution2: "'aalt' Access All Alternates lookup 0 subtable" c.sc
EndChar

StartChar: d
Encoding: 327 100 71
Width: 529
GlyphClass: 2
Flags: W
AnchorPoint: "Anchor-3" 265 268 basechar 0
AnchorPoint: "Anchor-2" 498 760 basechar 0
AnchorPoint: "Anchor-1" 265 760 basechar 0
AnchorPoint: "Anchor-0" 265 0 basechar 0
LayerCount: 2
Fore
SplineSet
218 -10 m 0,0,1
 134 -10 134 -10 89.5 56.5 c 128,-1,2
 45 123 45 123 45 267 c 0,3,4
 45 412 45 412 90 479 c 128,-1,5
 135 546 135 546 220 546 c 0,6,7
 269 546 269 546 299.5 521.5 c 128,-1,8
 330 497 330 497 348 458 c 1,9,-1
 353 458 l 1,10,11
 351 482 351 482 350.5 510 c 128,-1,12
 350 538 350 538 350 565 c 2,13,-1
 350 650 l 2,14,15
 350 695 350 695 329 707 c 128,-1,16
 308 719 308 719 280 719 c 2,17,-1
 273 719 l 1,18,-1
 273 760 l 1,19,-1
 438 760 l 1,20,-1
 438 111 l 2,21,22
 438 66 438 66 457.5 53.5 c 128,-1,23
 477 41 477 41 506 41 c 2,24,-1
 514 41 l 1,25,-1
 514 0 l 1,26,-1
 364 0 l 1,27,-1
 354 91 l 1,28,-1
 351 91 l 1,29,30
 331 45 331 45 300 17.5 c 128,-1,31
 269 -10 269 -10 218 -10 c 0,0,1
238 48 m 0,32,33
 299 48 299 48 324.5 106 c 128,-1,34
 350 164 350 164 350 267 c 0,35,36
 350 374 350 374 325.5 431 c 128,-1,37
 301 488 301 488 237 488 c 0,38,39
 183 488 183 488 160 431 c 128,-1,40
 137 374 137 374 137 266 c 0,41,42
 137 156 137 156 160.5 102 c 128,-1,43
 184 48 184 48 238 48 c 0,32,33
EndSplineSet
Validated: 1
Substitution2: "'smcp' Lowercase to Small Capitals lookup 38 subtable" d.sc
Substitution2: "'aalt' Access All Alternates lookup 0 subtable" d.sc
EndChar

StartChar: e
Encoding: 328 101 72
Width: 462
GlyphClass: 2
Flags: W
AnchorPoint: "Anchor-2" 442 536 basechar 0
AnchorPoint: "Anchor-1" 242 536 basechar 0
AnchorPoint: "Anchor-0" 242 0 basechar 0
LayerCount: 2
Fore
SplineSet
248 -10 m 0,0,1
 151 -10 151 -10 98.5 62 c 128,-1,2
 46 134 46 134 46 264 c 0,3,4
 46 405 46 405 96.5 475.5 c 128,-1,5
 147 546 147 546 239 546 c 0,6,7
 324 546 324 546 372.5 484.5 c 128,-1,8
 421 423 421 423 421 305 c 2,9,-1
 421 263 l 1,10,-1
 137 263 l 1,11,12
 138 152 138 152 170.5 99.5 c 128,-1,13
 203 47 203 47 265 47 c 0,14,15
 309 47 309 47 338.5 70 c 128,-1,16
 368 93 368 93 384 124 c 1,17,18
 392 120 392 120 398 112 c 128,-1,19
 404 104 404 104 404 90 c 0,20,21
 404 70 404 70 387 46.5 c 128,-1,22
 370 23 370 23 335.5 6.5 c 128,-1,23
 301 -10 301 -10 248 -10 c 0,0,1
138 314 m 1,24,-1
 330 314 l 1,25,26
 330 395 330 395 309.5 445 c 128,-1,27
 289 495 289 495 240 495 c 0,28,29
 192 495 192 495 166.5 448 c 128,-1,30
 141 401 141 401 138 314 c 1,24,-1
EndSplineSet
Validated: 1
Substitution2: "'smcp' Lowercase to Small Capitals lookup 38 subtable" e.sc
Substitution2: "'aalt' Access All Alternates lookup 0 subtable" e.sc
EndChar

StartChar: f
Encoding: 329 102 73
Width: 320
GlyphClass: 2
Flags: W
AnchorPoint: "Anchor-2" 380 770 basechar 0
AnchorPoint: "Anchor-1" 237 770 basechar 0
AnchorPoint: "Anchor-0" 161 0 basechar 0
LayerCount: 2
Fore
SplineSet
22 0 m 1,0,-1
 22 41 l 1,1,-1
 34 41 l 2,2,3
 61 41 61 41 82 53.5 c 128,-1,4
 103 66 103 66 103 113 c 2,5,-1
 103 488 l 1,6,-1
 25 488 l 1,7,-1
 25 536 l 1,8,-1
 103 536 l 1,9,-1
 103 587 l 2,10,11
 103 676 103 676 144 723 c 128,-1,12
 185 770 185 770 262 770 c 0,13,14
 327 770 327 770 353 750 c 128,-1,15
 379 730 379 730 379 701 c 0,16,17
 379 675 379 675 360.5 659.5 c 128,-1,18
 342 644 342 644 307 644 c 1,19,20
 307 675 307 675 296.5 700 c 128,-1,21
 286 725 286 725 255 725 c 0,22,23
 220 725 220 725 206 691.5 c 128,-1,24
 192 658 192 658 192 596 c 2,25,-1
 192 536 l 1,26,-1
 312 536 l 1,27,-1
 312 488 l 1,28,-1
 192 488 l 1,29,-1
 192 113 l 2,30,31
 192 66 192 66 212 53.5 c 128,-1,32
 232 41 232 41 260 41 c 2,33,-1
 293 41 l 1,34,-1
 293 0 l 1,35,-1
 22 0 l 1,0,-1
EndSplineSet
Validated: 1
Substitution2: "'smcp' Lowercase to Small Capitals lookup 38 subtable" f.sc
Substitution2: "'aalt' Access All Alternates lookup 0 subtable" f.sc
EndChar

StartChar: g
Encoding: 330 103 74
Width: 462
GlyphClass: 2
Flags: W
AnchorPoint: "Anchor-2" 453 536 basechar 0
AnchorPoint: "Anchor-1" 229 536 basechar 0
AnchorPoint: "Anchor-0" 231 -239 basechar 0
LayerCount: 2
Fore
SplineSet
198 -239 m 0,0,1
 107 -239 107 -239 62 -200.5 c 128,-1,2
 17 -162 17 -162 17 -93 c 0,3,4
 17 -34 17 -34 49.5 -2 c 128,-1,5
 82 30 82 30 124 40 c 1,6,7
 106 49 106 49 89.5 67 c 128,-1,8
 73 85 73 85 73 117 c 0,9,10
 73 147 73 147 90 169.5 c 128,-1,11
 107 192 107 192 134 210 c 1,12,13
 96 229 96 229 74.5 270 c 128,-1,14
 53 311 53 311 53 361 c 0,15,16
 53 447 53 447 94 496.5 c 128,-1,17
 135 546 135 546 219 546 c 0,18,19
 251 546 251 546 276.5 536.5 c 128,-1,20
 302 527 302 527 318 512 c 1,21,22
 326 521 326 521 338.5 534 c 128,-1,23
 351 547 351 547 367 557.5 c 128,-1,24
 383 568 383 568 403 568 c 0,25,26
 429 568 429 568 441 552.5 c 128,-1,27
 453 537 453 537 453 516 c 256,28,29
 453 495 453 495 442 479 c 128,-1,30
 431 463 431 463 407 463 c 1,31,32
 407 478 407 478 399.5 490 c 128,-1,33
 392 502 392 502 378 502 c 0,34,35
 367 502 367 502 358.5 498 c 128,-1,36
 350 494 350 494 342 487 c 1,37,38
 357 467 357 467 368 438.5 c 128,-1,39
 379 410 379 410 379 365 c 0,40,41
 379 290 379 290 339.5 241 c 128,-1,42
 300 192 300 192 219 192 c 0,43,44
 208 192 208 192 193 193.5 c 128,-1,45
 178 195 178 195 169 198 c 1,46,47
 156 188 156 188 145 172.5 c 128,-1,48
 134 157 134 157 134 134 c 0,49,50
 134 91 134 91 191 91 c 2,51,-1
 283 91 l 2,52,53
 335 91 335 91 367 71.5 c 128,-1,54
 399 52 399 52 413.5 19 c 128,-1,55
 428 -14 428 -14 428 -54 c 0,56,57
 428 -139 428 -139 371.5 -189 c 128,-1,58
 315 -239 315 -239 198 -239 c 0,0,1
217 238 m 0,59,60
 260 238 260 238 277.5 268.5 c 128,-1,61
 295 299 295 299 295 365 c 0,62,63
 295 434 295 434 277 466.5 c 128,-1,64
 259 499 259 499 216 499 c 0,65,66
 174 499 174 499 155.5 465.5 c 128,-1,67
 137 432 137 432 137 364 c 0,68,69
 137 300 137 300 156 269 c 128,-1,70
 175 238 175 238 217 238 c 0,59,60
200 -191 m 0,71,72
 259 -191 259 -191 292 -174.5 c 128,-1,73
 325 -158 325 -158 338.5 -130.5 c 128,-1,74
 352 -103 352 -103 352 -69 c 0,75,76
 352 -23 352 -23 330.5 -5.5 c 128,-1,77
 309 12 309 12 269 12 c 2,78,-1
 182 12 l 2,79,80
 159 12 159 12 138.5 3.5 c 128,-1,81
 118 -5 118 -5 104.5 -26 c 128,-1,82
 91 -47 91 -47 91 -87 c 0,83,84
 91 -131 91 -131 115.5 -161 c 128,-1,85
 140 -191 140 -191 200 -191 c 0,71,72
EndSplineSet
Validated: 1
Substitution2: "'smcp' Lowercase to Small Capitals lookup 38 subtable" g.sc
Substitution2: "'aalt' Access All Alternates lookup 0 subtable" g.sc
EndChar

StartChar: h
Encoding: 331 104 75
Width: 547
GlyphClass: 2
Flags: W
AnchorPoint: "Anchor-3" 273 268 basechar 0
AnchorPoint: "Anchor-2" 476 760 basechar 0
AnchorPoint: "Anchor-1" 273 760 basechar 0
AnchorPoint: "Anchor-0" 273 0 basechar 0
LayerCount: 2
Fore
SplineSet
15 0 m 1,0,-1
 15 41 l 1,1,-1
 23 41 l 2,2,3
 50 41 50 41 70.5 53.5 c 128,-1,4
 91 66 91 66 91 113 c 2,5,-1
 91 651 l 2,6,7
 91 695 91 695 70 707 c 128,-1,8
 49 719 49 719 23 719 c 2,9,-1
 15 719 l 1,10,-1
 15 760 l 1,11,-1
 180 760 l 1,12,-1
 180 534 l 2,13,14
 180 509 180 509 178 484 c 128,-1,15
 176 459 176 459 176 454 c 1,16,-1
 180 454 l 1,17,18
 197 492 197 492 228.5 519 c 128,-1,19
 260 546 260 546 312 546 c 0,20,21
 382 546 382 546 419 499 c 128,-1,22
 456 452 456 452 456 349 c 2,23,-1
 456 113 l 2,24,25
 456 66 456 66 474 53.5 c 128,-1,26
 492 41 492 41 521 41 c 2,27,-1
 523 41 l 1,28,-1
 523 0 l 1,29,-1
 367 0 l 1,30,-1
 367 346 l 2,31,32
 367 412 367 412 347 447.5 c 128,-1,33
 327 483 327 483 278 483 c 0,34,35
 226 483 226 483 203 439 c 128,-1,36
 180 395 180 395 180 321 c 2,37,-1
 180 108 l 2,38,39
 180 64 180 64 199.5 52.5 c 128,-1,40
 219 41 219 41 248 41 c 2,41,-1
 250 41 l 1,42,-1
 250 0 l 1,43,-1
 15 0 l 1,0,-1
EndSplineSet
Validated: 1
Substitution2: "'smcp' Lowercase to Small Capitals lookup 38 subtable" h.sc
Substitution2: "'subs' Subscript lookup 21 subtable" uni2095
AlternateSubs2: "'aalt' Access All Alternates lookup 1 subtable" h.sc uni2095
EndChar

StartChar: i
Encoding: 332 105 76
Width: 278
GlyphClass: 2
Flags: W
AnchorPoint: "Anchor-2" 230 757 basechar 0
AnchorPoint: "Anchor-1" 139 757 basechar 0
AnchorPoint: "Anchor-0" 139 0 basechar 0
LayerCount: 2
Fore
SplineSet
139 640 m 0,0,1
 116 640 116 640 101.5 653 c 128,-1,2
 87 666 87 666 87 698 c 0,3,4
 87 731 87 731 101.5 744 c 128,-1,5
 116 757 116 757 139 757 c 0,6,7
 161 757 161 757 176.5 744 c 128,-1,8
 192 731 192 731 192 698 c 0,9,10
 192 666 192 666 176.5 653 c 128,-1,11
 161 640 161 640 139 640 c 0,0,1
19 0 m 1,12,-1
 19 41 l 1,13,-1
 30 41 l 2,14,15
 60 41 60 41 79 53 c 128,-1,16
 98 65 98 65 98 110 c 2,17,-1
 98 425 l 2,18,19
 98 470 98 470 80.5 482.5 c 128,-1,20
 63 495 63 495 33 495 c 2,21,-1
 25 495 l 1,22,-1
 25 536 l 1,23,-1
 187 536 l 1,24,-1
 187 115 l 2,25,26
 187 67 187 67 206 54 c 128,-1,27
 225 41 225 41 256 41 c 2,28,-1
 266 41 l 1,29,-1
 266 0 l 1,30,-1
 19 0 l 1,12,-1
EndSplineSet
Validated: 1
Substitution2: "'smcp' Lowercase to Small Capitals lookup 38 subtable" i.sc
Substitution2: "Single Substitution lookup 5 subtable" dotlessi
Substitution2: "Single Substitution lookup 4 subtable" dotlessi
AlternateSubs2: "'aalt' Access All Alternates lookup 1 subtable" dotlessi i.sc
EndChar

StartChar: j
Encoding: 333 106 77
Width: 270
GlyphClass: 2
Flags: W
AnchorPoint: "Anchor-2" 230 757 basechar 0
AnchorPoint: "Anchor-1" 137 757 basechar 0
AnchorPoint: "Anchor-0" 86 -240 basechar 0
LayerCount: 2
Fore
SplineSet
137 640 m 256,0,1
 115 640 115 640 99.5 653 c 128,-1,2
 84 666 84 666 84 698 c 0,3,4
 84 731 84 731 99.5 744 c 128,-1,5
 115 757 115 757 137 757 c 256,6,7
 159 757 159 757 175 744 c 128,-1,8
 191 731 191 731 191 698 c 0,9,10
 191 666 191 666 175 653 c 128,-1,11
 159 640 159 640 137 640 c 256,0,1
-6 -240 m 1,12,-1
 -6 -194 l 1,13,-1
 0 -194 l 2,14,15
 31 -194 31 -194 52.5 -177.5 c 128,-1,16
 74 -161 74 -161 85.5 -121 c 128,-1,17
 97 -81 97 -81 97 -10 c 2,18,-1
 97 427 l 2,19,20
 97 471 97 471 77.5 483 c 128,-1,21
 58 495 58 495 30 495 c 2,22,-1
 24 495 l 1,23,-1
 24 536 l 1,24,-1
 185 536 l 1,25,-1
 185 -8 l 2,26,27
 185 -97 185 -97 162.5 -148 c 128,-1,28
 140 -199 140 -199 100 -219.5 c 128,-1,29
 60 -240 60 -240 8 -240 c 2,30,-1
 -6 -240 l 1,12,-1
EndSplineSet
Validated: 1
Substitution2: "'smcp' Lowercase to Small Capitals lookup 38 subtable" j.sc
Substitution2: "Single Substitution lookup 5 subtable" uni0237
Substitution2: "Single Substitution lookup 4 subtable" uni0237
AlternateSubs2: "'aalt' Access All Alternates lookup 1 subtable" uni0237 j.sc
EndChar

StartChar: k
Encoding: 334 107 78
Width: 507
GlyphClass: 2
Flags: W
AnchorPoint: "Anchor-2" 497 760 basechar 0
AnchorPoint: "Anchor-1" 254 760 basechar 0
AnchorPoint: "Anchor-0" 254 0 basechar 0
LayerCount: 2
Fore
SplineSet
15 0 m 1,0,-1
 15 41 l 1,1,-1
 23 41 l 2,2,3
 50 41 50 41 70.5 53.5 c 128,-1,4
 91 66 91 66 91 113 c 2,5,-1
 91 651 l 2,6,7
 91 695 91 695 70 707 c 128,-1,8
 49 719 49 719 23 719 c 2,9,-1
 15 719 l 1,10,-1
 15 760 l 1,11,-1
 180 760 l 1,12,-1
 180 375 l 2,13,14
 180 361 180 361 179.5 340.5 c 128,-1,15
 179 320 179 320 178.5 298.5 c 128,-1,16
 178 277 178 277 177 262 c 128,-1,17
 176 247 176 247 176 246 c 2,18,-1
 283 385 l 2,19,20
 311 420 311 420 320 440 c 128,-1,21
 329 460 329 460 329 472 c 0,22,23
 329 495 329 495 287 495 c 1,24,-1
 287 536 l 1,25,-1
 477 536 l 1,26,-1
 477 495 l 1,27,28
 447 495 447 495 418.5 470 c 128,-1,29
 390 445 390 445 357 401 c 2,30,-1
 301 326 l 1,31,-1
 413 125 l 2,32,33
 436 85 436 85 456.5 63 c 128,-1,34
 477 41 477 41 505 41 c 2,35,-1
 508 41 l 1,36,-1
 508 0 l 1,37,-1
 496 0 l 2,38,39
 457 0 457 0 431.5 3 c 128,-1,40
 406 6 406 6 388.5 16.5 c 128,-1,41
 371 27 371 27 356 47 c 128,-1,42
 341 67 341 67 323 101 c 2,43,-1
 239 262 l 1,44,-1
 180 194 l 1,45,-1
 180 108 l 2,46,47
 180 64 180 64 201 52.5 c 128,-1,48
 222 41 222 41 248 41 c 2,49,-1
 252 41 l 1,50,-1
 252 0 l 1,51,-1
 15 0 l 1,0,-1
EndSplineSet
Validated: 1
Substitution2: "'smcp' Lowercase to Small Capitals lookup 38 subtable" k.sc
Substitution2: "'subs' Subscript lookup 21 subtable" uni2096
AlternateSubs2: "'aalt' Access All Alternates lookup 1 subtable" k.sc uni2096
EndChar

StartChar: l
Encoding: 335 108 79
Width: 270
GlyphClass: 2
Flags: W
AnchorPoint: "Anchor-3" 135 268 basechar 0
AnchorPoint: "Anchor-2" 225 760 basechar 0
AnchorPoint: "Anchor-1" 135 760 basechar 0
AnchorPoint: "Anchor-0" 135 0 basechar 0
LayerCount: 2
Fore
SplineSet
12 0 m 1,0,-1
 12 41 l 1,1,-1
 23 41 l 2,2,3
 53 41 53 41 72 54 c 128,-1,4
 91 67 91 67 91 115 c 2,5,-1
 91 651 l 2,6,7
 91 695 91 695 70 707 c 128,-1,8
 49 719 49 719 23 719 c 2,9,-1
 12 719 l 1,10,-1
 12 760 l 1,11,-1
 180 760 l 1,12,-1
 180 115 l 2,13,14
 180 67 180 67 199 54 c 128,-1,15
 218 41 218 41 248 41 c 2,16,-1
 259 41 l 1,17,-1
 259 0 l 1,18,-1
 12 0 l 1,0,-1
EndSplineSet
Validated: 1
Substitution2: "'smcp' Lowercase to Small Capitals lookup 38 subtable" l.sc
Substitution2: "'subs' Subscript lookup 21 subtable" uni2097
AlternateSubs2: "'aalt' Access All Alternates lookup 1 subtable" l.sc uni2097
EndChar

StartChar: m
Encoding: 336 109 80
Width: 812
GlyphClass: 2
Flags: W
AnchorPoint: "Anchor-2" 783 536 basechar 0
AnchorPoint: "Anchor-1" 407 536 basechar 0
AnchorPoint: "Anchor-0" 407 0 basechar 0
LayerCount: 2
Fore
SplineSet
22 0 m 1,0,-1
 22 41 l 1,1,-1
 35 41 l 2,2,3
 63 41 63 41 80.5 53.5 c 128,-1,4
 98 66 98 66 98 113 c 2,5,-1
 98 426 l 2,6,7
 98 471 98 471 80 483 c 128,-1,8
 62 495 62 495 33 495 c 2,9,-1
 31 495 l 1,10,-1
 31 536 l 1,11,-1
 172 536 l 1,12,-1
 184 454 l 1,13,-1
 189 454 l 1,14,15
 211 507 211 507 242.5 526.5 c 128,-1,16
 274 546 274 546 319 546 c 0,17,18
 360 546 360 546 393 525 c 128,-1,19
 426 504 426 504 443 450 c 1,20,-1
 447 450 l 1,21,22
 470 506 470 506 504 526 c 128,-1,23
 538 546 538 546 582 546 c 0,24,25
 648 546 648 546 685 499 c 128,-1,26
 722 452 722 452 722 349 c 2,27,-1
 722 113 l 2,28,29
 722 66 722 66 740 53.5 c 128,-1,30
 758 41 758 41 787 41 c 2,31,-1
 789 41 l 1,32,-1
 789 0 l 1,33,-1
 633 0 l 1,34,-1
 633 346 l 2,35,36
 633 412 633 412 614 447.5 c 128,-1,37
 595 483 595 483 550 483 c 0,38,39
 515 483 515 483 494.5 462.5 c 128,-1,40
 474 442 474 442 465 408 c 128,-1,41
 456 374 456 374 456 334 c 2,42,-1
 456 113 l 2,43,44
 456 66 456 66 474 53.5 c 128,-1,45
 492 41 492 41 520 41 c 2,46,-1
 523 41 l 1,47,-1
 523 0 l 1,48,-1
 368 0 l 1,49,-1
 368 346 l 2,50,51
 368 412 368 412 349 447.5 c 128,-1,52
 330 483 330 483 285 483 c 0,53,54
 249 483 249 483 228 460.5 c 128,-1,55
 207 438 207 438 197.5 401 c 128,-1,56
 188 364 188 364 188 321 c 2,57,-1
 188 108 l 2,58,59
 188 64 188 64 207.5 52.5 c 128,-1,60
 227 41 227 41 256 41 c 2,61,-1
 258 41 l 1,62,-1
 258 0 l 1,63,-1
 22 0 l 1,0,-1
EndSplineSet
Validated: 1
Substitution2: "'smcp' Lowercase to Small Capitals lookup 38 subtable" m.sc
Substitution2: "'subs' Subscript lookup 21 subtable" uni2098
AlternateSubs2: "'aalt' Access All Alternates lookup 1 subtable" m.sc uni2098
EndChar

StartChar: n
Encoding: 337 110 81
Width: 554
GlyphClass: 2
Flags: W
AnchorPoint: "Anchor-2" 522 536 basechar 0
AnchorPoint: "Anchor-1" 278 536 basechar 0
AnchorPoint: "Anchor-0" 278 0 basechar 0
LayerCount: 2
Fore
SplineSet
22 0 m 1,0,-1
 22 41 l 1,1,-1
 30 41 l 2,2,3
 59 41 59 41 78.5 53.5 c 128,-1,4
 98 66 98 66 98 113 c 2,5,-1
 98 427 l 2,6,7
 98 471 98 471 78.5 483 c 128,-1,8
 59 495 59 495 32 495 c 2,9,-1
 27 495 l 1,10,-1
 27 536 l 1,11,-1
 173 536 l 1,12,-1
 184 454 l 1,13,-1
 188 454 l 1,14,15
 211 507 211 507 243.5 526.5 c 128,-1,16
 276 546 276 546 321 546 c 0,17,18
 388 546 388 546 425.5 499 c 128,-1,19
 463 452 463 452 463 349 c 2,20,-1
 463 113 l 2,21,22
 463 66 463 66 480 53.5 c 128,-1,23
 497 41 497 41 526 41 c 2,24,-1
 530 41 l 1,25,-1
 530 0 l 1,26,-1
 374 0 l 1,27,-1
 374 346 l 2,28,29
 374 411 374 411 355 447.5 c 128,-1,30
 336 484 336 484 288 484 c 0,31,32
 250 484 250 484 227.5 461 c 128,-1,33
 205 438 205 438 196 400.5 c 128,-1,34
 187 363 187 363 187 321 c 2,35,-1
 187 108 l 2,36,37
 187 64 187 64 206 52.5 c 128,-1,38
 225 41 225 41 253 41 c 2,39,-1
 258 41 l 1,40,-1
 258 0 l 1,41,-1
 22 0 l 1,0,-1
EndSplineSet
Validated: 1
Substitution2: "'smcp' Lowercase to Small Capitals lookup 38 subtable" n.sc
Substitution2: "'sups' Superscript lookup 22 subtable" uni207F
Substitution2: "'subs' Subscript lookup 21 subtable" uni2099
AlternateSubs2: "'aalt' Access All Alternates lookup 1 subtable" uni207F n.sc uni2099
EndChar

StartChar: o
Encoding: 338 111 82
Width: 498
GlyphClass: 2
Flags: W
AnchorPoint: "Anchor-3" 249 268 basechar 0
AnchorPoint: "Anchor-2" 479 536 basechar 0
AnchorPoint: "Anchor-1" 249 536 basechar 0
AnchorPoint: "Anchor-0" 249 0 basechar 0
LayerCount: 2
Fore
SplineSet
248 -10 m 0,0,1
 154 -10 154 -10 100 59 c 128,-1,2
 46 128 46 128 46 269 c 0,3,4
 46 409 46 409 97.5 477.5 c 128,-1,5
 149 546 149 546 251 546 c 0,6,7
 344 546 344 546 398 477.5 c 128,-1,8
 452 409 452 409 452 269 c 0,9,10
 452 128 452 128 400 59 c 128,-1,11
 348 -10 348 -10 248 -10 c 0,0,1
250 41 m 0,12,13
 311 41 311 41 336 99 c 128,-1,14
 361 157 361 157 361 269 c 256,15,16
 361 381 361 381 336 437.5 c 128,-1,17
 311 494 311 494 249 494 c 256,18,19
 187 494 187 494 162 437.5 c 128,-1,20
 137 381 137 381 137 269 c 256,21,22
 137 157 137 157 162.5 99 c 128,-1,23
 188 41 188 41 250 41 c 0,12,13
EndSplineSet
Validated: 1
Substitution2: "'smcp' Lowercase to Small Capitals lookup 38 subtable" o.sc
Substitution2: "Single Substitution lookup 32 subtable" ordmasculine
AlternateSubs2: "'aalt' Access All Alternates lookup 1 subtable" ordmasculine o.sc
EndChar

StartChar: p
Encoding: 339 112 83
Width: 529
GlyphClass: 2
Flags: W
AnchorPoint: "Anchor-2" 511 536 basechar 0
AnchorPoint: "Anchor-1" 265 536 basechar 0
AnchorPoint: "Anchor-0" 265 -237 basechar 0
LayerCount: 2
Fore
SplineSet
15 -237 m 5,0,-1
 15 -196 l 5,1,-1
 22 -196 l 6,2,3
 49 -196 49 -196 69.5 -183.5 c 132,-1,4
 90 -171 90 -171 90 -124 c 6,5,-1
 90 427 l 6,6,7
 90 471 90 471 70.5 483 c 132,-1,8
 51 495 51 495 23 495 c 6,9,-1
 12 495 l 5,10,-1
 12 536 l 5,11,-1
 165 536 l 5,12,-1
 175 450 l 5,13,-1
 178 450 l 5,14,15
 197 493 197 493 228 519.5 c 132,-1,16
 259 546 259 546 309 546 c 4,17,18
 393 546 393 546 438 479.5 c 132,-1,19
 483 413 483 413 483 269 c 4,20,21
 483 124 483 124 438 56.5 c 132,-1,22
 393 -11 393 -11 307 -11 c 4,23,24
 260 -11 260 -11 229 14 c 132,-1,25
 198 39 198 39 180 80 c 5,26,-1
 177 80 l 5,27,28
 180 28 180 28 180 -34 c 6,29,-1
 180 -129 l 6,30,31
 180 -173 180 -173 200.5 -184.5 c 132,-1,32
 221 -196 221 -196 247 -196 c 6,33,-1
 260 -196 l 5,34,-1
 260 -237 l 5,35,-1
 15 -237 l 5,0,-1
291 47 m 4,36,37
 345 47 345 47 368 105.5 c 132,-1,38
 391 164 391 164 391 272 c 4,39,40
 391 379 391 379 368 434 c 132,-1,41
 345 489 345 489 290 489 c 4,42,43
 226 489 226 489 203 432 c 132,-1,44
 180 375 180 375 180 271 c 4,45,46
 180 164 180 164 203 105.5 c 132,-1,47
 226 47 226 47 291 47 c 4,36,37
EndSplineSet
Validated: 1
Substitution2: "'smcp' Lowercase to Small Capitals lookup 38 subtable" p.sc
Substitution2: "'subs' Subscript lookup 21 subtable" uni209A
AlternateSubs2: "'aalt' Access All Alternates lookup 1 subtable" p.sc uni209A
EndChar

StartChar: q
Encoding: 340 113 84
Width: 529
GlyphClass: 2
Flags: W
AnchorPoint: "Anchor-2" 521 536 basechar 0
AnchorPoint: "Anchor-1" 265 536 basechar 0
AnchorPoint: "Anchor-0" 265 -237 basechar 0
LayerCount: 2
Fore
SplineSet
256 -237 m 1,0,-1
 256 -196 l 1,1,-1
 280 -196 l 2,2,3
 308 -196 308 -196 329 -183.5 c 128,-1,4
 350 -171 350 -171 350 -123 c 2,5,-1
 350 -38 l 2,6,7
 350 -18 350 -18 350 7 c 128,-1,8
 350 32 350 32 351 55 c 128,-1,9
 352 78 352 78 353 91 c 1,10,-1
 350 91 l 1,11,12
 330 45 330 45 299.5 17.5 c 128,-1,13
 269 -10 269 -10 217 -10 c 0,14,15
 134 -10 134 -10 89.5 56.5 c 128,-1,16
 45 123 45 123 45 267 c 0,17,18
 45 412 45 412 90.5 479 c 128,-1,19
 136 546 136 546 222 546 c 0,20,21
 270 546 270 546 301.5 521.5 c 128,-1,22
 333 497 333 497 352 458 c 1,23,-1
 356 458 l 1,24,-1
 372 536 l 1,25,-1
 514 536 l 1,26,-1
 514 495 l 1,27,-1
 507 495 l 2,28,29
 479 495 479 495 458.5 482.5 c 128,-1,30
 438 470 438 470 438 423 c 2,31,-1
 438 -127 l 2,32,33
 438 -172 438 -172 458.5 -184 c 128,-1,34
 479 -196 479 -196 508 -196 c 2,35,-1
 512 -196 l 1,36,-1
 512 -237 l 1,37,-1
 256 -237 l 1,0,-1
238 48 m 0,38,39
 297 48 297 48 323.5 101.5 c 128,-1,40
 350 155 350 155 350 267 c 0,41,42
 350 374 350 374 325.5 431 c 128,-1,43
 301 488 301 488 237 488 c 0,44,45
 183 488 183 488 160 433 c 128,-1,46
 137 378 137 378 137 266 c 0,47,48
 137 156 137 156 160.5 102 c 128,-1,49
 184 48 184 48 238 48 c 0,38,39
EndSplineSet
Validated: 1
Substitution2: "'smcp' Lowercase to Small Capitals lookup 38 subtable" q.sc
Substitution2: "'aalt' Access All Alternates lookup 0 subtable" q.sc
EndChar

StartChar: r
Encoding: 341 114 85
Width: 409
GlyphClass: 2
Flags: W
AnchorPoint: "Anchor-2" 399 536 basechar 0
AnchorPoint: "Anchor-1" 218 536 basechar 0
AnchorPoint: "Anchor-0" 145 0 basechar 0
LayerCount: 2
Fore
SplineSet
26 0 m 1,0,-1
 26 41 l 1,1,-1
 29 41 l 2,2,3
 58 41 58 41 78 53.5 c 128,-1,4
 98 66 98 66 98 113 c 2,5,-1
 98 427 l 2,6,7
 98 471 98 471 78 483 c 128,-1,8
 58 495 58 495 30 495 c 2,9,-1
 27 495 l 1,10,-1
 27 536 l 1,11,-1
 167 536 l 1,12,-1
 182 431 l 1,13,-1
 185 431 l 1,14,15
 197 462 197 462 212 488.5 c 128,-1,16
 227 515 227 515 250 530.5 c 128,-1,17
 273 546 273 546 309 546 c 0,18,19
 353 546 353 546 375 526 c 128,-1,20
 397 506 397 506 397 472 c 0,21,22
 397 441 397 441 377 422.5 c 128,-1,23
 357 404 357 404 313 404 c 1,24,25
 313 445 313 445 303.5 463.5 c 128,-1,26
 294 482 294 482 269 482 c 0,27,28
 247 482 247 482 232 462.5 c 128,-1,29
 217 443 217 443 207 411 c 128,-1,30
 197 379 197 379 192.5 342.5 c 128,-1,31
 188 306 188 306 188 273 c 2,32,-1
 188 108 l 2,33,34
 188 64 188 64 207.5 52.5 c 128,-1,35
 227 41 227 41 255 41 c 2,36,-1
 277 41 l 1,37,-1
 277 0 l 1,38,-1
 26 0 l 1,0,-1
EndSplineSet
Validated: 1
Substitution2: "'smcp' Lowercase to Small Capitals lookup 38 subtable" r.sc
Substitution2: "'aalt' Access All Alternates lookup 0 subtable" r.sc
EndChar

StartChar: s
Encoding: 342 115 86
Width: 388
GlyphClass: 2
Flags: W
AnchorPoint: "Anchor-2" 356 536 basechar 0
AnchorPoint: "Anchor-1" 195 536 basechar 0
AnchorPoint: "Anchor-0" 195 0 basechar 0
LayerCount: 2
Fore
SplineSet
184 -10 m 0,0,1
 115 -10 115 -10 75 16 c 128,-1,2
 35 42 35 42 35 95 c 0,3,4
 35 131 35 131 54 145 c 128,-1,5
 73 159 73 159 93 159 c 1,6,7
 93 106 93 106 115.5 70.5 c 128,-1,8
 138 35 138 35 187 35 c 0,9,10
 233 35 233 35 255.5 59.5 c 128,-1,11
 278 84 278 84 278 126 c 0,12,13
 278 163 278 163 257 185 c 128,-1,14
 236 207 236 207 180 236 c 0,15,16
 133 260 133 260 103.5 282.5 c 128,-1,17
 74 305 74 305 60 333.5 c 128,-1,18
 46 362 46 362 46 405 c 0,19,20
 46 472 46 472 89.5 508.5 c 128,-1,21
 133 545 133 545 204 545 c 0,22,23
 271 545 271 545 304 517.5 c 128,-1,24
 337 490 337 490 337 452 c 0,25,26
 337 426 337 426 321 410 c 128,-1,27
 305 394 305 394 276 394 c 1,28,29
 276 501 276 501 196 501 c 0,30,31
 157 501 157 501 138 479 c 128,-1,32
 119 457 119 457 119 422 c 0,33,34
 119 381 119 381 143 359.5 c 128,-1,35
 167 338 167 338 223 311 c 0,36,37
 290 279 290 279 321.5 243 c 128,-1,38
 353 207 353 207 353 144 c 0,39,40
 353 71 353 71 308 30.5 c 128,-1,41
 263 -10 263 -10 184 -10 c 0,0,1
EndSplineSet
Validated: 1
Substitution2: "'smcp' Lowercase to Small Capitals lookup 38 subtable" s.sc
Substitution2: "'subs' Subscript lookup 21 subtable" uni209B
AlternateSubs2: "'aalt' Access All Alternates lookup 1 subtable" s.sc uni209B
EndChar

StartChar: t
Encoding: 343 116 87
Width: 309
GlyphClass: 2
Flags: W
AnchorPoint: "Anchor-3" 155 268 basechar 0
AnchorPoint: "Anchor-2" 290 659 basechar 0
AnchorPoint: "Anchor-1" 139 659 basechar 0
AnchorPoint: "Anchor-0" 190 0 basechar 0
LayerCount: 2
Fore
SplineSet
203 -10 m 0,0,1
 141 -10 141 -10 111.5 24.5 c 128,-1,2
 82 59 82 59 82 145 c 2,3,-1
 82 487 l 1,4,-1
 16 487 l 1,5,-1
 16 520 l 1,6,7
 38 524 38 524 55.5 532.5 c 128,-1,8
 73 541 73 541 87 557 c 0,9,10
 100 573 100 573 109 595.5 c 128,-1,11
 118 618 118 618 124 659 c 1,12,-1
 170 659 l 1,13,-1
 170 536 l 1,14,-1
 282 536 l 1,15,-1
 282 487 l 1,16,-1
 170 487 l 1,17,-1
 170 143 l 2,18,19
 170 90 170 90 185.5 66.5 c 128,-1,20
 201 43 201 43 231 43 c 0,21,22
 248 43 248 43 262 45 c 128,-1,23
 276 47 276 47 290 51 c 1,24,-1
 290 5 l 1,25,26
 277 0 277 0 254 -5 c 128,-1,27
 231 -10 231 -10 203 -10 c 0,0,1
EndSplineSet
Validated: 1
Substitution2: "'smcp' Lowercase to Small Capitals lookup 38 subtable" t.sc
Substitution2: "'subs' Subscript lookup 21 subtable" uni209C
AlternateSubs2: "'aalt' Access All Alternates lookup 1 subtable" t.sc uni209C
EndChar

StartChar: u
Encoding: 344 117 88
Width: 548
GlyphClass: 2
Flags: W
AnchorPoint: "Anchor-2" 509 536 basechar 0
AnchorPoint: "Anchor-1" 274 536 basechar 0
AnchorPoint: "Anchor-0" 274 0 basechar 0
LayerCount: 2
Fore
SplineSet
232 -10 m 0,0,1
 161 -10 161 -10 125 36.5 c 128,-1,2
 89 83 89 83 89 186 c 2,3,-1
 89 427 l 2,4,5
 89 471 89 471 70 483 c 128,-1,6
 51 495 51 495 23 495 c 2,7,-1
 19 495 l 1,8,-1
 19 536 l 1,9,-1
 178 536 l 1,10,-1
 178 189 l 2,11,12
 178 122 178 122 196 87 c 128,-1,13
 214 52 214 52 264 52 c 0,14,15
 318 52 318 52 342 97 c 128,-1,16
 366 142 366 142 366 215 c 2,17,-1
 366 422 l 2,18,19
 366 470 366 470 347 482.5 c 128,-1,20
 328 495 328 495 300 495 c 2,21,-1
 297 495 l 1,22,-1
 297 536 l 1,23,-1
 455 536 l 1,24,-1
 455 109 l 2,25,26
 455 64 455 64 475 52.5 c 128,-1,27
 495 41 495 41 523 41 c 2,28,-1
 527 41 l 1,29,-1
 527 0 l 1,30,-1
 384 0 l 1,31,-1
 372 82 l 1,32,-1
 368 82 l 1,33,34
 343 28 343 28 309 9 c 128,-1,35
 275 -10 275 -10 232 -10 c 0,0,1
EndSplineSet
Validated: 1
Substitution2: "'smcp' Lowercase to Small Capitals lookup 38 subtable" u.sc
Substitution2: "'aalt' Access All Alternates lookup 0 subtable" u.sc
EndChar

StartChar: v
Encoding: 345 118 89
Width: 499
GlyphClass: 2
Flags: W
AnchorPoint: "Anchor-2" 492 536 basechar 0
AnchorPoint: "Anchor-1" 251 536 basechar 0
AnchorPoint: "Anchor-0" 251 0 basechar 0
LayerCount: 2
Fore
SplineSet
206 0 m 1,0,-1
 70 442 l 2,1,2
 60 474 60 474 45.5 484.5 c 128,-1,3
 31 495 31 495 5 495 c 1,4,-1
 5 536 l 1,5,-1
 223 536 l 1,6,-1
 223 495 l 1,7,-1
 211 495 l 2,8,9
 164 495 164 495 164 455 c 0,10,11
 164 443 164 443 166 431 c 128,-1,12
 168 419 168 419 172 406 c 2,13,-1
 228 220 l 2,14,15
 240 183 240 183 250.5 139.5 c 128,-1,16
 261 96 261 96 267 71 c 1,17,18
 272 91 272 91 283 128.5 c 128,-1,19
 294 166 294 166 307 208 c 2,20,-1
 363 389 l 2,21,22
 376 430 376 430 376 456 c 0,23,24
 376 495 376 495 326 495 c 2,25,-1
 318 495 l 1,26,-1
 318 536 l 1,27,-1
 496 536 l 1,28,-1
 496 495 l 1,29,-1
 485 495 l 2,30,31
 460 495 460 495 448.5 479.5 c 128,-1,32
 437 464 437 464 423 417 c 2,33,-1
 290 0 l 1,34,-1
 206 0 l 1,0,-1
EndSplineSet
Validated: 1
Substitution2: "'smcp' Lowercase to Small Capitals lookup 38 subtable" v.sc
Substitution2: "'aalt' Access All Alternates lookup 0 subtable" v.sc
EndChar

StartChar: w
Encoding: 346 119 90
Width: 735
GlyphClass: 2
Flags: W
AnchorPoint: "Anchor-2" 734 536 basechar 0
AnchorPoint: "Anchor-1" 367 536 basechar 0
AnchorPoint: "Anchor-0" 367 0 basechar 0
LayerCount: 2
Fore
SplineSet
177 0 m 1,0,-1
 65 442 l 2,1,2
 56 474 56 474 42 484.5 c 128,-1,3
 28 495 28 495 3 495 c 2,4,-1
 1 495 l 1,5,-1
 1 536 l 1,6,-1
 214 536 l 1,7,-1
 214 495 l 1,8,-1
 207 495 l 2,9,10
 181 495 181 495 168 486 c 128,-1,11
 155 477 155 477 155 453 c 0,12,13
 155 444 155 444 157.5 432.5 c 128,-1,14
 160 421 160 421 163 410 c 2,15,-1
 201 239 l 2,16,17
 206 215 206 215 212 185.5 c 128,-1,18
 218 156 218 156 223 129 c 128,-1,19
 228 102 228 102 230 86 c 1,20,-1
 233 86 l 1,21,22
 235 102 235 102 241 127 c 128,-1,23
 247 152 247 152 254 179.5 c 128,-1,24
 261 207 261 207 268 230 c 2,25,-1
 357 533 l 1,26,-1
 410 533 l 1,27,-1
 493 237 l 2,28,29
 500 215 500 215 507 186 c 128,-1,30
 514 157 514 157 520 129.5 c 128,-1,31
 526 102 526 102 529 85 c 1,32,-1
 531 85 l 1,33,34
 534 110 534 110 542 148 c 128,-1,35
 550 186 550 186 562 233 c 2,36,-1
 604 396 l 2,37,38
 607 408 607 408 609.5 422.5 c 128,-1,39
 612 437 612 437 612 446 c 0,40,41
 612 495 612 495 559 495 c 2,42,-1
 553 495 l 1,43,-1
 553 536 l 1,44,-1
 735 536 l 1,45,-1
 735 495 l 1,46,-1
 723 495 l 2,47,48
 699 495 699 495 686 481 c 128,-1,49
 673 467 673 467 660 417 c 2,50,-1
 550 0 l 1,51,-1
 477 0 l 1,52,-1
 364 424 l 1,53,-1
 247 0 l 1,54,-1
 177 0 l 1,0,-1
EndSplineSet
Validated: 1
Substitution2: "'smcp' Lowercase to Small Capitals lookup 38 subtable" w.sc
Substitution2: "'aalt' Access All Alternates lookup 0 subtable" w.sc
EndChar

StartChar: x
Encoding: 347 120 91
Width: 502
GlyphClass: 2
Flags: W
AnchorPoint: "Anchor-2" 482 536 basechar 0
AnchorPoint: "Anchor-1" 251 536 basechar 0
AnchorPoint: "Anchor-0" 251 0 basechar 0
LayerCount: 2
Fore
SplineSet
5 0 m 1,0,-1
 5 41 l 1,1,-1
 13 41 l 2,2,3
 43 41 43 41 61.5 54 c 128,-1,4
 80 67 80 67 106 105 c 2,5,-1
 212 271 l 1,6,-1
 106 442 l 2,7,8
 88 468 88 468 70.5 481.5 c 128,-1,9
 53 495 53 495 32 495 c 2,10,-1
 21 495 l 1,11,-1
 21 536 l 1,12,-1
 245 536 l 1,13,-1
 245 495 l 1,14,-1
 243 495 l 2,15,16
 214 495 214 495 205 486.5 c 128,-1,17
 196 478 196 478 196 466 c 0,18,19
 196 455 196 455 200.5 445 c 128,-1,20
 205 435 205 435 215 420 c 2,21,-1
 270 326 l 1,22,-1
 314 407 l 2,23,24
 324 425 324 425 330 439 c 128,-1,25
 336 453 336 453 336 466 c 0,26,27
 336 484 336 484 323 489.5 c 128,-1,28
 310 495 310 495 291 495 c 2,29,-1
 287 495 l 1,30,-1
 287 536 l 1,31,-1
 475 536 l 1,32,-1
 475 495 l 1,33,-1
 468 495 l 2,34,35
 443 495 443 495 425.5 483.5 c 128,-1,36
 408 472 408 472 382 431 c 2,37,-1
 295 291 l 1,38,-1
 419 94 l 2,39,40
 438 65 438 65 455 53 c 128,-1,41
 472 41 472 41 487 41 c 2,42,-1
 498 41 l 1,43,-1
 498 0 l 1,44,-1
 270 0 l 1,45,-1
 270 41 l 1,46,-1
 274 41 l 2,47,48
 325 41 325 41 325 74 c 0,49,50
 325 86 325 86 318.5 99 c 128,-1,51
 312 112 312 112 292 143 c 2,52,-1
 237 236 l 1,53,-1
 178 136 l 2,54,55
 169 120 169 120 162 104.5 c 128,-1,56
 155 89 155 89 155 73 c 256,57,58
 155 57 155 57 167.5 49 c 128,-1,59
 180 41 180 41 208 41 c 2,60,-1
 210 41 l 1,61,-1
 210 0 l 1,62,-1
 5 0 l 1,0,-1
EndSplineSet
Validated: 1
Substitution2: "'smcp' Lowercase to Small Capitals lookup 38 subtable" x.sc
Substitution2: "'aalt' Access All Alternates lookup 0 subtable" x.sc
EndChar

StartChar: y
Encoding: 348 121 92
Width: 484
GlyphClass: 2
Flags: W
AnchorPoint: "Anchor-2" 480 536 basechar 0
AnchorPoint: "Anchor-1" 242 536 basechar 0
AnchorPoint: "Anchor-0" 123 -237 basechar 0
LayerCount: 2
Fore
SplineSet
31 -237 m 1,0,-1
 31 -191 l 1,1,2
 87 -191 87 -191 123.5 -168 c 128,-1,3
 160 -145 160 -145 183 -102 c 128,-1,4
 206 -59 206 -59 222 -1 c 1,5,-1
 66 442 l 2,6,7
 54 474 54 474 42.5 484.5 c 128,-1,8
 31 495 31 495 6 495 c 2,9,-1
 3 495 l 1,10,-1
 3 536 l 1,11,-1
 214 536 l 1,12,-1
 214 495 l 1,13,-1
 211 495 l 2,14,15
 182 495 182 495 170.5 485 c 128,-1,16
 159 475 159 475 159 457 c 0,17,18
 159 446 159 446 162.5 431.5 c 128,-1,19
 166 417 166 417 172 399 c 2,20,-1
 228 232 l 2,21,22
 242 187 242 187 253 147.5 c 128,-1,23
 264 108 264 108 268 83 c 1,24,25
 274 111 274 111 282 141 c 128,-1,26
 290 171 290 171 300 206 c 2,27,-1
 355 403 l 2,28,29
 360 417 360 417 362.5 430 c 128,-1,30
 365 443 365 443 365 456 c 0,31,32
 365 477 365 477 351.5 485.5 c 128,-1,33
 338 494 338 494 311 495 c 2,34,-1
 308 495 l 1,35,-1
 308 536 l 1,36,-1
 485 536 l 1,37,-1
 485 495 l 1,38,-1
 482 495 l 2,39,40
 457 495 457 495 444 482 c 128,-1,41
 431 469 431 469 416 420 c 2,42,-1
 286 2 l 2,43,44
 264 -71 264 -71 244 -117.5 c 128,-1,45
 224 -164 224 -164 199 -190.5 c 128,-1,46
 174 -217 174 -217 136.5 -227 c 128,-1,47
 99 -237 99 -237 40 -237 c 2,48,-1
 31 -237 l 1,0,-1
EndSplineSet
Validated: 1
Substitution2: "'smcp' Lowercase to Small Capitals lookup 38 subtable" y.sc
Substitution2: "'aalt' Access All Alternates lookup 0 subtable" y.sc
EndChar

StartChar: z
Encoding: 349 122 93
Width: 439
GlyphClass: 2
Flags: W
AnchorPoint: "Anchor-2" 407 536 basechar 0
AnchorPoint: "Anchor-1" 220 536 basechar 0
AnchorPoint: "Anchor-0" 220 0 basechar 0
LayerCount: 2
Fore
SplineSet
33 0 m 1,0,-1
 33 40 l 1,1,-1
 285 487 l 1,2,-1
 159 487 l 2,3,4
 123 487 123 487 110 466.5 c 128,-1,5
 97 446 97 446 88 407 c 2,6,-1
 85 396 l 1,7,-1
 46 396 l 1,8,-1
 55 536 l 1,9,-1
 389 536 l 1,10,-1
 389 495 l 1,11,-1
 136 49 l 1,12,-1
 285 49 l 2,13,14
 318 49 318 49 331.5 71.5 c 128,-1,15
 345 94 345 94 352 134 c 2,16,-1
 357 161 l 1,17,-1
 395 161 l 1,18,-1
 391 0 l 1,19,-1
 33 0 l 1,0,-1
EndSplineSet
Validated: 1
Substitution2: "'smcp' Lowercase to Small Capitals lookup 38 subtable" z.sc
Substitution2: "'aalt' Access All Alternates lookup 0 subtable" z.sc
EndChar

StartChar: braceleft
Encoding: 350 123 94
Width: 367
Flags: W
LayerCount: 2
Fore
SplineSet
267 -128 m 2,0,1
 205 -128 205 -128 172.5 -89.5 c 128,-1,2
 140 -51 140 -51 140 16 c 2,3,-1
 140 189 l 2,4,5
 140 251 140 251 111 272.5 c 128,-1,6
 82 294 82 294 40 297 c 1,7,-1
 40 337 l 1,8,9
 82 339 82 339 111 360.5 c 128,-1,10
 140 382 140 382 140 443 c 2,11,-1
 140 617 l 2,12,13
 140 685 140 685 172.5 722.5 c 128,-1,14
 205 760 205 760 267 760 c 2,15,-1
 328 760 l 1,16,-1
 328 718 l 1,17,-1
 301 718 l 2,18,19
 264 718 264 718 248 691 c 128,-1,20
 232 664 232 664 232 612 c 2,21,-1
 232 441 l 2,22,23
 232 392 232 392 209 359 c 128,-1,24
 186 326 186 326 138 318 c 1,25,-1
 138 317 l 1,26,27
 186 308 186 308 209 275 c 128,-1,28
 232 242 232 242 232 192 c 2,29,-1
 232 19 l 2,30,31
 232 -32 232 -32 248 -59 c 128,-1,32
 264 -86 264 -86 301 -86 c 2,33,-1
 328 -86 l 1,34,-1
 328 -128 l 1,35,-1
 267 -128 l 2,0,1
EndSplineSet
Validated: 1
Substitution2: "'smcp' Lowercase to Small Capitals lookup 38 subtable" braceleft.sc
Substitution2: "'c2sc' Capitals to Small Capitals lookup 37 subtable" braceleft.sc
Substitution2: "'aalt' Access All Alternates lookup 0 subtable" braceleft.sc
EndChar

StartChar: bar
Encoding: 351 124 95
Width: 477
Flags: W
LayerCount: 2
Fore
SplineSet
211 -240 m 1,0,-1
 211 760 l 1,1,-1
 265 760 l 1,2,-1
 265 -240 l 1,3,-1
 211 -240 l 1,0,-1
EndSplineSet
Validated: 1
EndChar

StartChar: braceright
Encoding: 352 125 96
Width: 367
Flags: W
LayerCount: 2
Fore
SplineSet
40 -128 m 1,0,-1
 40 -86 l 1,1,-1
 67 -86 l 2,2,3
 105 -86 105 -86 120 -59 c 128,-1,4
 135 -32 135 -32 135 19 c 2,5,-1
 135 192 l 2,6,7
 135 242 135 242 158 275 c 128,-1,8
 181 308 181 308 230 317 c 1,9,-1
 230 318 l 1,10,11
 182 326 182 326 158.5 359 c 128,-1,12
 135 392 135 392 135 441 c 2,13,-1
 135 612 l 2,14,15
 135 664 135 664 120 691 c 128,-1,16
 105 718 105 718 67 718 c 2,17,-1
 40 718 l 1,18,-1
 40 760 l 1,19,-1
 101 760 l 2,20,21
 163 760 163 760 195 722.5 c 128,-1,22
 227 685 227 685 227 617 c 2,23,-1
 227 443 l 2,24,25
 227 382 227 382 256.5 360.5 c 128,-1,26
 286 339 286 339 328 337 c 1,27,-1
 328 297 l 1,28,29
 300 295 300 295 277 285.5 c 128,-1,30
 254 276 254 276 240.5 253.5 c 128,-1,31
 227 231 227 231 227 189 c 2,32,-1
 227 16 l 2,33,34
 227 -51 227 -51 195 -89.5 c 128,-1,35
 163 -128 163 -128 101 -128 c 2,36,-1
 40 -128 l 1,0,-1
EndSplineSet
Validated: 1
Substitution2: "'smcp' Lowercase to Small Capitals lookup 38 subtable" braceright.sc
Substitution2: "'c2sc' Capitals to Small Capitals lookup 37 subtable" braceright.sc
Substitution2: "'aalt' Access All Alternates lookup 0 subtable" braceright.sc
EndChar

StartChar: asciitilde
Encoding: 353 126 97
Width: 465
Flags: W
LayerCount: 2
Fore
SplineSet
37 270 m 1,0,1
 40 311 40 311 50 351 c 128,-1,2
 60 391 60 391 82 417.5 c 128,-1,3
 104 444 104 444 145 444 c 0,4,5
 175 444 175 444 198.5 426.5 c 128,-1,6
 222 409 222 409 252 378 c 0,7,8
 274 355 274 355 289 340.5 c 128,-1,9
 304 326 304 326 322 326 c 0,10,11
 346 326 346 326 357.5 355.5 c 128,-1,12
 369 385 369 385 374 444 c 1,13,-1
 430 444 l 1,14,15
 426 405 426 405 416.5 364.5 c 128,-1,16
 407 324 407 324 385 297 c 128,-1,17
 363 270 363 270 324 270 c 0,18,19
 298 270 298 270 274.5 283 c 128,-1,20
 251 296 251 296 218 334 c 0,21,22
 196 359 196 359 180.5 373.5 c 128,-1,23
 165 388 165 388 147 388 c 0,24,25
 122 388 122 388 109.5 359 c 128,-1,26
 97 330 97 330 92 270 c 1,27,-1
 37 270 l 1,0,1
EndSplineSet
Validated: 1
EndChar

StartChar: cent
Encoding: 356 162 100
Width: 477
Flags: W
LayerCount: 2
Fore
SplineSet
244 0 m 1,0,-1
 244 88 l 1,1,2
 190 95 190 95 149.5 124 c 128,-1,3
 109 153 109 153 86.5 211 c 128,-1,4
 64 269 64 269 64 361 c 0,5,6
 64 460 64 460 87.5 519.5 c 128,-1,7
 111 579 111 579 152 607.5 c 128,-1,8
 193 636 193 636 244 641 c 1,9,-1
 244 714 l 1,10,-1
 287 714 l 1,11,-1
 287 641 l 1,12,13
 346 637 346 637 386.5 611.5 c 128,-1,14
 427 586 427 586 427 541 c 0,15,16
 427 510 427 510 409 494.5 c 128,-1,17
 391 479 391 479 348 479 c 1,18,19
 348 520 348 520 334 551.5 c 128,-1,20
 320 583 320 583 287 590 c 1,21,-1
 287 143 l 1,22,23
 329 143 329 143 360 167.5 c 128,-1,24
 391 192 391 192 406 223 c 1,25,26
 422 210 422 210 422 184 c 0,27,28
 422 150 422 150 389 120.5 c 128,-1,29
 356 91 356 91 287 86 c 1,30,-1
 287 0 l 1,31,-1
 244 0 l 1,0,-1
244 148 m 1,32,-1
 244 590 l 1,33,34
 217 585 217 585 197 561.5 c 128,-1,35
 177 538 177 538 166 490 c 128,-1,36
 155 442 155 442 155 362 c 0,37,38
 155 272 155 272 176.5 217.5 c 128,-1,39
 198 163 198 163 244 148 c 1,32,-1
EndSplineSet
Validated: 1
EndChar

StartChar: sterling
Encoding: 357 163 101
Width: 477
Flags: W
LayerCount: 2
Fore
SplineSet
347 -10 m 0,0,1
 318 -10 318 -10 295 -2 c 128,-1,2
 272 6 272 6 250 14 c 0,3,4
 229 23 229 23 209.5 29 c 128,-1,5
 190 35 190 35 165 35 c 0,6,7
 138 35 138 35 115 26.5 c 128,-1,8
 92 18 92 18 68 5 c 2,9,-1
 54 -3 l 1,10,-1
 54 45 l 1,11,-1
 72 59 l 2,12,13
 100 78 100 78 126.5 119 c 128,-1,14
 153 160 153 160 153 219 c 0,15,16
 153 249 153 249 147 278 c 128,-1,17
 141 307 141 307 133 334 c 1,18,-1
 39 334 l 1,19,-1
 39 379 l 1,20,-1
 117 379 l 1,21,22
 106 413 106 413 96 456 c 128,-1,23
 86 499 86 499 86 541 c 0,24,25
 86 626 86 626 133 675 c 128,-1,26
 180 724 180 724 262 724 c 256,27,28
 344 724 344 724 381 692 c 128,-1,29
 418 660 418 660 418 612 c 0,30,31
 418 549 418 549 343 549 c 1,32,33
 343 581 343 581 336.5 609.5 c 128,-1,34
 330 638 330 638 312 656.5 c 128,-1,35
 294 675 294 675 259 675 c 0,36,37
 213 675 213 675 191 641 c 128,-1,38
 169 607 169 607 169 545 c 0,39,40
 169 498 169 498 180 453.5 c 128,-1,41
 191 409 191 409 201 379 c 1,42,-1
 346 379 l 1,43,-1
 346 334 l 1,44,-1
 214 334 l 1,45,46
 221 309 221 309 225.5 285 c 128,-1,47
 230 261 230 261 230 232 c 0,48,49
 230 192 230 192 208.5 154 c 128,-1,50
 187 116 187 116 153 88 c 1,51,-1
 154 84 l 1,52,53
 172 96 172 96 188 100.5 c 128,-1,54
 204 105 204 105 217 105 c 0,55,56
 235 105 235 105 256.5 98 c 128,-1,57
 278 91 278 91 297 85 c 0,58,59
 315 79 315 79 334 72.5 c 128,-1,60
 353 66 353 66 370 66 c 0,61,62
 395 66 395 66 417 81.5 c 128,-1,63
 439 97 439 97 454 119 c 1,64,-1
 454 59 l 1,65,66
 439 38 439 38 412 14 c 128,-1,67
 385 -10 385 -10 347 -10 c 0,0,1
EndSplineSet
Validated: 1
EndChar

StartChar: currency
Encoding: 358 164 102
Width: 477
Flags: W
LayerCount: 2
Fore
SplineSet
92 143 m 1,0,-1
 55 184 l 1,1,-1
 109 250 l 1,2,3
 81 298 81 298 81 358 c 0,4,5
 81 419 81 419 110 465 c 1,6,-1
 55 532 l 1,7,-1
 92 573 l 1,8,-1
 147 507 l 1,9,10
 166 524 166 524 189 533 c 128,-1,11
 212 542 212 542 238 542 c 0,12,13
 263 542 263 542 285.5 533 c 128,-1,14
 308 524 308 524 328 507 c 1,15,-1
 384 574 l 1,16,-1
 421 532 l 1,17,-1
 366 466 l 1,18,19
 380 443 380 443 387.5 416 c 128,-1,20
 395 389 395 389 395 358 c 0,21,22
 395 328 395 328 387.5 300.5 c 128,-1,23
 380 273 380 273 366 250 c 1,24,-1
 421 184 l 1,25,-1
 384 143 l 1,26,-1
 329 210 l 1,27,28
 309 193 309 193 286 184 c 128,-1,29
 263 175 263 175 238 175 c 0,30,31
 186 175 186 175 148 209 c 1,32,-1
 92 143 l 1,0,-1
238 229 m 256,33,34
 268 229 268 229 292.5 246.5 c 128,-1,35
 317 264 317 264 331 293.5 c 128,-1,36
 345 323 345 323 345 358 c 0,37,38
 345 413 345 413 314 450.5 c 128,-1,39
 283 488 283 488 238 488 c 0,40,41
 208 488 208 488 184 470.5 c 128,-1,42
 160 453 160 453 145.5 423.5 c 128,-1,43
 131 394 131 394 131 358 c 0,44,45
 131 323 131 323 145.5 293.5 c 128,-1,46
 160 264 160 264 184 246.5 c 128,-1,47
 208 229 208 229 238 229 c 256,33,34
EndSplineSet
Validated: 1
EndChar

StartChar: yen
Encoding: 359 165 103
Width: 477
Flags: W
LayerCount: 2
Fore
SplineSet
111 0 m 1,0,-1
 111 41 l 1,1,-1
 130 41 l 2,2,3
 159 41 159 41 177 55 c 128,-1,4
 195 69 195 69 196 111 c 2,5,-1
 196 177 l 1,6,-1
 77 177 l 1,7,-1
 77 223 l 1,8,-1
 196 223 l 1,9,-1
 196 295 l 1,10,-1
 77 295 l 1,11,-1
 77 341 l 1,12,-1
 180 341 l 1,13,-1
 65 620 l 2,14,15
 53 649 53 649 41.5 661 c 128,-1,16
 30 673 30 673 7 673 c 2,17,-1
 4 673 l 1,18,-1
 4 714 l 1,19,-1
 215 714 l 1,20,-1
 215 673 l 1,21,-1
 210 673 l 2,22,23
 185 673 185 673 172.5 665 c 128,-1,24
 160 657 160 657 160 637 c 0,25,26
 160 625 160 625 165 608.5 c 128,-1,27
 170 592 170 592 176 575 c 2,28,-1
 217 467 l 2,29,30
 229 435 229 435 240 400.5 c 128,-1,31
 251 366 251 366 256 345 c 1,32,33
 260 360 260 360 269.5 384 c 128,-1,34
 279 408 279 408 288 429 c 2,35,-1
 336 551 l 2,36,37
 345 574 345 574 352 597.5 c 128,-1,38
 359 621 359 621 359 636 c 0,39,40
 359 673 359 673 308 673 c 2,41,-1
 305 673 l 1,42,-1
 305 714 l 1,43,-1
 472 714 l 1,44,-1
 472 673 l 1,45,-1
 466 673 l 2,46,47
 445 673 445 673 434 657.5 c 128,-1,48
 423 642 423 642 404 596 c 2,49,-1
 298 341 l 1,50,-1
 407 341 l 1,51,-1
 407 295 l 1,52,-1
 287 295 l 1,53,-1
 287 223 l 1,54,-1
 407 223 l 1,55,-1
 407 177 l 1,56,-1
 287 177 l 1,57,-1
 287 115 l 2,58,59
 287 70 287 70 305.5 55.5 c 128,-1,60
 324 41 324 41 353 41 c 2,61,-1
 372 41 l 1,62,-1
 372 0 l 1,63,-1
 111 0 l 1,0,-1
EndSplineSet
Validated: 1
EndChar

StartChar: brokenbar
Encoding: 360 166 104
Width: 477
Flags: W
LayerCount: 2
Fore
SplineSet
211 360 m 1,0,-1
 211 760 l 1,1,-1
 265 760 l 1,2,-1
 265 360 l 1,3,-1
 211 360 l 1,0,-1
211 -240 m 1,4,-1
 211 160 l 1,5,-1
 265 160 l 1,6,-1
 265 -240 l 1,7,-1
 211 -240 l 1,4,-1
EndSplineSet
Validated: 1
EndChar

StartChar: section
Encoding: 361 167 105
Width: 465
Flags: W
LayerCount: 2
Fore
SplineSet
236 -114 m 0,0,1
 158 -114 158 -114 119.5 -83 c 128,-1,2
 81 -52 81 -52 81 1 c 0,3,4
 81 42 81 42 100.5 56 c 128,-1,5
 120 70 120 70 138 70 c 1,6,7
 138 36 138 36 149 4 c 128,-1,8
 160 -28 160 -28 183 -48 c 128,-1,9
 206 -68 206 -68 243 -68 c 0,10,11
 291 -68 291 -68 316 -38 c 128,-1,12
 341 -8 341 -8 341 38 c 0,13,14
 341 65 341 65 331.5 88 c 128,-1,15
 322 111 322 111 292 137 c 128,-1,16
 262 163 262 163 199 200 c 0,17,18
 150 230 150 230 120 257 c 128,-1,19
 90 284 90 284 77 313.5 c 128,-1,20
 64 343 64 343 64 382 c 0,21,22
 64 419 64 419 78.5 447 c 128,-1,23
 93 475 93 475 115 493 c 1,24,25
 100 515 100 515 91.5 540.5 c 128,-1,26
 83 566 83 566 83 601 c 0,27,28
 83 677 83 677 128 718.5 c 128,-1,29
 173 760 173 760 243 760 c 256,30,31
 313 760 313 760 348 729.5 c 128,-1,32
 383 699 383 699 383 659 c 0,33,34
 383 600 383 600 322 600 c 1,35,36
 322 643 322 643 303 678 c 128,-1,37
 284 713 284 713 239 713 c 0,38,39
 197 713 197 713 172.5 686.5 c 128,-1,40
 148 660 148 660 148 613 c 0,41,42
 148 578 148 578 161.5 555 c 128,-1,43
 175 532 175 532 201.5 513.5 c 128,-1,44
 228 495 228 495 268 473 c 0,45,46
 347 428 347 428 383.5 388 c 128,-1,47
 420 348 420 348 420 291 c 0,48,49
 420 252 420 252 405 219.5 c 128,-1,50
 390 187 390 187 370 163 c 1,51,52
 383 144 383 144 391 120.5 c 128,-1,53
 399 97 399 97 399 61 c 0,54,55
 399 12 399 12 380.5 -27.5 c 128,-1,56
 362 -67 362 -67 325.5 -90.5 c 128,-1,57
 289 -114 289 -114 236 -114 c 0,0,1
342 192 m 1,58,59
 347 204 347 204 351.5 222.5 c 128,-1,60
 356 241 356 241 356 261 c 0,61,62
 356 284 356 284 348 304.5 c 128,-1,63
 340 325 340 325 316.5 347 c 128,-1,64
 293 369 293 369 248 395 c 0,65,66
 218 413 218 413 191 430 c 128,-1,67
 164 447 164 447 143 466 c 1,68,69
 135 456 135 456 128.5 440.5 c 128,-1,70
 122 425 122 425 122 402 c 0,71,72
 122 375 122 375 133 354.5 c 128,-1,73
 144 334 144 334 171 313 c 128,-1,74
 198 292 198 292 247 263 c 0,75,76
 278 243 278 243 302.5 224.5 c 128,-1,77
 327 206 327 206 342 192 c 1,58,59
EndSplineSet
Validated: 1
EndChar

StartChar: dieresis
Encoding: 362 168 106
Width: 493
Flags: W
LayerCount: 2
Fore
SplineSet
325 638 m 0,0,1
 306 638 306 638 293 649.5 c 128,-1,2
 280 661 280 661 280 691 c 256,3,4
 280 721 280 721 293 733 c 128,-1,5
 306 745 306 745 325 745 c 0,6,7
 343 745 343 745 356.5 733 c 128,-1,8
 370 721 370 721 370 691 c 256,9,10
 370 661 370 661 356.5 649.5 c 128,-1,11
 343 638 343 638 325 638 c 0,0,1
167 638 m 256,12,13
 149 638 149 638 136 649.5 c 128,-1,14
 123 661 123 661 123 691 c 256,15,16
 123 721 123 721 136 733 c 128,-1,17
 149 745 149 745 167 745 c 256,18,19
 185 745 185 745 199 733 c 128,-1,20
 213 721 213 721 213 691 c 256,21,22
 213 661 213 661 199 649.5 c 128,-1,23
 185 638 185 638 167 638 c 256,12,13
EndSplineSet
Validated: 1
EndChar

StartChar: copyright
Encoding: 363 169 107
Width: 722
Flags: W
LayerCount: 2
Fore
SplineSet
361 -10 m 256,0,1
 264 -10 264 -10 193.5 38.5 c 128,-1,2
 123 87 123 87 85 170.5 c 128,-1,3
 47 254 47 254 47 358 c 0,4,5
 47 463 47 463 85.5 546 c 128,-1,6
 124 629 124 629 194.5 677 c 128,-1,7
 265 725 265 725 362 725 c 256,8,9
 459 725 459 725 529 677 c 128,-1,10
 599 629 599 629 637 546 c 128,-1,11
 675 463 675 463 675 358 c 0,12,13
 675 252 675 252 637 169 c 128,-1,14
 599 86 599 86 528.5 38 c 128,-1,15
 458 -10 458 -10 361 -10 c 256,0,1
364 37 m 0,16,17
 445 37 445 37 504 78 c 128,-1,18
 563 119 563 119 594.5 191.5 c 128,-1,19
 626 264 626 264 626 358 c 256,20,21
 626 452 626 452 594 524.5 c 128,-1,22
 562 597 562 597 503 637.5 c 128,-1,23
 444 678 444 678 362 678 c 256,24,25
 280 678 280 678 220 637 c 128,-1,26
 160 596 160 596 128 524 c 128,-1,27
 96 452 96 452 96 358 c 0,28,29
 96 263 96 263 129 190.5 c 128,-1,30
 162 118 162 118 222 77.5 c 128,-1,31
 282 37 282 37 364 37 c 0,16,17
367 114 m 0,32,33
 282 114 282 114 234.5 178.5 c 128,-1,34
 187 243 187 243 187 362 c 0,35,36
 187 473 187 473 233.5 536.5 c 128,-1,37
 280 600 280 600 373 600 c 0,38,39
 442 600 442 600 474 570.5 c 128,-1,40
 506 541 506 541 506 507 c 0,41,42
 506 484 506 484 492.5 472 c 128,-1,43
 479 460 479 460 460 460 c 1,44,45
 460 485 460 485 452.5 508.5 c 128,-1,46
 445 532 445 532 426 546.5 c 128,-1,47
 407 561 407 561 373 561 c 0,48,49
 305 561 305 561 275.5 508.5 c 128,-1,50
 246 456 246 456 246 364 c 0,51,52
 246 262 246 262 279.5 208 c 128,-1,53
 313 154 313 154 373 154 c 0,54,55
 417 154 417 154 443 178.5 c 128,-1,56
 469 203 469 203 482 237 c 1,57,58
 502 228 502 228 502 208 c 0,59,60
 502 187 502 187 487 165.5 c 128,-1,61
 472 144 472 144 442 129 c 128,-1,62
 412 114 412 114 367 114 c 0,32,33
EndSplineSet
Validated: 1
EndChar

StartChar: ordfeminine
Encoding: 364 170 108
Width: 332
GlyphClass: 2
Flags: W
AnchorPoint: "Anchor-1" 167 719 basechar 0
AnchorPoint: "Anchor-0" 161 386 basechar 0
LayerCount: 2
Fore
SplineSet
117 380 m 0,0,1
 76 380 76 380 52.5 405.5 c 128,-1,2
 29 431 29 431 29 477 c 0,3,4
 29 528 29 528 62.5 552 c 128,-1,5
 96 576 96 576 166 580 c 2,6,-1
 208 582 l 1,7,-1
 208 614 l 2,8,9
 208 645 208 645 198.5 665.5 c 128,-1,10
 189 686 189 686 160 686 c 0,11,12
 130 686 130 686 122 664.5 c 128,-1,13
 114 643 114 643 114 615 c 1,14,15
 83 615 83 615 67.5 623.5 c 128,-1,16
 52 632 52 632 52 653 c 0,17,18
 52 685 52 685 83 702 c 128,-1,19
 114 719 114 719 164 719 c 0,20,21
 220 719 220 719 248.5 694.5 c 128,-1,22
 277 670 277 670 277 610 c 2,23,-1
 277 458 l 2,24,25
 277 436 277 436 285 427.5 c 128,-1,26
 293 419 293 419 314 419 c 1,27,-1
 314 386 l 1,28,-1
 231 386 l 1,29,-1
 217 437 l 1,30,-1
 213 437 l 1,31,32
 198 413 198 413 174.5 396.5 c 128,-1,33
 151 380 151 380 117 380 c 0,0,1
144 422 m 0,34,35
 173 422 173 422 190.5 444.5 c 128,-1,36
 208 467 208 467 208 506 c 2,37,-1
 208 554 l 1,38,-1
 178 553 l 2,39,40
 133 551 133 551 117 532 c 128,-1,41
 101 513 101 513 101 478 c 0,42,43
 101 446 101 446 113 434 c 128,-1,44
 125 422 125 422 144 422 c 0,34,35
EndSplineSet
Validated: 1
EndChar

StartChar: guillemotleft
Encoding: 365 171 109
Width: 444
Flags: W
LayerCount: 2
Fore
SplineSet
335 81 m 1,0,-1
 203 255 l 1,1,-1
 203 285 l 1,2,-1
 335 459 l 1,3,-1
 376 459 l 1,4,-1
 287 270 l 1,5,-1
 376 81 l 1,6,-1
 335 81 l 1,0,-1
199 81 m 1,7,-1
 69 255 l 1,8,-1
 69 285 l 1,9,-1
 199 459 l 1,10,-1
 241 459 l 1,11,-1
 152 270 l 1,12,-1
 241 81 l 1,13,-1
 199 81 l 1,7,-1
EndSplineSet
Validated: 1
EndChar

StartChar: logicalnot
Encoding: 366 172 110
Width: 465
Flags: W
LayerCount: 2
Fore
SplineSet
358 121 m 1,0,-1
 358 329 l 1,1,-1
 50 329 l 1,2,-1
 50 386 l 1,3,-1
 416 386 l 1,4,-1
 416 121 l 1,5,-1
 358 121 l 1,0,-1
EndSplineSet
Validated: 1
EndChar

StartChar: registered
Encoding: 368 174 112
Width: 722
Flags: W
LayerCount: 2
Fore
SplineSet
361 -10 m 256,0,1
 264 -10 264 -10 193.5 38.5 c 128,-1,2
 123 87 123 87 85 170.5 c 128,-1,3
 47 254 47 254 47 358 c 0,4,5
 47 463 47 463 85.5 546 c 128,-1,6
 124 629 124 629 194.5 677 c 128,-1,7
 265 725 265 725 362 725 c 256,8,9
 459 725 459 725 529 677 c 128,-1,10
 599 629 599 629 637 546 c 128,-1,11
 675 463 675 463 675 358 c 0,12,13
 675 252 675 252 637 169 c 128,-1,14
 599 86 599 86 528.5 38 c 128,-1,15
 458 -10 458 -10 361 -10 c 256,0,1
364 37 m 0,16,17
 445 37 445 37 504 78 c 128,-1,18
 563 119 563 119 594.5 191.5 c 128,-1,19
 626 264 626 264 626 358 c 256,20,21
 626 452 626 452 594 524.5 c 128,-1,22
 562 597 562 597 503 637.5 c 128,-1,23
 444 678 444 678 362 678 c 256,24,25
 280 678 280 678 220 637 c 128,-1,26
 160 596 160 596 128 524 c 128,-1,27
 96 452 96 452 96 358 c 0,28,29
 96 263 96 263 129 190.5 c 128,-1,30
 162 118 162 118 222 77.5 c 128,-1,31
 282 37 282 37 364 37 c 0,16,17
204 141 m 1,32,-1
 204 172 l 1,33,-1
 215 172 l 2,34,35
 231 172 231 172 243.5 178 c 128,-1,36
 256 184 256 184 256 207 c 2,37,-1
 256 506 l 2,38,39
 256 529 256 529 243.5 535 c 128,-1,40
 231 541 231 541 215 541 c 2,41,-1
 204 541 l 1,42,-1
 204 573 l 1,43,-1
 352 573 l 2,44,45
 499 573 499 573 499 455 c 0,46,47
 499 406 499 406 475 380.5 c 128,-1,48
 451 355 451 355 421 344 c 1,49,-1
 497 199 l 2,50,51
 506 182 506 182 514.5 177 c 128,-1,52
 523 172 523 172 545 172 c 1,53,-1
 545 141 l 1,54,-1
 460 141 l 1,55,-1
 366 330 l 1,56,-1
 315 330 l 1,57,-1
 315 207 l 2,58,59
 315 184 315 184 327.5 178 c 128,-1,60
 340 172 340 172 357 172 c 2,61,-1
 369 172 l 1,62,-1
 369 141 l 1,63,-1
 204 141 l 1,32,-1
315 367 m 1,64,-1
 351 367 l 2,65,66
 401 367 401 367 419.5 387.5 c 128,-1,67
 438 408 438 408 438 452 c 0,68,69
 438 499 438 499 417.5 517.5 c 128,-1,70
 397 536 397 536 349 536 c 2,71,-1
 315 536 l 1,72,-1
 315 367 l 1,64,-1
EndSplineSet
Validated: 1
EndChar

StartChar: overscore
Encoding: 369 175 113
Width: 391
Flags: W
LayerCount: 2
Fore
SplineSet
-4 760 m 1,0,-1
 -4 819 l 1,1,-1
 395 819 l 1,2,-1
 395 760 l 1,3,-1
 -4 760 l 1,0,-1
EndSplineSet
Validated: 1
Substitution2: "'smcp' Lowercase to Small Capitals lookup 38 subtable" overscore.sc
Substitution2: "'c2sc' Capitals to Small Capitals lookup 37 subtable" overscore.sc
Substitution2: "'aalt' Access All Alternates lookup 0 subtable" overscore.sc
EndChar

StartChar: degree
Encoding: 370 176 114
Width: 341
Flags: W
LayerCount: 2
Fore
SplineSet
170 431 m 0,0,1
 110 431 110 431 76 472.5 c 128,-1,2
 42 514 42 514 42 579 c 0,3,4
 42 645 42 645 76 687 c 128,-1,5
 110 729 110 729 170 729 c 0,6,7
 229 729 229 729 264 687 c 128,-1,8
 299 645 299 645 299 579 c 0,9,10
 299 514 299 514 264 472.5 c 128,-1,11
 229 431 229 431 170 431 c 0,0,1
171 475 m 0,12,13
 210 475 210 475 231 504.5 c 128,-1,14
 252 534 252 534 252 580 c 0,15,16
 252 628 252 628 230.5 656.5 c 128,-1,17
 209 685 209 685 171 685 c 0,18,19
 132 685 132 685 111 656.5 c 128,-1,20
 90 628 90 628 90 580 c 0,21,22
 90 534 90 534 110.5 504.5 c 128,-1,23
 131 475 131 475 171 475 c 0,12,13
EndSplineSet
Validated: 1
EndChar

StartChar: plusminus
Encoding: 371 177 115
Width: 465
Flags: W
LayerCount: 2
Fore
SplineSet
202 143 m 1,0,-1
 202 329 l 1,1,-1
 50 329 l 1,2,-1
 50 386 l 1,3,-1
 202 386 l 1,4,-1
 202 572 l 1,5,-1
 261 572 l 1,6,-1
 261 386 l 1,7,-1
 416 386 l 1,8,-1
 416 329 l 1,9,-1
 261 329 l 1,10,-1
 261 143 l 1,11,-1
 202 143 l 1,0,-1
50 0 m 1,12,-1
 50 58 l 1,13,-1
 416 58 l 1,14,-1
 416 0 l 1,15,-1
 50 0 l 1,12,-1
EndSplineSet
Validated: 1
EndChar

StartChar: uni00B2
Encoding: 372 178 116
Width: 339
Flags: W
LayerCount: 2
Fore
SplineSet
33 387 m 1,0,-1
 33 431 l 1,1,-1
 139 547 l 2,2,3
 176 588 176 588 194.5 625.5 c 128,-1,4
 213 663 213 663 213 710 c 0,5,6
 213 745 213 745 199.5 767 c 128,-1,7
 186 789 186 789 158 789 c 0,8,9
 126 789 126 789 112.5 765 c 128,-1,10
 99 741 99 741 99 699 c 1,11,12
 40 699 40 699 40 740 c 0,13,14
 40 775 40 775 70.5 799.5 c 128,-1,15
 101 824 101 824 162 824 c 256,16,17
 223 824 223 824 255.5 795 c 128,-1,18
 288 766 288 766 288 712 c 0,19,20
 288 678 288 678 276.5 651 c 128,-1,21
 265 624 265 624 241 596 c 128,-1,22
 217 568 217 568 178 532 c 2,23,-1
 95 447 l 1,24,-1
 232 447 l 2,25,26
 252 447 252 447 259.5 459 c 128,-1,27
 267 471 267 471 269 488 c 2,28,-1
 273 509 l 1,29,-1
 299 509 l 1,30,-1
 296 387 l 1,31,-1
 33 387 l 1,0,-1
EndSplineSet
Validated: 1
EndChar

StartChar: uni00B3
Encoding: 373 179 117
Width: 339
Flags: W
LayerCount: 2
Fore
SplineSet
152 380 m 256,0,1
 90 380 90 380 60 402.5 c 128,-1,2
 30 425 30 425 30 462 c 0,3,4
 30 485 30 485 42 497 c 128,-1,5
 54 509 54 509 74 509 c 1,6,7
 74 475 74 475 90.5 447.5 c 128,-1,8
 107 420 107 420 148 420 c 0,9,10
 182 420 182 420 203.5 440.5 c 128,-1,11
 225 461 225 461 225 510 c 0,12,13
 225 548 225 548 202.5 569.5 c 128,-1,14
 180 591 180 591 132 591 c 2,15,-1
 104 591 l 1,16,-1
 104 629 l 1,17,-1
 134 629 l 2,18,19
 170 629 170 629 191 653 c 128,-1,20
 212 677 212 677 212 717 c 0,21,22
 212 788 212 788 156 788 c 0,23,24
 119 788 119 788 107 761.5 c 128,-1,25
 95 735 95 735 95 697 c 1,26,27
 68 697 68 697 53 706 c 128,-1,28
 38 715 38 715 38 739 c 0,29,30
 38 772 38 772 68.5 797.5 c 128,-1,31
 99 823 99 823 161 823 c 0,32,33
 222 823 222 823 255 796.5 c 128,-1,34
 288 770 288 770 288 724 c 0,35,36
 288 680 288 680 262 653.5 c 128,-1,37
 236 627 236 627 202 616 c 1,38,-1
 202 612 l 1,39,40
 225 608 225 608 248 597.5 c 128,-1,41
 271 587 271 587 286.5 566 c 128,-1,42
 302 545 302 545 302 509 c 0,43,44
 302 443 302 443 258 411.5 c 128,-1,45
 214 380 214 380 152 380 c 256,0,1
EndSplineSet
Validated: 1
EndChar

StartChar: acute
Encoding: 374 180 118
Width: 258
Flags: W
LayerCount: 2
Fore
SplineSet
40 606 m 1,0,-1
 40 619 l 1,1,2
 61 654 61 654 83.5 693 c 128,-1,3
 106 732 106 732 119 766 c 1,4,-1
 218 766 l 1,5,-1
 218 756 l 1,6,7
 207 739 207 739 183 711 c 128,-1,8
 159 683 159 683 130 654.5 c 128,-1,9
 101 626 101 626 76 606 c 1,10,-1
 40 606 l 1,0,-1
EndSplineSet
Validated: 1
EndChar

StartChar: uni00B5
Encoding: 375 181 119
Width: 532
Flags: W
AnchorPoint: "Anchor-0" 264 -200 basechar 0
AnchorPoint: "Anchor-1" 264 536 basechar 0
LayerCount: 2
Fore
SplineSet
144 -240 m 0,0,1
 116 -240 116 -240 94.5 -214.5 c 128,-1,2
 73 -189 73 -189 73 -122 c 0,3,4
 73 -62 73 -62 77.5 19 c 128,-1,5
 82 100 82 100 83 225 c 2,6,-1
 83 536 l 1,7,-1
 172 536 l 1,8,-1
 172 190 l 2,9,10
 172 125 172 125 191 89 c 128,-1,11
 210 53 210 53 254 53 c 0,12,13
 299 53 299 53 325.5 97.5 c 128,-1,14
 352 142 352 142 352 215 c 2,15,-1
 352 536 l 1,16,-1
 441 536 l 1,17,-1
 441 122 l 2,18,19
 441 78 441 78 456 59.5 c 128,-1,20
 471 41 471 41 498 41 c 2,21,-1
 503 41 l 1,22,-1
 503 0 l 1,23,-1
 455 0 l 2,24,25
 418 0 418 0 392.5 23.5 c 128,-1,26
 367 47 367 47 360 91 c 1,27,-1
 356 91 l 1,28,29
 337 48 337 48 308.5 19 c 128,-1,30
 280 -10 280 -10 235 -10 c 0,31,32
 161 -10 161 -10 127 55 c 1,33,34
 127 -55 127 -55 142 -107.5 c 128,-1,35
 157 -160 157 -160 207 -170 c 1,36,37
 207 -199 207 -199 191 -219.5 c 128,-1,38
 175 -240 175 -240 144 -240 c 0,0,1
EndSplineSet
Validated: 1
EndChar

StartChar: paragraph
Encoding: 376 182 120
Width: 528
Flags: W
LayerCount: 2
Fore
SplineSet
145 -111 m 1,0,-1
 145 -70 l 1,1,-1
 155 -70 l 2,2,3
 184 -70 184 -70 205 -57.5 c 128,-1,4
 226 -45 226 -45 226 2 c 2,5,-1
 226 386 l 1,6,-1
 165 386 l 2,7,8
 115 386 115 386 86.5 413.5 c 128,-1,9
 58 441 58 441 46 485.5 c 128,-1,10
 34 530 34 530 34 582 c 0,11,12
 34 662 34 662 64 711 c 128,-1,13
 94 760 94 760 167 760 c 2,14,-1
 493 760 l 1,15,-1
 493 719 l 1,16,-1
 483 719 l 2,17,18
 453 719 453 719 432.5 706.5 c 128,-1,19
 412 694 412 694 412 647 c 2,20,-1
 412 2 l 2,21,22
 412 -45 412 -45 432.5 -57.5 c 128,-1,23
 453 -70 453 -70 483 -70 c 2,24,-1
 493 -70 l 1,25,-1
 493 -111 l 1,26,-1
 358 -111 l 1,27,-1
 358 710 l 1,28,-1
 279 710 l 1,29,-1
 279 -111 l 1,30,-1
 145 -111 l 1,0,-1
EndSplineSet
Validated: 1
EndChar

StartChar: periodcentered
Encoding: 377 183 121
Width: 220
Flags: W
LayerCount: 2
Fore
SplineSet
110 292 m 0,0,1
 87 292 87 292 71 306 c 128,-1,2
 55 320 55 320 55 356 c 256,3,4
 55 392 55 392 71 406 c 128,-1,5
 87 420 87 420 110 420 c 0,6,7
 132 420 132 420 148.5 406 c 128,-1,8
 165 392 165 392 165 356 c 256,9,10
 165 320 165 320 148.5 306 c 128,-1,11
 132 292 132 292 110 292 c 0,0,1
EndSplineSet
Validated: 1
EndChar

StartChar: cedilla
Encoding: 378 184 122
Width: 284
Flags: W
LayerCount: 2
Fore
SplineSet
115 -234 m 0,0,1
 102 -234 102 -234 83.5 -231.5 c 128,-1,2
 65 -229 65 -229 50 -224 c 1,3,-1
 50 -179 l 1,4,5
 82 -187 82 -187 106 -187 c 0,6,7
 131 -187 131 -187 146.5 -173.5 c 128,-1,8
 162 -160 162 -160 162 -130 c 256,9,10
 162 -100 162 -100 143.5 -87 c 128,-1,11
 125 -74 125 -74 96 -70 c 1,12,-1
 113 9 l 1,13,-1
 153 9 l 1,14,-1
 144 -36 l 1,15,16
 183 -41 183 -41 205.5 -64 c 128,-1,17
 228 -87 228 -87 228 -127 c 0,18,19
 228 -180 228 -180 197.5 -207 c 128,-1,20
 167 -234 167 -234 115 -234 c 0,0,1
EndSplineSet
Validated: 1
EndChar

StartChar: uni00B9
Encoding: 379 185 123
Width: 339
Flags: W
LayerCount: 2
Fore
SplineSet
54 387 m 1,0,-1
 54 422 l 1,1,-1
 102 422 l 2,2,3
 117 422 117 422 128 429 c 128,-1,4
 139 436 139 436 139 461 c 2,5,-1
 139 754 l 1,6,7
 118 731 118 731 102 716.5 c 128,-1,8
 86 702 86 702 69 702 c 0,9,10
 55 702 55 702 45.5 712.5 c 128,-1,11
 36 723 36 723 36 742 c 1,12,13
 59 745 59 745 84 758.5 c 128,-1,14
 109 772 109 772 147 806 c 1,15,-1
 166 819 l 1,16,-1
 212 819 l 1,17,-1
 212 461 l 2,18,19
 212 436 212 436 223 429 c 128,-1,20
 234 422 234 422 249 422 c 2,21,-1
 291 422 l 1,22,-1
 291 387 l 1,23,-1
 54 387 l 1,0,-1
EndSplineSet
Validated: 1
EndChar

StartChar: ordmasculine
Encoding: 380 186 124
Width: 345
GlyphClass: 2
Flags: W
AnchorPoint: "Anchor-1" 176 719 basechar 0
AnchorPoint: "Anchor-0" 174 383 basechar 0
LayerCount: 2
Fore
SplineSet
171 380 m 0,0,1
 106 380 106 380 70 422.5 c 128,-1,2
 34 465 34 465 34 550 c 0,3,4
 34 719 34 719 173 719 c 0,5,6
 237 719 237 719 274.5 677.5 c 128,-1,7
 312 636 312 636 312 550 c 0,8,9
 312 465 312 465 276 422.5 c 128,-1,10
 240 380 240 380 171 380 c 0,0,1
172 417 m 0,11,12
 210 417 210 417 225 450.5 c 128,-1,13
 240 484 240 484 240 550 c 0,14,15
 240 615 240 615 224.5 648 c 128,-1,16
 209 681 209 681 171 681 c 0,17,18
 135 681 135 681 120 648 c 128,-1,19
 105 615 105 615 105 550 c 0,20,21
 105 484 105 484 120 450.5 c 128,-1,22
 135 417 135 417 172 417 c 0,11,12
EndSplineSet
Validated: 1
EndChar

StartChar: guillemotright
Encoding: 381 187 125
Width: 444
Flags: W
LayerCount: 2
Fore
SplineSet
215 81 m 1,0,-1
 304 270 l 1,1,-1
 215 459 l 1,2,-1
 257 459 l 1,3,-1
 387 285 l 1,4,-1
 387 255 l 1,5,-1
 257 81 l 1,6,-1
 215 81 l 1,0,-1
57 81 m 1,7,-1
 146 270 l 1,8,-1
 57 459 l 1,9,-1
 99 459 l 1,10,-1
 230 285 l 1,11,-1
 230 255 l 1,12,-1
 99 81 l 1,13,-1
 57 81 l 1,7,-1
EndSplineSet
Validated: 1
EndChar

StartChar: Aring
Encoding: 391 197 135
Width: 609
GlyphClass: 2
Flags: W
AnchorPoint: "Anchor-1" 305 884 basechar 0
AnchorPoint: "Anchor-0" 305 0 basechar 0
LayerCount: 2
Fore
SplineSet
1 0 m 1,0,-1
 1 41 l 1,1,-1
 16 41 l 2,2,3
 40 41 40 41 53 56 c 128,-1,4
 66 71 66 71 82 119 c 2,5,-1
 259 676 l 1,6,7
 234 685 234 685 219 710 c 128,-1,8
 204 735 204 735 204 775 c 0,9,10
 204 828 204 828 233.5 856 c 128,-1,11
 263 884 263 884 306 884 c 256,12,13
 349 884 349 884 379 856 c 128,-1,14
 409 828 409 828 409 775 c 0,15,16
 409 737 409 737 395 712.5 c 128,-1,17
 381 688 381 688 357 676 c 1,18,-1
 536 93 l 2,19,20
 546 62 546 62 559.5 51.5 c 128,-1,21
 573 41 573 41 597 41 c 2,22,-1
 609 41 l 1,23,-1
 609 0 l 1,24,-1
 366 0 l 1,25,-1
 366 41 l 1,26,-1
 389 41 l 2,27,28
 437 41 437 41 437 84 c 0,29,30
 437 92 437 92 434 106.5 c 128,-1,31
 431 121 431 121 427 135 c 2,32,-1
 396 240 l 1,33,-1
 175 240 l 1,34,-1
 146 142 l 2,35,36
 142 130 142 130 138.5 114.5 c 128,-1,37
 135 99 135 99 135 88 c 0,38,39
 135 41 135 41 190 41 c 2,40,-1
 212 41 l 1,41,-1
 212 0 l 1,42,-1
 1 0 l 1,0,-1
306 711 m 0,43,44
 330 711 330 711 347 725.5 c 128,-1,45
 364 740 364 740 364 775 c 256,46,47
 364 810 364 810 347 824 c 128,-1,48
 330 838 330 838 306 838 c 0,49,50
 283 838 283 838 266 824 c 128,-1,51
 249 810 249 810 249 775 c 256,52,53
 249 740 249 740 265 725.5 c 128,-1,54
 281 711 281 711 306 711 c 0,43,44
192 289 m 1,55,-1
 381 289 l 1,56,-1
 330 470 l 2,57,58
 317 515 317 515 306 553.5 c 128,-1,59
 295 592 295 592 287 623 c 1,60,61
 281 593 281 593 270.5 556.5 c 128,-1,62
 260 520 260 520 248 480 c 2,63,-1
 192 289 l 1,55,-1
EndSplineSet
Validated: 1
Substitution2: "'c2sc' Capitals to Small Capitals lookup 37 subtable" aring.sc
Substitution2: "'aalt' Access All Alternates lookup 0 subtable" aring.sc
EndChar

StartChar: AE
Encoding: 392 198 136
Width: 817
GlyphClass: 2
Flags: W
AnchorPoint: "Anchor-1" 409 714 basechar 0
AnchorPoint: "Anchor-0" 409 0 basechar 0
LayerCount: 2
Fore
SplineSet
-1 0 m 1,0,-1
 -1 41 l 1,1,-1
 13 41 l 2,2,3
 35 41 35 41 52.5 60 c 128,-1,4
 70 79 70 79 88 119 c 2,5,-1
 332 668 l 1,6,-1
 268 673 l 1,7,-1
 268 714 l 1,8,-1
 750 714 l 1,9,-1
 754 540 l 1,10,-1
 707 540 l 1,11,-1
 703 582 l 2,12,13
 700 615 700 615 683 639.5 c 128,-1,14
 666 664 666 664 626 665 c 2,15,-1
 487 665 l 1,16,-1
 487 398 l 1,17,-1
 693 398 l 1,18,-1
 693 350 l 1,19,-1
 487 350 l 1,20,-1
 487 49 l 1,21,-1
 647 49 l 2,22,23
 688 49 688 49 707 74 c 128,-1,24
 726 99 726 99 730 132 c 2,25,-1
 736 174 l 1,26,-1
 783 174 l 1,27,-1
 777 0 l 1,28,-1
 312 0 l 1,29,-1
 312 41 l 1,30,-1
 325 41 l 2,31,32
 353 41 353 41 373 53 c 128,-1,33
 393 65 393 65 393 110 c 2,34,-1
 393 240 l 1,35,-1
 197 240 l 1,36,-1
 152 133 l 2,37,38
 138 99 138 99 138 80 c 0,39,40
 138 41 138 41 189 41 c 2,41,-1
 208 41 l 1,42,-1
 208 0 l 1,43,-1
 -1 0 l 1,0,-1
220 289 m 1,44,-1
 393 289 l 1,45,-1
 393 665 l 1,46,-1
 383 665 l 1,47,-1
 220 289 l 1,44,-1
EndSplineSet
Validated: 1
Substitution2: "'c2sc' Capitals to Small Capitals lookup 37 subtable" ae.sc
Substitution2: "'aalt' Access All Alternates lookup 0 subtable" ae.sc
EndChar

StartChar: Eth
Encoding: 402 208 146
Width: 627
GlyphClass: 2
Flags: W
AnchorPoint: "Anchor-1" 314 714 basechar 0
AnchorPoint: "Anchor-0" 314 0 basechar 0
LayerCount: 2
Fore
SplineSet
31 0 m 1,0,-1
 31 41 l 1,1,-1
 48 41 l 2,2,3
 76 41 76 41 94.5 54.5 c 128,-1,4
 113 68 113 68 113 113 c 2,5,-1
 113 350 l 1,6,-1
 33 350 l 1,7,-1
 33 397 l 1,8,-1
 113 397 l 1,9,-1
 113 605 l 2,10,11
 113 648 113 648 93.5 660.5 c 128,-1,12
 74 673 74 673 46 673 c 2,13,-1
 31 673 l 1,14,-1
 31 714 l 1,15,-1
 296 714 l 2,16,17
 430 714 430 714 504 620.5 c 128,-1,18
 578 527 578 527 578 357 c 0,19,20
 578 247 578 247 546.5 167 c 128,-1,21
 515 87 515 87 452.5 43.5 c 128,-1,22
 390 0 390 0 296 0 c 2,23,-1
 31 0 l 1,0,-1
207 50 m 1,24,-1
 277 50 l 2,25,26
 376 50 376 50 425.5 129 c 128,-1,27
 475 208 475 208 475 357 c 256,28,29
 475 506 475 506 425.5 585.5 c 128,-1,30
 376 665 376 665 277 665 c 2,31,-1
 207 665 l 1,32,-1
 207 397 l 1,33,-1
 345 397 l 1,34,-1
 345 350 l 1,35,-1
 207 350 l 1,36,-1
 207 50 l 1,24,-1
EndSplineSet
Validated: 1
Substitution2: "'c2sc' Capitals to Small Capitals lookup 37 subtable" eth.sc
Substitution2: "'aalt' Access All Alternates lookup 0 subtable" eth.sc
EndChar

StartChar: multiply
Encoding: 409 215 153
Width: 465
Flags: W
LayerCount: 2
Fore
SplineSet
95 151 m 1,0,-1
 52 187 l 1,1,-1
 197 358 l 1,2,-1
 52 528 l 1,3,-1
 96 565 l 1,4,-1
 234 402 l 1,5,-1
 374 565 l 1,6,-1
 416 528 l 1,7,-1
 272 358 l 1,8,-1
 416 188 l 1,9,-1
 374 151 l 1,10,-1
 234 315 l 1,11,-1
 95 151 l 1,0,-1
EndSplineSet
Validated: 1
EndChar

StartChar: Oslash
Encoding: 410 216 154
Width: 640
GlyphClass: 2
Flags: W
AnchorPoint: "Anchor-1" 320 714 basechar 0
AnchorPoint: "Anchor-0" 320 0 basechar 0
LayerCount: 2
Fore
SplineSet
108 -40 m 1,0,-1
 151 51 l 1,1,2
 99 99 99 99 73.5 177.5 c 128,-1,3
 48 256 48 256 48 359 c 0,4,5
 48 470 48 470 77.5 552 c 128,-1,6
 107 634 107 634 168 679.5 c 128,-1,7
 229 725 229 725 321 725 c 0,8,9
 359 725 359 725 391 716 c 128,-1,10
 423 707 423 707 451 690 c 1,11,-1
 482 755 l 1,12,-1
 533 755 l 1,13,-1
 490 662 l 1,14,15
 540 614 540 614 566 536.5 c 128,-1,16
 592 459 592 459 592 358 c 0,17,18
 592 247 592 247 560.5 164.5 c 128,-1,19
 529 82 529 82 468 36 c 128,-1,20
 407 -10 407 -10 320 -10 c 0,21,22
 245 -10 245 -10 189 23 c 1,23,-1
 160 -40 l 1,24,-1
 108 -40 l 1,0,-1
190 133 m 1,25,-1
 423 630 l 1,26,27
 384 672 384 672 321 672 c 0,28,29
 230 672 230 672 190.5 589.5 c 128,-1,30
 151 507 151 507 151 358 c 0,31,32
 151 286 151 286 160 229 c 128,-1,33
 169 172 169 172 190 133 c 1,25,-1
320 43 m 0,34,35
 413 43 413 43 451 126.5 c 128,-1,36
 489 210 489 210 489 358 c 0,37,38
 489 430 489 430 480 486.5 c 128,-1,39
 471 543 471 543 452 583 c 1,40,-1
 219 85 l 1,41,42
 258 43 258 43 320 43 c 0,34,35
EndSplineSet
Validated: 1
Substitution2: "'c2sc' Capitals to Small Capitals lookup 37 subtable" oslash.sc
Substitution2: "'aalt' Access All Alternates lookup 0 subtable" oslash.sc
EndChar

StartChar: Thorn
Encoding: 416 222 160
Width: 521
GlyphClass: 2
Flags: W
AnchorPoint: "Anchor-1" 261 714 basechar 0
AnchorPoint: "Anchor-0" 261 0 basechar 0
LayerCount: 2
Fore
SplineSet
31 0 m 1,0,-1
 31 41 l 1,1,-1
 48 41 l 2,2,3
 75 41 75 41 93.5 54 c 128,-1,4
 112 67 112 67 112 111 c 2,5,-1
 112 601 l 2,6,7
 112 647 112 647 93.5 660 c 128,-1,8
 75 673 75 673 48 673 c 2,9,-1
 31 673 l 1,10,-1
 31 714 l 1,11,-1
 296 714 l 1,12,-1
 296 673 l 1,13,-1
 274 673 l 2,14,15
 246 673 246 673 226.5 660 c 128,-1,16
 207 647 207 647 207 600 c 2,17,-1
 207 569 l 1,18,-1
 274 569 l 2,19,20
 384 569 384 569 436.5 519 c 128,-1,21
 489 469 489 469 489 371 c 0,22,23
 489 312 489 312 466.5 263 c 128,-1,24
 444 214 444 214 393 184.5 c 128,-1,25
 342 155 342 155 256 155 c 2,26,-1
 207 155 l 1,27,-1
 207 114 l 2,28,29
 207 68 207 68 226.5 54.5 c 128,-1,30
 246 41 246 41 274 41 c 2,31,-1
 296 41 l 1,32,-1
 296 0 l 1,33,-1
 31 0 l 1,0,-1
207 201 m 1,34,-1
 250 201 l 2,35,36
 323 201 323 201 355.5 236.5 c 128,-1,37
 388 272 388 272 388 367 c 0,38,39
 388 451 388 451 359 486.5 c 128,-1,40
 330 522 330 522 260 522 c 2,41,-1
 207 522 l 1,42,-1
 207 201 l 1,34,-1
EndSplineSet
Validated: 1
Substitution2: "'c2sc' Capitals to Small Capitals lookup 37 subtable" thorn.sc
Substitution2: "'aalt' Access All Alternates lookup 0 subtable" thorn.sc
EndChar

StartChar: germandbls
Encoding: 417 223 161
Width: 562
GlyphClass: 2
Flags: W
AnchorPoint: "Anchor-1" 281 762 basechar 0
AnchorPoint: "Anchor-0" 281 0 basechar 0
LayerCount: 2
Fore
SplineSet
376 -10 m 0,0,1
 315 -10 315 -10 277 19.5 c 128,-1,2
 239 49 239 49 239 101 c 0,3,4
 239 139 239 139 256 151.5 c 128,-1,5
 273 164 273 164 290 164 c 1,6,7
 293 109 293 109 312 72 c 128,-1,8
 331 35 331 35 377 35 c 0,9,10
 407 35 407 35 425.5 58.5 c 128,-1,11
 444 82 444 82 444 128 c 0,12,13
 444 163 444 163 427 189.5 c 128,-1,14
 410 216 410 216 361 245 c 0,15,16
 309 275 309 275 281 307.5 c 128,-1,17
 253 340 253 340 253 400 c 0,18,19
 253 462 253 462 289 499 c 128,-1,20
 325 536 325 536 394 537 c 1,21,22
 394 628 394 628 370 673.5 c 128,-1,23
 346 719 346 719 288 719 c 0,24,25
 237 719 237 719 212 681 c 128,-1,26
 187 643 187 643 187 581 c 2,27,-1
 187 0 l 1,28,-1
 17 0 l 1,29,-1
 17 41 l 1,30,-1
 36 41 l 2,31,32
 64 41 64 41 81 53.5 c 128,-1,33
 98 66 98 66 98 113 c 2,34,-1
 98 488 l 1,35,-1
 25 488 l 1,36,-1
 25 536 l 1,37,-1
 98 536 l 1,38,-1
 98 568 l 2,39,40
 98 641 98 641 123.5 683.5 c 128,-1,41
 149 726 149 726 192.5 744 c 128,-1,42
 236 762 236 762 289 762 c 0,43,44
 362 762 362 762 403.5 731 c 128,-1,45
 445 700 445 700 462.5 640 c 128,-1,46
 480 580 480 580 481 494 c 1,47,-1
 426 494 l 2,48,49
 375 494 375 494 353 471.5 c 128,-1,50
 331 449 331 449 331 411 c 0,51,52
 331 380 331 380 349 358.5 c 128,-1,53
 367 337 367 337 416 308 c 0,54,55
 474 274 474 274 499 234 c 128,-1,56
 524 194 524 194 524 144 c 0,57,58
 524 69 524 69 484.5 29.5 c 128,-1,59
 445 -10 445 -10 376 -10 c 0,0,1
EndSplineSet
Validated: 1
Substitution2: "'smcp' Lowercase to Small Capitals lookup 38 subtable" germandbls.sc
Substitution2: "'aalt' Access All Alternates lookup 0 subtable" germandbls.sc
EndChar

StartChar: ae
Encoding: 424 230 168
Width: 722
GlyphClass: 2
Flags: W
AnchorPoint: "Anchor-1" 362 536 basechar 0
AnchorPoint: "Anchor-0" 362 0 basechar 0
LayerCount: 2
Fore
SplineSet
177 -10 m 0,0,1
 119 -10 119 -10 80.5 29 c 128,-1,2
 42 68 42 68 42 150 c 0,3,4
 42 230 42 230 90 268 c 128,-1,5
 138 306 138 306 236 309 c 2,6,-1
 306 312 l 1,7,-1
 306 373 l 2,8,9
 306 428 306 428 293 462.5 c 128,-1,10
 280 497 280 497 230 497 c 0,11,12
 182 497 182 497 168.5 466 c 128,-1,13
 155 435 155 435 155 388 c 1,14,15
 77 388 77 388 77 450 c 0,16,17
 77 483 77 483 98.5 504.5 c 128,-1,18
 120 526 120 526 155 536 c 128,-1,19
 190 546 190 546 233 546 c 0,20,21
 329 546 329 546 367 475 c 1,22,23
 390 509 390 509 423.5 527.5 c 128,-1,24
 457 546 457 546 503 546 c 0,25,26
 585 546 585 546 632.5 484 c 128,-1,27
 680 422 680 422 680 307 c 2,28,-1
 680 263 l 1,29,-1
 396 263 l 1,30,31
 397 153 397 153 429.5 100 c 128,-1,32
 462 47 462 47 526 47 c 0,33,34
 566 47 566 47 596.5 68.5 c 128,-1,35
 627 90 627 90 644 124 c 1,36,37
 651 120 651 120 657 111.5 c 128,-1,38
 663 103 663 103 663 90 c 0,39,40
 663 69 663 69 646.5 46 c 128,-1,41
 630 23 630 23 595.5 6.5 c 128,-1,42
 561 -10 561 -10 509 -10 c 0,43,44
 382 -10 382 -10 337 112 c 1,45,46
 326 83 326 83 304.5 54.5 c 128,-1,47
 283 26 283 26 251.5 8 c 128,-1,48
 220 -10 220 -10 177 -10 c 0,0,1
398 314 m 1,49,-1
 589 314 l 1,50,51
 589 395 589 395 569 445 c 128,-1,52
 549 495 549 495 499 495 c 0,53,54
 403 495 403 495 398 314 c 1,49,-1
200 45 m 0,55,56
 247 45 247 45 277 85 c 128,-1,57
 307 125 307 125 307 192 c 2,58,-1
 307 273 l 1,59,-1
 256 270 l 2,60,61
 187 266 187 266 160.5 234.5 c 128,-1,62
 134 203 134 203 134 144 c 0,63,64
 134 45 134 45 200 45 c 0,55,56
EndSplineSet
Validated: 1
Substitution2: "'smcp' Lowercase to Small Capitals lookup 38 subtable" ae.sc
Substitution2: "'aalt' Access All Alternates lookup 0 subtable" ae.sc
EndChar

StartChar: eth
Encoding: 434 240 178
Width: 498
GlyphClass: 2
Flags: W
AnchorPoint: "Anchor-1" 249 762 basechar 0
AnchorPoint: "Anchor-0" 249 0 basechar 0
LayerCount: 2
Fore
SplineSet
248 -10 m 0,0,1
 150 -10 150 -10 98 57 c 128,-1,2
 46 124 46 124 46 248 c 0,3,4
 46 378 46 378 96 441.5 c 128,-1,5
 146 505 146 505 242 505 c 0,6,7
 272 505 272 505 298.5 494.5 c 128,-1,8
 325 484 325 484 345 467 c 1,9,10
 333 511 333 511 311.5 550 c 128,-1,11
 290 589 290 589 259 620 c 1,12,-1
 152 549 l 1,13,-1
 152 604 l 1,14,-1
 222 652 l 1,15,16
 202 669 202 669 177 683.5 c 128,-1,17
 152 698 152 698 128 708 c 1,18,-1
 128 761 l 1,19,20
 167 748 167 748 204 730.5 c 128,-1,21
 241 713 241 713 278 686 c 1,22,-1
 388 762 l 1,23,-1
 388 706 l 1,24,-1
 316 655 l 1,25,26
 377 597 377 597 414.5 502.5 c 128,-1,27
 452 408 452 408 452 285 c 0,28,29
 452 135 452 135 400.5 62.5 c 128,-1,30
 349 -10 349 -10 248 -10 c 0,0,1
250 41 m 0,31,32
 309 41 309 41 335 93.5 c 128,-1,33
 361 146 361 146 361 249 c 0,34,35
 361 351 361 351 336 402 c 128,-1,36
 311 453 311 453 249 453 c 256,37,38
 187 453 187 453 162 401.5 c 128,-1,39
 137 350 137 350 137 249 c 0,40,41
 137 146 137 146 163.5 93.5 c 128,-1,42
 190 41 190 41 250 41 c 0,31,32
EndSplineSet
Validated: 1
Substitution2: "'smcp' Lowercase to Small Capitals lookup 38 subtable" eth.sc
Substitution2: "'aalt' Access All Alternates lookup 0 subtable" eth.sc
EndChar

StartChar: divide
Encoding: 441 247 185
Width: 465
Flags: W
LayerCount: 2
Fore
SplineSet
233 493 m 0,0,1
 213 493 213 493 200 505 c 128,-1,2
 187 517 187 517 187 547 c 0,3,4
 187 578 187 578 200 589.5 c 128,-1,5
 213 601 213 601 233 601 c 0,6,7
 252 601 252 601 265.5 589.5 c 128,-1,8
 279 578 279 578 279 547 c 0,9,10
 279 517 279 517 265.5 505 c 128,-1,11
 252 493 252 493 233 493 c 0,0,1
50 329 m 1,12,-1
 50 386 l 1,13,-1
 416 386 l 1,14,-1
 416 329 l 1,15,-1
 50 329 l 1,12,-1
233 114 m 0,16,17
 213 114 213 114 200 126 c 128,-1,18
 187 138 187 138 187 168 c 0,19,20
 187 199 187 199 200 210.5 c 128,-1,21
 213 222 213 222 233 222 c 0,22,23
 252 222 252 222 265.5 210.5 c 128,-1,24
 279 199 279 199 279 168 c 0,25,26
 279 138 279 138 265.5 126 c 128,-1,27
 252 114 252 114 233 114 c 0,16,17
EndSplineSet
Validated: 1
EndChar

StartChar: oslash
Encoding: 442 248 186
Width: 498
GlyphClass: 2
Flags: W
AnchorPoint: "Anchor-1" 249 536 basechar 0
AnchorPoint: "Anchor-0" 249 0 basechar 0
LayerCount: 2
Fore
SplineSet
64 -40 m 1,0,-1
 109 49 l 1,1,2
 78 84 78 84 62 138.5 c 128,-1,3
 46 193 46 193 46 269 c 0,4,5
 46 409 46 409 97.5 477.5 c 128,-1,6
 149 546 149 546 251 546 c 0,7,8
 312 546 312 546 356 514 c 1,9,-1
 388 576 l 1,10,-1
 439 576 l 1,11,-1
 392 483 l 1,12,13
 421 449 421 449 436.5 395.5 c 128,-1,14
 452 342 452 342 452 269 c 0,15,16
 452 128 452 128 400 59 c 128,-1,17
 348 -10 348 -10 248 -10 c 0,18,19
 189 -10 189 -10 146 19 c 1,20,-1
 116 -40 l 1,21,-1
 64 -40 l 1,0,-1
154 119 m 1,22,-1
 324 458 l 1,23,24
 298 494 298 494 249 494 c 0,25,26
 187 494 187 494 162 437.5 c 128,-1,27
 137 381 137 381 137 269 c 0,28,29
 137 222 137 222 141 185 c 128,-1,30
 145 148 145 148 154 119 c 1,22,-1
250 41 m 0,31,32
 311 41 311 41 336 99 c 128,-1,33
 361 157 361 157 361 268 c 0,34,35
 361 313 361 313 357 348 c 128,-1,36
 353 383 353 383 346 410 c 1,37,-1
 177 73 l 1,38,39
 202 41 202 41 250 41 c 0,31,32
EndSplineSet
Validated: 1
Substitution2: "'smcp' Lowercase to Small Capitals lookup 38 subtable" oslash.sc
Substitution2: "'aalt' Access All Alternates lookup 0 subtable" oslash.sc
EndChar

StartChar: thorn
Encoding: 448 254 192
Width: 529
GlyphClass: 2
Flags: W
AnchorPoint: "Anchor-1" 264 760 basechar 0
AnchorPoint: "Anchor-0" 264 -240 basechar 0
LayerCount: 2
Fore
SplineSet
15 -240 m 1,0,-1
 15 -199 l 1,1,-1
 22 -199 l 2,2,3
 52 -199 52 -199 71 -186 c 128,-1,4
 90 -173 90 -173 90 -126 c 2,5,-1
 90 650 l 2,6,7
 90 695 90 695 71 707 c 128,-1,8
 52 719 52 719 25 719 c 2,9,-1
 18 719 l 1,10,-1
 18 760 l 1,11,-1
 180 760 l 1,12,-1
 180 572 l 2,13,14
 180 550 180 550 179 520.5 c 128,-1,15
 178 491 178 491 177 468 c 128,-1,16
 176 445 176 445 175 443 c 2,17,-1
 178 443 l 1,18,19
 196 490 196 490 227.5 518 c 128,-1,20
 259 546 259 546 309 546 c 0,21,22
 393 546 393 546 438 479.5 c 128,-1,23
 483 413 483 413 483 269 c 0,24,25
 483 124 483 124 438 56.5 c 128,-1,26
 393 -11 393 -11 309 -11 c 0,27,28
 259 -11 259 -11 228.5 14.5 c 128,-1,29
 198 40 198 40 180 82 c 1,30,-1
 176 82 l 2,31,32
 177 79 177 79 177.5 60 c 128,-1,33
 178 41 178 41 179 15 c 128,-1,34
 180 -11 180 -11 180 -34 c 2,35,-1
 180 -131 l 2,36,37
 180 -176 180 -176 199 -187.5 c 128,-1,38
 218 -199 218 -199 248 -199 c 2,39,-1
 258 -199 l 1,40,-1
 258 -240 l 1,41,-1
 15 -240 l 1,0,-1
291 47 m 0,42,43
 345 47 345 47 368.5 105.5 c 128,-1,44
 392 164 392 164 392 272 c 0,45,46
 392 379 392 379 368.5 434 c 128,-1,47
 345 489 345 489 290 489 c 0,48,49
 227 489 227 489 203.5 432 c 128,-1,50
 180 375 180 375 180 271 c 0,51,52
 180 164 180 164 203.5 105.5 c 128,-1,53
 227 47 227 47 291 47 c 0,42,43
EndSplineSet
Validated: 1
Substitution2: "'smcp' Lowercase to Small Capitals lookup 38 subtable" thorn.sc
Substitution2: "'aalt' Access All Alternates lookup 0 subtable" thorn.sc
EndChar

StartChar: dcaron
Encoding: 465 271 209
Width: 529
GlyphClass: 2
Flags: W
AnchorPoint: "Anchor-3" 265 268 basechar 0
AnchorPoint: "Anchor-2" 498 760 basechar 0
AnchorPoint: "Anchor-1" 265 760 basechar 0
AnchorPoint: "Anchor-0" 265 0 basechar 0
LayerCount: 2
Fore
SplineSet
485 600 m 1,0,-1
 485 613 l 1,1,2
 492 647 492 647 499.5 685 c 128,-1,3
 507 723 507 723 513 760 c 1,4,-1
 591 760 l 1,5,-1
 591 750 l 1,6,7
 583 729 583 729 570.5 702 c 128,-1,8
 558 675 558 675 544 648 c 128,-1,9
 530 621 530 621 518 600 c 1,10,-1
 485 600 l 1,0,-1
218 -10 m 0,11,12
 134 -10 134 -10 89.5 56.5 c 128,-1,13
 45 123 45 123 45 267 c 0,14,15
 45 412 45 412 90 479 c 128,-1,16
 135 546 135 546 220 546 c 0,17,18
 269 546 269 546 299.5 521.5 c 128,-1,19
 330 497 330 497 348 458 c 1,20,-1
 353 458 l 1,21,22
 351 482 351 482 350.5 510 c 128,-1,23
 350 538 350 538 350 565 c 2,24,-1
 350 650 l 2,25,26
 350 695 350 695 329 707 c 128,-1,27
 308 719 308 719 280 719 c 2,28,-1
 273 719 l 1,29,-1
 273 760 l 1,30,-1
 438 760 l 1,31,-1
 438 111 l 2,32,33
 438 66 438 66 457.5 53.5 c 128,-1,34
 477 41 477 41 506 41 c 2,35,-1
 514 41 l 1,36,-1
 514 0 l 1,37,-1
 364 0 l 1,38,-1
 354 91 l 1,39,-1
 351 91 l 1,40,41
 331 45 331 45 300 17.5 c 128,-1,42
 269 -10 269 -10 218 -10 c 0,11,12
238 48 m 0,43,44
 299 48 299 48 324.5 106 c 128,-1,45
 350 164 350 164 350 267 c 0,46,47
 350 374 350 374 325.5 431 c 128,-1,48
 301 488 301 488 237 488 c 0,49,50
 183 488 183 488 160 431 c 128,-1,51
 137 374 137 374 137 266 c 0,52,53
 137 156 137 156 160.5 102 c 128,-1,54
 184 48 184 48 238 48 c 0,43,44
EndSplineSet
Validated: 1
Substitution2: "'smcp' Lowercase to Small Capitals lookup 38 subtable" dcaron.sc
Substitution2: "'aalt' Access All Alternates lookup 0 subtable" dcaron.sc
EndChar

StartChar: dcroat
Encoding: 467 273 211
Width: 529
GlyphClass: 2
Flags: W
AnchorPoint: "Anchor-1" 265 760 basechar 0
AnchorPoint: "Anchor-0" 265 0 basechar 0
LayerCount: 2
Fore
SplineSet
220 -10 m 0,0,1
 135 -10 135 -10 90 54.5 c 128,-1,2
 45 119 45 119 45 257 c 0,3,4
 45 396 45 396 90 461 c 128,-1,5
 135 526 135 526 220 526 c 0,6,7
 269 526 269 526 299.5 502 c 128,-1,8
 330 478 330 478 348 439 c 1,9,-1
 353 439 l 2,10,11
 353 441 353 441 352 461 c 128,-1,12
 351 481 351 481 350.5 505.5 c 128,-1,13
 350 530 350 530 350 545 c 2,14,-1
 350 596 l 1,15,-1
 206 596 l 1,16,-1
 206 638 l 1,17,-1
 350 638 l 1,18,-1
 350 650 l 2,19,20
 350 694 350 694 329 706.5 c 128,-1,21
 308 719 308 719 280 719 c 2,22,-1
 273 719 l 1,23,-1
 273 760 l 1,24,-1
 438 760 l 1,25,-1
 438 638 l 1,26,-1
 514 638 l 1,27,-1
 514 596 l 1,28,-1
 438 596 l 1,29,-1
 438 111 l 2,30,31
 438 66 438 66 457.5 53.5 c 128,-1,32
 477 41 477 41 506 41 c 2,33,-1
 514 41 l 1,34,-1
 514 0 l 1,35,-1
 364 0 l 1,36,-1
 354 91 l 1,37,-1
 351 91 l 1,38,39
 331 45 331 45 300 17.5 c 128,-1,40
 269 -10 269 -10 220 -10 c 0,0,1
238 48 m 0,41,42
 302 48 302 48 326 104 c 128,-1,43
 350 160 350 160 350 257 c 0,44,45
 350 357 350 357 325.5 413.5 c 128,-1,46
 301 470 301 470 237 470 c 0,47,48
 183 470 183 470 160 415.5 c 128,-1,49
 137 361 137 361 137 256 c 0,50,51
 137 152 137 152 160.5 100 c 128,-1,52
 184 48 184 48 238 48 c 0,41,42
EndSplineSet
Validated: 1
Substitution2: "'smcp' Lowercase to Small Capitals lookup 38 subtable" dcroat.sc
Substitution2: "'aalt' Access All Alternates lookup 0 subtable" dcroat.sc
EndChar

StartChar: eogonek
Encoding: 475 281 219
Width: 462
GlyphClass: 2
Flags: W
AnchorPoint: "Anchor-1" 232 536 basechar 0
AnchorPoint: "Anchor-0" 232 -230 basechar 0
LayerCount: 2
Fore
SplineSet
319 -230 m 0,0,1
 266 -230 266 -230 236 -205 c 128,-1,2
 206 -180 206 -180 206 -125 c 0,3,4
 206 -88 206 -88 225 -57.5 c 128,-1,5
 244 -27 244 -27 270 -9 c 1,6,7
 265 -9 265 -9 259.5 -9.5 c 128,-1,8
 254 -10 254 -10 248 -10 c 0,9,10
 151 -10 151 -10 98.5 62 c 128,-1,11
 46 134 46 134 46 264 c 0,12,13
 46 405 46 405 96.5 475.5 c 128,-1,14
 147 546 147 546 239 546 c 0,15,16
 324 546 324 546 372.5 484.5 c 128,-1,17
 421 423 421 423 421 305 c 2,18,-1
 421 263 l 1,19,-1
 137 263 l 1,20,21
 138 152 138 152 170.5 99.5 c 128,-1,22
 203 47 203 47 265 47 c 0,23,24
 309 47 309 47 338.5 70 c 128,-1,25
 368 93 368 93 384 124 c 1,26,27
 392 120 392 120 398 112 c 128,-1,28
 404 104 404 104 404 90 c 0,29,30
 404 67 404 67 385 44.5 c 128,-1,31
 366 22 366 22 338 9 c 1,32,33
 307 -14 307 -14 290 -44.5 c 128,-1,34
 273 -75 273 -75 273 -116 c 0,35,36
 273 -149 273 -149 288.5 -163.5 c 128,-1,37
 304 -178 304 -178 330 -178 c 256,38,39
 356 -178 356 -178 383 -168 c 1,40,-1
 383 -216 l 1,41,42
 371 -223 371 -223 352 -226.5 c 128,-1,43
 333 -230 333 -230 319 -230 c 0,0,1
138 314 m 1,44,-1
 330 314 l 1,45,46
 330 395 330 395 309.5 445 c 128,-1,47
 289 495 289 495 240 495 c 0,48,49
 192 495 192 495 166.5 448 c 128,-1,50
 141 401 141 401 138 314 c 1,44,-1
EndSplineSet
Validated: 1
LCarets2: 1 0
Substitution2: "'smcp' Lowercase to Small Capitals lookup 38 subtable" eogonek.sc
Substitution2: "'locl' Localized Forms in Latin lookup 9 subtable" eogonek.loclNAV
Ligature2: "'ccmp' Glyph Composition/Decomposition lookup 6 subtable" e uni0328
AlternateSubs2: "'aalt' Access All Alternates lookup 1 subtable" eogonek.loclNAV eogonek.sc
EndChar

StartChar: uni0123
Encoding: 485 291 229
Width: 462
GlyphClass: 2
Flags: W
AnchorPoint: "Anchor-2" 453 536 basechar 0
AnchorPoint: "Anchor-1" 231 766 basechar 0
AnchorPoint: "Anchor-0" 231 -239 basechar 0
LayerCount: 2
Fore
SplineSet
179 606 m 1,0,-1
 179 616 l 1,1,2
 186 637 186 637 198.5 664 c 128,-1,3
 211 691 211 691 225 718 c 128,-1,4
 239 745 239 745 251 766 c 1,5,-1
 291 766 l 1,6,-1
 291 753 l 1,7,8
 284 719 284 719 276.5 681 c 128,-1,9
 269 643 269 643 264 606 c 1,10,-1
 179 606 l 1,0,-1
198 -239 m 0,11,12
 107 -239 107 -239 62 -200.5 c 128,-1,13
 17 -162 17 -162 17 -93 c 0,14,15
 17 -34 17 -34 49.5 -2 c 128,-1,16
 82 30 82 30 124 40 c 1,17,18
 106 49 106 49 89.5 67 c 128,-1,19
 73 85 73 85 73 117 c 0,20,21
 73 147 73 147 90 169.5 c 128,-1,22
 107 192 107 192 134 210 c 1,23,24
 96 229 96 229 74.5 270 c 128,-1,25
 53 311 53 311 53 361 c 0,26,27
 53 447 53 447 94 496.5 c 128,-1,28
 135 546 135 546 219 546 c 0,29,30
 251 546 251 546 276.5 536.5 c 128,-1,31
 302 527 302 527 318 512 c 1,32,33
 326 521 326 521 338.5 534 c 128,-1,34
 351 547 351 547 367 557.5 c 128,-1,35
 383 568 383 568 403 568 c 0,36,37
 429 568 429 568 441 552.5 c 128,-1,38
 453 537 453 537 453 516 c 256,39,40
 453 495 453 495 442 479 c 128,-1,41
 431 463 431 463 407 463 c 1,42,43
 407 478 407 478 399.5 490 c 128,-1,44
 392 502 392 502 378 502 c 0,45,46
 367 502 367 502 358.5 498 c 128,-1,47
 350 494 350 494 342 487 c 1,48,49
 357 467 357 467 368 438.5 c 128,-1,50
 379 410 379 410 379 365 c 0,51,52
 379 290 379 290 339.5 241 c 128,-1,53
 300 192 300 192 219 192 c 0,54,55
 208 192 208 192 193 193.5 c 128,-1,56
 178 195 178 195 169 198 c 1,57,58
 156 188 156 188 145 172.5 c 128,-1,59
 134 157 134 157 134 134 c 0,60,61
 134 91 134 91 191 91 c 2,62,-1
 283 91 l 2,63,64
 335 91 335 91 367 71.5 c 128,-1,65
 399 52 399 52 413.5 19 c 128,-1,66
 428 -14 428 -14 428 -54 c 0,67,68
 428 -139 428 -139 371.5 -189 c 128,-1,69
 315 -239 315 -239 198 -239 c 0,11,12
217 238 m 0,70,71
 260 238 260 238 277.5 268.5 c 128,-1,72
 295 299 295 299 295 365 c 0,73,74
 295 434 295 434 277 466.5 c 128,-1,75
 259 499 259 499 216 499 c 0,76,77
 174 499 174 499 155.5 465.5 c 128,-1,78
 137 432 137 432 137 364 c 0,79,80
 137 300 137 300 156 269 c 128,-1,81
 175 238 175 238 217 238 c 0,70,71
200 -191 m 0,82,83
 259 -191 259 -191 292 -174.5 c 128,-1,84
 325 -158 325 -158 338.5 -130.5 c 128,-1,85
 352 -103 352 -103 352 -69 c 0,86,87
 352 -23 352 -23 330.5 -5.5 c 128,-1,88
 309 12 309 12 269 12 c 2,89,-1
 182 12 l 2,90,91
 159 12 159 12 138.5 3.5 c 128,-1,92
 118 -5 118 -5 104.5 -26 c 128,-1,93
 91 -47 91 -47 91 -87 c 0,94,95
 91 -131 91 -131 115.5 -161 c 128,-1,96
 140 -191 140 -191 200 -191 c 0,82,83
EndSplineSet
Validated: 1
Substitution2: "'smcp' Lowercase to Small Capitals lookup 38 subtable" uni0123.sc
Substitution2: "'aalt' Access All Alternates lookup 0 subtable" uni0123.sc
EndChar

StartChar: Hbar
Encoding: 488 294 232
Width: 681
GlyphClass: 2
Flags: W
AnchorPoint: "Anchor-1" 341 714 basechar 0
AnchorPoint: "Anchor-0" 341 0 basechar 0
LayerCount: 2
Fore
SplineSet
31 0 m 1,0,-1
 31 41 l 1,1,-1
 48 41 l 2,2,3
 76 41 76 41 94 54 c 128,-1,4
 112 67 112 67 112 112 c 2,5,-1
 112 502 l 1,6,-1
 30 502 l 1,7,-1
 30 547 l 1,8,-1
 112 547 l 1,9,-1
 112 605 l 2,10,11
 112 648 112 648 93 660.5 c 128,-1,12
 74 673 74 673 45 673 c 2,13,-1
 31 673 l 1,14,-1
 31 714 l 1,15,-1
 284 714 l 1,16,-1
 284 673 l 1,17,-1
 271 673 l 2,18,19
 242 673 242 673 224.5 660 c 128,-1,20
 207 647 207 647 207 603 c 2,21,-1
 207 547 l 1,22,-1
 474 547 l 1,23,-1
 474 602 l 2,24,25
 474 647 474 647 456.5 660 c 128,-1,26
 439 673 439 673 410 673 c 2,27,-1
 398 673 l 1,28,-1
 398 714 l 1,29,-1
 650 714 l 1,30,-1
 650 673 l 1,31,-1
 634 673 l 2,32,33
 605 673 605 673 587 660 c 128,-1,34
 569 647 569 647 569 602 c 2,35,-1
 569 547 l 1,36,-1
 651 547 l 1,37,-1
 651 502 l 1,38,-1
 569 502 l 1,39,-1
 569 108 l 2,40,41
 569 66 569 66 587.5 53.5 c 128,-1,42
 606 41 606 41 634 41 c 2,43,-1
 650 41 l 1,44,-1
 650 0 l 1,45,-1
 398 0 l 1,46,-1
 398 41 l 1,47,-1
 410 41 l 2,48,49
 439 41 439 41 456.5 54 c 128,-1,50
 474 67 474 67 474 113 c 2,51,-1
 474 349 l 1,52,-1
 207 349 l 1,53,-1
 207 112 l 2,54,55
 207 67 207 67 224.5 54 c 128,-1,56
 242 41 242 41 271 41 c 2,57,-1
 284 41 l 1,58,-1
 284 0 l 1,59,-1
 31 0 l 1,0,-1
207 398 m 1,60,-1
 474 398 l 1,61,-1
 474 502 l 1,62,-1
 207 502 l 1,63,-1
 207 398 l 1,60,-1
EndSplineSet
Validated: 1
Substitution2: "'c2sc' Capitals to Small Capitals lookup 37 subtable" hbar.sc
Substitution2: "'aalt' Access All Alternates lookup 0 subtable" hbar.sc
EndChar

StartChar: hbar
Encoding: 489 295 233
Width: 547
GlyphClass: 2
Flags: W
AnchorPoint: "Anchor-1" 273 760 basechar 0
AnchorPoint: "Anchor-0" 273 0 basechar 0
LayerCount: 2
Fore
SplineSet
15 0 m 1,0,-1
 15 41 l 1,1,-1
 23 41 l 2,2,3
 50 41 50 41 70.5 53.5 c 128,-1,4
 91 66 91 66 91 113 c 2,5,-1
 91 596 l 1,6,-1
 14 596 l 1,7,-1
 14 638 l 1,8,-1
 91 638 l 1,9,-1
 91 651 l 2,10,11
 91 695 91 695 70.5 707 c 128,-1,12
 50 719 50 719 23 719 c 2,13,-1
 15 719 l 1,14,-1
 15 760 l 1,15,-1
 180 760 l 1,16,-1
 180 638 l 1,17,-1
 323 638 l 1,18,-1
 323 596 l 1,19,-1
 180 596 l 1,20,-1
 180 508 l 2,21,22
 180 485 180 485 179 462 c 128,-1,23
 178 439 178 439 178 434 c 1,24,-1
 181 434 l 1,25,26
 198 473 198 473 230 499.5 c 128,-1,27
 262 526 262 526 310 526 c 0,28,29
 381 526 381 526 418.5 479.5 c 128,-1,30
 456 433 456 433 456 330 c 2,31,-1
 456 113 l 2,32,33
 456 66 456 66 473.5 53.5 c 128,-1,34
 491 41 491 41 521 41 c 2,35,-1
 523 41 l 1,36,-1
 523 0 l 1,37,-1
 367 0 l 1,38,-1
 367 326 l 2,39,40
 367 392 367 392 347 427.5 c 128,-1,41
 327 463 327 463 278 463 c 0,42,43
 226 463 226 463 203 419 c 128,-1,44
 180 375 180 375 180 301 c 2,45,-1
 180 108 l 2,46,47
 180 64 180 64 200 52.5 c 128,-1,48
 220 41 220 41 248 41 c 2,49,-1
 251 41 l 1,50,-1
 251 0 l 1,51,-1
 15 0 l 1,0,-1
EndSplineSet
Validated: 1
Substitution2: "'smcp' Lowercase to Small Capitals lookup 38 subtable" hbar.sc
Substitution2: "'aalt' Access All Alternates lookup 0 subtable" hbar.sc
EndChar

StartChar: kgreenlandic
Encoding: 505 312 249
Width: 507
GlyphClass: 2
Flags: W
AnchorPoint: "Anchor-1" 254 536 basechar 0
AnchorPoint: "Anchor-0" 254 0 basechar 0
LayerCount: 2
Fore
SplineSet
15 0 m 1,0,-1
 15 41 l 1,1,-1
 23 41 l 2,2,3
 50 41 50 41 70.5 53.5 c 128,-1,4
 91 66 91 66 91 113 c 2,5,-1
 91 427 l 2,6,7
 91 471 91 471 70 483 c 128,-1,8
 49 495 49 495 23 495 c 2,9,-1
 15 495 l 1,10,-1
 15 536 l 1,11,-1
 180 536 l 1,12,-1
 180 374 l 2,13,14
 180 361 180 361 179.5 339.5 c 128,-1,15
 179 318 179 318 178.5 296.5 c 128,-1,16
 178 275 178 275 177 260.5 c 128,-1,17
 176 246 176 246 176 246 c 1,18,-1
 283 385 l 2,19,20
 311 420 311 420 320 440 c 128,-1,21
 329 460 329 460 329 472 c 0,22,23
 329 495 329 495 287 495 c 1,24,-1
 287 536 l 1,25,-1
 477 536 l 1,26,-1
 477 495 l 1,27,28
 447 495 447 495 418.5 470 c 128,-1,29
 390 445 390 445 357 401 c 2,30,-1
 298 324 l 1,31,-1
 412 124 l 2,32,33
 434 84 434 84 456 62.5 c 128,-1,34
 478 41 478 41 505 41 c 2,35,-1
 508 41 l 1,36,-1
 508 0 l 1,37,-1
 496 0 l 2,38,39
 444 0 444 0 414.5 6 c 128,-1,40
 385 12 385 12 365.5 32.5 c 128,-1,41
 346 53 346 53 322 98 c 2,42,-1
 236 259 l 1,43,-1
 180 194 l 1,44,-1
 180 108 l 2,45,46
 180 64 180 64 201 52.5 c 128,-1,47
 222 41 222 41 248 41 c 2,48,-1
 252 41 l 1,49,-1
 252 0 l 1,50,-1
 15 0 l 1,0,-1
EndSplineSet
Validated: 1
EndChar

StartChar: Lcaron
Encoding: 510 317 254
Width: 536
GlyphClass: 2
Flags: W
AnchorPoint: "Anchor-3" 268 357 basechar 0
AnchorPoint: "Anchor-2" 516 714 basechar 0
AnchorPoint: "Anchor-1" 268 714 basechar 0
AnchorPoint: "Anchor-0" 268 0 basechar 0
LayerCount: 2
Fore
SplineSet
364 554 m 1,0,-1
 364 567 l 1,1,2
 372 601 372 601 379 639 c 128,-1,3
 386 677 386 677 392 714 c 1,4,-1
 470 714 l 1,5,-1
 470 704 l 1,6,7
 462 683 462 683 449.5 656 c 128,-1,8
 437 629 437 629 423 602 c 128,-1,9
 409 575 409 575 397 554 c 1,10,-1
 364 554 l 1,0,-1
31 0 m 1,11,-1
 31 41 l 1,12,-1
 48 41 l 2,13,14
 75 41 75 41 93.5 54 c 128,-1,15
 112 67 112 67 112 111 c 2,16,-1
 112 602 l 2,17,18
 112 647 112 647 93 660 c 128,-1,19
 74 673 74 673 46 673 c 2,20,-1
 31 673 l 1,21,-1
 31 714 l 1,22,-1
 288 714 l 1,23,-1
 288 673 l 1,24,-1
 272 673 l 2,25,26
 242 673 242 673 224.5 660.5 c 128,-1,27
 207 648 207 648 207 605 c 2,28,-1
 207 49 l 1,29,-1
 374 49 l 2,30,31
 411 49 411 49 428 75 c 128,-1,32
 445 101 445 101 450 139 c 2,33,-1
 459 214 l 1,34,-1
 502 214 l 1,35,-1
 496 0 l 1,36,-1
 31 0 l 1,11,-1
EndSplineSet
Validated: 1
Substitution2: "'c2sc' Capitals to Small Capitals lookup 37 subtable" lcaron.sc
Substitution2: "'aalt' Access All Alternates lookup 0 subtable" lcaron.sc
EndChar

StartChar: lcaron
Encoding: 511 318 255
Width: 270
GlyphClass: 2
Flags: W
AnchorPoint: "Anchor-3" 135 268 basechar 0
AnchorPoint: "Anchor-2" 225 760 basechar 0
AnchorPoint: "Anchor-1" 135 760 basechar 0
AnchorPoint: "Anchor-0" 135 0 basechar 0
LayerCount: 2
Fore
SplineSet
226 600 m 1,0,-1
 226 613 l 1,1,2
 234 647 234 647 241.5 685 c 128,-1,3
 249 723 249 723 254 760 c 1,4,-1
 332 760 l 1,5,-1
 332 750 l 1,6,7
 324 729 324 729 312 702 c 128,-1,8
 300 675 300 675 286 648 c 128,-1,9
 272 621 272 621 260 600 c 1,10,-1
 226 600 l 1,0,-1
12 0 m 1,11,-1
 12 41 l 1,12,-1
 23 41 l 2,13,14
 53 41 53 41 72 54 c 128,-1,15
 91 67 91 67 91 115 c 2,16,-1
 91 651 l 2,17,18
 91 695 91 695 70 707 c 128,-1,19
 49 719 49 719 23 719 c 2,20,-1
 12 719 l 1,21,-1
 12 760 l 1,22,-1
 180 760 l 1,23,-1
 180 115 l 2,24,25
 180 67 180 67 199 54 c 128,-1,26
 218 41 218 41 248 41 c 2,27,-1
 259 41 l 1,28,-1
 259 0 l 1,29,-1
 12 0 l 1,11,-1
EndSplineSet
Validated: 1
Substitution2: "'smcp' Lowercase to Small Capitals lookup 38 subtable" lcaron.sc
Substitution2: "'aalt' Access All Alternates lookup 0 subtable" lcaron.sc
EndChar

StartChar: Lslash
Encoding: 514 321 258
Width: 536
GlyphClass: 2
Flags: W
AnchorPoint: "Anchor-1" 269 714 basechar 0
AnchorPoint: "Anchor-0" 269 0 basechar 0
LayerCount: 2
Fore
SplineSet
31 0 m 1,0,-1
 31 41 l 1,1,-1
 48 41 l 2,2,3
 75 41 75 41 94 54 c 128,-1,4
 113 67 113 67 113 111 c 2,5,-1
 113 287 l 1,6,-1
 33 232 l 1,7,-1
 33 284 l 1,8,-1
 113 340 l 1,9,-1
 113 602 l 2,10,11
 113 647 113 647 94 660 c 128,-1,12
 75 673 75 673 46 673 c 2,13,-1
 31 673 l 1,14,-1
 31 714 l 1,15,-1
 288 714 l 1,16,-1
 288 673 l 1,17,-1
 272 673 l 2,18,19
 242 673 242 673 224.5 660.5 c 128,-1,20
 207 648 207 648 207 605 c 2,21,-1
 207 396 l 1,22,-1
 339 487 l 1,23,-1
 339 432 l 1,24,-1
 207 342 l 1,25,-1
 207 49 l 1,26,-1
 374 49 l 2,27,28
 411 49 411 49 428 75 c 128,-1,29
 445 101 445 101 450 139 c 2,30,-1
 459 214 l 1,31,-1
 502 214 l 1,32,-1
 496 0 l 1,33,-1
 31 0 l 1,0,-1
EndSplineSet
Validated: 1
Substitution2: "'c2sc' Capitals to Small Capitals lookup 37 subtable" lslash.sc
Substitution2: "'aalt' Access All Alternates lookup 0 subtable" lslash.sc
EndChar

StartChar: lslash
Encoding: 515 322 259
Width: 281
GlyphClass: 2
Flags: W
AnchorPoint: "Anchor-1" 140 760 basechar 0
AnchorPoint: "Anchor-0" 140 0 basechar 0
LayerCount: 2
Fore
SplineSet
25 0 m 1,0,-1
 25 41 l 1,1,-1
 35 41 l 2,2,3
 66 41 66 41 85 54 c 128,-1,4
 104 67 104 67 104 115 c 2,5,-1
 104 288 l 1,6,-1
 30 237 l 1,7,-1
 30 286 l 1,8,-1
 104 338 l 1,9,-1
 104 651 l 2,10,11
 104 695 104 695 83 707 c 128,-1,12
 62 719 62 719 35 719 c 2,13,-1
 25 719 l 1,14,-1
 25 760 l 1,15,-1
 193 760 l 1,16,-1
 193 392 l 1,17,-1
 273 448 l 1,18,-1
 273 397 l 1,19,-1
 193 341 l 1,20,-1
 193 115 l 2,21,22
 193 67 193 67 212 54 c 128,-1,23
 231 41 231 41 261 41 c 2,24,-1
 272 41 l 1,25,-1
 272 0 l 1,26,-1
 25 0 l 1,0,-1
EndSplineSet
Validated: 1
Substitution2: "'smcp' Lowercase to Small Capitals lookup 38 subtable" lslash.sc
Substitution2: "'aalt' Access All Alternates lookup 0 subtable" lslash.sc
EndChar

StartChar: Eng
Encoding: 523 330 267
Width: 655
GlyphClass: 2
Flags: W
AnchorPoint: "Anchor-1" 328 714 basechar 0
AnchorPoint: "Anchor-0" 328 -240 basechar 0
LayerCount: 2
Fore
SplineSet
395 -240 m 1,0,-1
 395 -194 l 1,1,-1
 406 -194 l 2,2,3
 450 -194 450 -194 474 -154.5 c 128,-1,4
 498 -115 498 -115 498 -10 c 2,5,-1
 498 4 l 1,6,-1
 166 589 l 1,7,-1
 166 113 l 2,8,9
 166 66 166 66 184 53.5 c 128,-1,10
 202 41 202 41 232 41 c 2,11,-1
 247 41 l 1,12,-1
 247 0 l 1,13,-1
 31 0 l 1,14,-1
 31 41 l 1,15,-1
 43 41 l 2,16,17
 74 41 74 41 93 53.5 c 128,-1,18
 112 66 112 66 112 113 c 2,19,-1
 112 605 l 2,20,21
 112 649 112 649 93 661 c 128,-1,22
 74 673 74 673 45 673 c 2,23,-1
 31 673 l 1,24,-1
 31 714 l 1,25,-1
 192 714 l 1,26,-1
 498 158 l 1,27,-1
 498 605 l 2,28,29
 498 648 498 648 479 660.5 c 128,-1,30
 460 673 460 673 431 673 c 2,31,-1
 418 673 l 1,32,-1
 418 714 l 1,33,-1
 633 714 l 1,34,-1
 633 673 l 1,35,-1
 618 673 l 2,36,37
 589 673 589 673 570.5 660 c 128,-1,38
 552 647 552 647 552 601 c 2,39,-1
 552 -8 l 2,40,41
 552 -96 552 -96 537 -147 c 128,-1,42
 522 -198 522 -198 492 -219 c 128,-1,43
 462 -240 462 -240 415 -240 c 2,44,-1
 395 -240 l 1,0,-1
EndSplineSet
Validated: 1
Substitution2: "'c2sc' Capitals to Small Capitals lookup 37 subtable" eng.sc
AlternateSubs2: "'aalt' Access All Alternates lookup 1 subtable" Eng.alt1 Eng.alt2 Eng.alt3 eng.sc
EndChar

StartChar: eng
Encoding: 524 331 268
Width: 547
GlyphClass: 2
Flags: W
AnchorPoint: "Anchor-2" 522 536 basechar 0
AnchorPoint: "Anchor-1" 273 536 basechar 0
AnchorPoint: "Anchor-0" 273 -240 basechar 0
LayerCount: 2
Fore
SplineSet
285 -240 m 1,0,-1
 285 -194 l 1,1,-1
 290 -194 l 2,2,3
 317 -194 317 -194 336 -177.5 c 128,-1,4
 355 -161 355 -161 365 -121 c 128,-1,5
 375 -81 375 -81 375 -10 c 2,6,-1
 375 346 l 2,7,8
 375 412 375 412 355 448 c 128,-1,9
 335 484 335 484 288 484 c 0,10,11
 250 484 250 484 228 461 c 128,-1,12
 206 438 206 438 197 401 c 128,-1,13
 188 364 188 364 188 321 c 2,14,-1
 188 108 l 2,15,16
 188 64 188 64 207 52.5 c 128,-1,17
 226 41 226 41 256 41 c 2,18,-1
 258 41 l 1,19,-1
 258 0 l 1,20,-1
 22 0 l 1,21,-1
 22 41 l 1,22,-1
 30 41 l 2,23,24
 59 41 59 41 78.5 53.5 c 128,-1,25
 98 66 98 66 98 113 c 2,26,-1
 98 427 l 2,27,28
 98 471 98 471 78.5 483 c 128,-1,29
 59 495 59 495 30 495 c 2,30,-1
 27 495 l 1,31,-1
 27 536 l 1,32,-1
 173 536 l 1,33,-1
 184 454 l 1,34,-1
 189 454 l 1,35,36
 212 507 212 507 244 526.5 c 128,-1,37
 276 546 276 546 321 546 c 0,38,39
 388 546 388 546 425.5 499 c 128,-1,40
 463 452 463 452 463 349 c 2,41,-1
 463 -8 l 2,42,43
 463 -97 463 -97 441.5 -148 c 128,-1,44
 420 -199 420 -199 383 -219.5 c 128,-1,45
 346 -240 346 -240 297 -240 c 2,46,-1
 285 -240 l 1,0,-1
EndSplineSet
Validated: 1
Substitution2: "'smcp' Lowercase to Small Capitals lookup 38 subtable" eng.sc
Substitution2: "'aalt' Access All Alternates lookup 0 subtable" eng.sc
EndChar

StartChar: OE
Encoding: 531 338 275
Width: 828
GlyphClass: 2
Flags: W
AnchorPoint: "Anchor-1" 414 714 basechar 0
AnchorPoint: "Anchor-0" 414 0 basechar 0
LayerCount: 2
Fore
SplineSet
320 -10 m 0,0,1
 228 -10 228 -10 167.5 36 c 128,-1,2
 107 82 107 82 77.5 165 c 128,-1,3
 48 248 48 248 48 359 c 256,4,5
 48 470 48 470 77.5 552 c 128,-1,6
 107 634 107 634 168 679.5 c 128,-1,7
 229 725 229 725 321 725 c 0,8,9
 342 725 342 725 367 722 c 128,-1,10
 392 719 392 719 410 714 c 1,11,-1
 760 714 l 1,12,-1
 765 540 l 1,13,-1
 717 540 l 1,14,-1
 713 582 l 2,15,16
 710 616 710 616 693 640.5 c 128,-1,17
 676 665 676 665 637 665 c 2,18,-1
 497 665 l 1,19,-1
 497 398 l 1,20,-1
 703 398 l 1,21,-1
 703 350 l 1,22,-1
 497 350 l 1,23,-1
 497 49 l 1,24,-1
 657 49 l 2,25,26
 699 49 699 49 717.5 73.5 c 128,-1,27
 736 98 736 98 740 132 c 2,28,-1
 746 174 l 1,29,-1
 793 174 l 1,30,-1
 788 0 l 1,31,-1
 408 0 l 1,32,33
 390 -4 390 -4 365.5 -7 c 128,-1,34
 341 -10 341 -10 320 -10 c 0,0,1
320 43 m 0,35,36
 345 43 345 43 366 46.5 c 128,-1,37
 387 50 387 50 403 56 c 1,38,-1
 403 658 l 1,39,40
 371 672 371 672 321 672 c 0,41,42
 230 672 230 672 190.5 589.5 c 128,-1,43
 151 507 151 507 151 358 c 0,44,45
 151 210 151 210 190.5 126.5 c 128,-1,46
 230 43 230 43 320 43 c 0,35,36
EndSplineSet
Validated: 1
Substitution2: "'c2sc' Capitals to Small Capitals lookup 37 subtable" oe.sc
Substitution2: "'aalt' Access All Alternates lookup 0 subtable" oe.sc
EndChar

StartChar: oe
Encoding: 532 339 276
Width: 778
GlyphClass: 2
Flags: W
AnchorPoint: "Anchor-1" 389 536 basechar 0
AnchorPoint: "Anchor-0" 389 0 basechar 0
LayerCount: 2
Fore
SplineSet
248 -10 m 0,0,1
 154 -10 154 -10 100 59 c 128,-1,2
 46 128 46 128 46 269 c 0,3,4
 46 409 46 409 97.5 477.5 c 128,-1,5
 149 546 149 546 251 546 c 0,6,7
 356 546 356 546 406 455 c 1,8,9
 453 546 453 546 555 546 c 0,10,11
 639 546 639 546 688 484.5 c 128,-1,12
 737 423 737 423 737 305 c 2,13,-1
 737 263 l 1,14,-1
 452 263 l 1,15,16
 454 47 454 47 580 47 c 0,17,18
 624 47 624 47 654.5 70 c 128,-1,19
 685 93 685 93 700 124 c 1,20,21
 707 120 707 120 713 112 c 128,-1,22
 719 104 719 104 719 90 c 0,23,24
 719 70 719 70 702.5 46.5 c 128,-1,25
 686 23 686 23 651.5 6.5 c 128,-1,26
 617 -10 617 -10 563 -10 c 0,27,28
 457 -10 457 -10 408 82 c 1,29,30
 360 -10 360 -10 248 -10 c 0,0,1
454 314 m 1,31,-1
 646 314 l 1,32,33
 645 395 645 395 624.5 445 c 128,-1,34
 604 495 604 495 555 495 c 0,35,36
 508 495 508 495 482.5 448 c 128,-1,37
 457 401 457 401 454 314 c 1,31,-1
250 41 m 0,38,39
 311 41 311 41 335.5 98.5 c 128,-1,40
 360 156 360 156 361 269 c 0,41,42
 360 383 360 383 335 438.5 c 128,-1,43
 310 494 310 494 249 494 c 0,44,45
 187 494 187 494 162 437.5 c 128,-1,46
 137 381 137 381 137 269 c 256,47,48
 137 157 137 157 162.5 99 c 128,-1,49
 188 41 188 41 250 41 c 0,38,39
EndSplineSet
Validated: 1
Substitution2: "'smcp' Lowercase to Small Capitals lookup 38 subtable" oe.sc
Substitution2: "'aalt' Access All Alternates lookup 0 subtable" oe.sc
EndChar

StartChar: tcaron
Encoding: 550 357 294
Width: 309
GlyphClass: 2
Flags: W
AnchorPoint: "Anchor-3" 155 268 basechar 0
AnchorPoint: "Anchor-2" 290 659 basechar 0
AnchorPoint: "Anchor-1" 155 760 basechar 0
AnchorPoint: "Anchor-0" 155 0 basechar 0
LayerCount: 2
Fore
SplineSet
229 600 m 1,0,-1
 229 613 l 1,1,2
 236 647 236 647 243.5 685 c 128,-1,3
 251 723 251 723 256 760 c 1,4,-1
 334 760 l 1,5,-1
 334 750 l 1,6,7
 327 729 327 729 314.5 702 c 128,-1,8
 302 675 302 675 288 648 c 128,-1,9
 274 621 274 621 262 600 c 1,10,-1
 229 600 l 1,0,-1
203 -10 m 0,11,12
 141 -10 141 -10 111.5 24.5 c 128,-1,13
 82 59 82 59 82 145 c 2,14,-1
 82 487 l 1,15,-1
 16 487 l 1,16,-1
 16 520 l 1,17,18
 38 524 38 524 55.5 532.5 c 128,-1,19
 73 541 73 541 87 557 c 0,20,21
 100 573 100 573 109 595.5 c 128,-1,22
 118 618 118 618 124 659 c 1,23,-1
 170 659 l 1,24,-1
 170 536 l 1,25,-1
 282 536 l 1,26,-1
 282 487 l 1,27,-1
 170 487 l 1,28,-1
 170 143 l 2,29,30
 170 90 170 90 185.5 66.5 c 128,-1,31
 201 43 201 43 231 43 c 0,32,33
 248 43 248 43 262 45 c 128,-1,34
 276 47 276 47 290 51 c 1,35,-1
 290 5 l 1,36,37
 277 0 277 0 254 -5 c 128,-1,38
 231 -10 231 -10 203 -10 c 0,11,12
EndSplineSet
Validated: 1
Substitution2: "'smcp' Lowercase to Small Capitals lookup 38 subtable" tcaron.sc
Substitution2: "'aalt' Access All Alternates lookup 0 subtable" tcaron.sc
EndChar

StartChar: Tbar
Encoding: 551 358 295
Width: 530
GlyphClass: 2
Flags: W
AnchorPoint: "Anchor-1" 265 714 basechar 0
AnchorPoint: "Anchor-0" 265 0 basechar 0
LayerCount: 2
Fore
SplineSet
128 0 m 1,0,-1
 128 41 l 1,1,-1
 151 41 l 2,2,3
 177 41 177 41 197 52.5 c 128,-1,4
 217 64 217 64 217 108 c 2,5,-1
 217 333 l 1,6,-1
 87 333 l 1,7,-1
 87 378 l 1,8,-1
 217 378 l 1,9,-1
 217 665 l 1,10,-1
 137 665 l 2,11,12
 99 665 99 665 84.5 640 c 128,-1,13
 70 615 70 615 67 582 c 2,14,-1
 62 540 l 1,15,-1
 16 540 l 1,16,-1
 20 714 l 1,17,-1
 509 714 l 1,18,-1
 513 540 l 1,19,-1
 468 540 l 1,20,-1
 463 582 l 2,21,22
 459 615 459 615 444.5 640 c 128,-1,23
 430 665 430 665 391 665 c 2,24,-1
 311 665 l 1,25,-1
 311 378 l 1,26,-1
 440 378 l 1,27,-1
 440 333 l 1,28,-1
 311 333 l 1,29,-1
 311 113 l 2,30,31
 311 66 311 66 330.5 53.5 c 128,-1,32
 350 41 350 41 377 41 c 2,33,-1
 399 41 l 1,34,-1
 399 0 l 1,35,-1
 128 0 l 1,0,-1
EndSplineSet
Validated: 1
Substitution2: "'c2sc' Capitals to Small Capitals lookup 37 subtable" tbar.sc
Substitution2: "'aalt' Access All Alternates lookup 0 subtable" tbar.sc
EndChar

StartChar: tbar
Encoding: 552 359 296
Width: 309
GlyphClass: 2
Flags: W
AnchorPoint: "Anchor-3" 155 268 basechar 0
AnchorPoint: "Anchor-2" 290 659 basechar 0
AnchorPoint: "Anchor-1" 152 659 basechar 0
AnchorPoint: "Anchor-0" 152 0 basechar 0
LayerCount: 2
Fore
SplineSet
203 -10 m 0,0,1
 141 -10 141 -10 111.5 24.5 c 128,-1,2
 82 59 82 59 82 145 c 2,3,-1
 82 291 l 1,4,-1
 23 291 l 1,5,-1
 23 335 l 1,6,-1
 82 335 l 1,7,-1
 82 487 l 1,8,-1
 16 487 l 1,9,-1
 16 520 l 1,10,11
 38 524 38 524 55.5 532.5 c 128,-1,12
 73 541 73 541 87 557 c 0,13,14
 100 573 100 573 109 595.5 c 128,-1,15
 118 618 118 618 124 659 c 1,16,-1
 170 659 l 1,17,-1
 170 536 l 1,18,-1
 282 536 l 1,19,-1
 282 487 l 1,20,-1
 170 487 l 1,21,-1
 170 335 l 1,22,-1
 267 335 l 1,23,-1
 267 291 l 1,24,-1
 170 291 l 1,25,-1
 170 143 l 2,26,27
 170 90 170 90 185.5 66.5 c 128,-1,28
 201 43 201 43 231 43 c 0,29,30
 248 43 248 43 262 45 c 128,-1,31
 276 47 276 47 290 51 c 1,32,-1
 290 5 l 1,33,34
 277 0 277 0 254 -5 c 128,-1,35
 231 -10 231 -10 203 -10 c 0,0,1
EndSplineSet
Validated: 1
Substitution2: "'smcp' Lowercase to Small Capitals lookup 38 subtable" tbar.sc
Substitution2: "'aalt' Access All Alternates lookup 0 subtable" tbar.sc
EndChar

StartChar: longs
Encoding: 576 383 320
Width: 308
GlyphClass: 2
Flags: W
AnchorPoint: "Anchor-1" 222 770 basechar 0
AnchorPoint: "Anchor-0" 154 0 basechar 0
LayerCount: 2
Fore
SplineSet
10 0 m 1,0,-1
 10 41 l 1,1,-1
 23 41 l 2,2,3
 53 41 53 41 72 54 c 128,-1,4
 91 67 91 67 91 115 c 2,5,-1
 91 587 l 2,6,7
 91 676 91 676 133 723 c 128,-1,8
 175 770 175 770 250 770 c 0,9,10
 318 770 318 770 344 749 c 128,-1,11
 370 728 370 728 370 699 c 0,12,13
 370 673 370 673 350.5 659 c 128,-1,14
 331 645 331 645 299 645 c 1,15,16
 299 678 299 678 287.5 701.5 c 128,-1,17
 276 725 276 725 244 725 c 0,18,19
 208 725 208 725 194 691 c 128,-1,20
 180 657 180 657 180 595 c 2,21,-1
 180 115 l 2,22,23
 180 68 180 68 199 54.5 c 128,-1,24
 218 41 218 41 248 41 c 2,25,-1
 282 41 l 1,26,-1
 282 0 l 1,27,-1
 10 0 l 1,0,-1
EndSplineSet
Validated: 1
EndChar

StartChar: florin
Encoding: 577 402 321
Width: 382
GlyphClass: 2
Flags: W
AnchorPoint: "Anchor-2" 443 770 basechar 0
AnchorPoint: "Anchor-1" 301 771 basechar 0
AnchorPoint: "Anchor-0" 104 -11 basechar 0
LayerCount: 2
Fore
SplineSet
104 -11 m 0,0,1
 51 -11 51 -11 21.5 12.5 c 128,-1,2
 -8 36 -8 36 -8 74 c 0,3,4
 -8 102 -8 102 10.5 116.5 c 128,-1,5
 29 131 29 131 58 131 c 1,6,7
 58 87 58 87 69.5 61 c 128,-1,8
 81 35 81 35 108 35 c 0,9,10
 139 35 139 35 152.5 67 c 128,-1,11
 166 99 166 99 166 162 c 2,12,-1
 166 488 l 1,13,-1
 88 488 l 1,14,-1
 88 536 l 1,15,-1
 166 536 l 1,16,-1
 166 587 l 2,17,18
 166 676 166 676 207 723 c 128,-1,19
 248 770 248 770 324 770 c 0,20,21
 389 770 389 770 415 750 c 128,-1,22
 441 730 441 730 441 701 c 0,23,24
 441 675 441 675 423 659.5 c 128,-1,25
 405 644 405 644 370 644 c 1,26,27
 370 675 370 675 359 700 c 128,-1,28
 348 725 348 725 317 725 c 0,29,30
 282 725 282 725 268 691.5 c 128,-1,31
 254 658 254 658 254 596 c 2,32,-1
 254 536 l 1,33,-1
 374 536 l 1,34,-1
 374 488 l 1,35,-1
 254 488 l 1,36,-1
 254 168 l 2,37,38
 254 78 254 78 214.5 33.5 c 128,-1,39
 175 -11 175 -11 104 -11 c 0,0,1
EndSplineSet
Validated: 1
Substitution2: "'ss03' Style Set 3 lookup 43 subtable" florin.ss03
EndChar

StartChar: Aringacute
Encoding: 578 506 322
Width: 609
GlyphClass: 2
Flags: W
AnchorPoint: "Anchor-1" 305 958 basechar 0
AnchorPoint: "Anchor-0" 305 0 basechar 0
LayerCount: 2
Fore
SplineSet
266 830 m 1,0,-1
 266 840 l 1,1,2
 284 863 284 863 306 897 c 128,-1,3
 328 931 328 931 341 958 c 1,4,-1
 440 958 l 1,5,-1
 440 950 l 1,6,7
 429 936 429 936 405.5 913 c 128,-1,8
 382 890 382 890 354 867.5 c 128,-1,9
 326 845 326 845 303 830 c 1,10,-1
 266 830 l 1,0,-1
1 0 m 1,11,-1
 1 41 l 1,12,-1
 16 41 l 2,13,14
 38 41 38 41 52 55 c 128,-1,15
 66 69 66 69 82 112 c 2,16,-1
 257 603 l 1,17,18
 232 613 232 613 217.5 638 c 128,-1,19
 203 663 203 663 203 703 c 0,20,21
 203 756 203 756 232.5 784 c 128,-1,22
 262 812 262 812 305 812 c 0,23,24
 349 812 349 812 378.5 784 c 128,-1,25
 408 756 408 756 408 703 c 0,26,27
 408 665 408 665 394.5 640 c 128,-1,28
 381 615 381 615 358 603 c 1,29,-1
 536 88 l 2,30,31
 545 60 545 60 559 50.5 c 128,-1,32
 573 41 573 41 597 41 c 2,33,-1
 609 41 l 1,34,-1
 609 0 l 1,35,-1
 366 0 l 1,36,-1
 366 41 l 1,37,-1
 389 41 l 2,38,39
 437 41 437 41 437 80 c 0,40,41
 437 92 437 92 434 104.5 c 128,-1,42
 431 117 431 117 427 131 c 2,43,-1
 398 218 l 1,44,-1
 174 218 l 1,45,-1
 149 139 l 2,46,47
 145 124 145 124 140 108.5 c 128,-1,48
 135 93 135 93 135 82 c 0,49,50
 135 41 135 41 190 41 c 2,51,-1
 212 41 l 1,52,-1
 212 0 l 1,53,-1
 1 0 l 1,11,-1
305 639 m 256,54,55
 329 639 329 639 346 653.5 c 128,-1,56
 363 668 363 668 363 703 c 0,57,58
 363 737 363 737 346 751.5 c 128,-1,59
 329 766 329 766 305 766 c 0,60,61
 282 766 282 766 265 751.5 c 128,-1,62
 248 737 248 737 248 703 c 0,63,64
 248 668 248 668 264.5 653.5 c 128,-1,65
 281 639 281 639 305 639 c 256,54,55
192 267 m 1,66,-1
 379 267 l 1,67,-1
 329 426 l 2,68,69
 316 467 316 467 305.5 503 c 128,-1,70
 295 539 295 539 287 569 c 1,71,72
 280 537 280 537 271 508.5 c 128,-1,73
 262 480 262 480 248 438 c 2,74,-1
 192 267 l 1,66,-1
EndSplineSet
Validated: 1
Substitution2: "'c2sc' Capitals to Small Capitals lookup 37 subtable" aringacute.sc
Substitution2: "'aalt' Access All Alternates lookup 0 subtable" aringacute.sc
EndChar

StartChar: aringacute
Encoding: 579 507 323
Width: 487
GlyphClass: 2
Flags: W
AnchorPoint: "Anchor-1" 244 958 basechar 0
AnchorPoint: "Anchor-0" 244 0 basechar 0
LayerCount: 2
Fore
SplineSet
199 830 m 1,0,-1
 199 840 l 1,1,2
 218 863 218 863 239.5 897 c 128,-1,3
 261 931 261 931 275 958 c 1,4,-1
 374 958 l 1,5,-1
 374 950 l 1,6,7
 363 936 363 936 339 913 c 128,-1,8
 315 890 315 890 287 867.5 c 128,-1,9
 259 845 259 845 236 830 c 1,10,-1
 199 830 l 1,0,-1
243 583 m 0,11,12
 199 583 199 583 169.5 611 c 128,-1,13
 140 639 140 639 140 692 c 256,14,15
 140 745 140 745 169.5 773 c 128,-1,16
 199 801 199 801 243 801 c 0,17,18
 286 801 286 801 315.5 773 c 128,-1,19
 345 745 345 745 345 692 c 256,20,21
 345 639 345 639 315.5 611 c 128,-1,22
 286 583 286 583 243 583 c 0,11,12
243 632 m 0,23,24
 265 632 265 632 281.5 646 c 128,-1,25
 298 660 298 660 298 692 c 256,26,27
 298 724 298 724 281.5 738 c 128,-1,28
 265 752 265 752 243 752 c 0,29,30
 220 752 220 752 203.5 738 c 128,-1,31
 187 724 187 724 187 692 c 256,32,33
 187 660 187 660 203.5 646 c 128,-1,34
 220 632 220 632 243 632 c 0,23,24
175 -10 m 0,35,36
 118 -10 118 -10 80 29 c 128,-1,37
 42 68 42 68 42 150 c 0,38,39
 42 230 42 230 90 268 c 128,-1,40
 138 306 138 306 236 309 c 2,41,-1
 306 312 l 1,42,-1
 306 373 l 2,43,44
 306 409 306 409 301.5 437 c 128,-1,45
 297 465 297 465 281 481 c 128,-1,46
 265 497 265 497 232 497 c 0,47,48
 186 497 186 497 172 466 c 128,-1,49
 158 435 158 435 158 388 c 1,50,51
 119 388 119 388 98 402 c 128,-1,52
 77 416 77 416 77 450 c 0,53,54
 77 485 77 485 98.5 506 c 128,-1,55
 120 527 120 527 156 536.5 c 128,-1,56
 192 546 192 546 236 546 c 0,57,58
 315 546 315 546 355.5 507 c 128,-1,59
 396 468 396 468 396 372 c 2,60,-1
 396 113 l 2,61,62
 396 71 396 71 407.5 56 c 128,-1,63
 419 41 419 41 448 41 c 2,64,-1
 451 41 l 1,65,-1
 451 0 l 1,66,-1
 328 0 l 1,67,-1
 314 87 l 1,68,-1
 306 87 l 1,69,70
 288 59 288 59 271.5 37 c 128,-1,71
 255 15 255 15 232.5 2.5 c 128,-1,72
 210 -10 210 -10 175 -10 c 0,35,36
199 51 m 0,73,74
 249 51 249 51 278 89 c 128,-1,75
 307 127 307 127 307 191 c 2,76,-1
 307 273 l 1,77,-1
 256 270 l 2,78,79
 187 266 187 266 160.5 234.5 c 128,-1,80
 134 203 134 203 134 144 c 0,81,82
 134 51 134 51 199 51 c 0,73,74
EndSplineSet
Validated: 1
Substitution2: "'smcp' Lowercase to Small Capitals lookup 38 subtable" aringacute.sc
Substitution2: "'aalt' Access All Alternates lookup 0 subtable" aringacute.sc
EndChar

StartChar: circumflex
Encoding: 586 710 330
Width: 341
Flags: W
LayerCount: 2
Fore
SplineSet
40 606 m 1,0,-1
 40 619 l 1,1,2
 53 638 53 638 70 664 c 128,-1,3
 87 690 87 690 102.5 717 c 128,-1,4
 118 744 118 744 127 766 c 1,5,-1
 214 766 l 1,6,7
 223 744 223 744 238.5 717 c 128,-1,8
 254 690 254 690 270.5 664 c 128,-1,9
 287 638 287 638 301 619 c 1,10,-1
 301 606 l 1,11,-1
 263 606 l 1,12,13
 240 628 240 628 215 654 c 128,-1,14
 190 680 190 680 170 707 c 1,15,16
 151 680 151 680 126 654 c 128,-1,17
 101 628 101 628 78 606 c 1,18,-1
 40 606 l 1,0,-1
EndSplineSet
Validated: 1
EndChar

StartChar: caron
Encoding: 587 711 331
Width: 341
Flags: W
LayerCount: 2
Fore
SplineSet
127 606 m 1,0,1
 118 629 118 629 102.5 655.5 c 128,-1,2
 87 682 87 682 70 708 c 128,-1,3
 53 734 53 734 40 753 c 1,4,-1
 40 766 l 1,5,-1
 78 766 l 1,6,7
 101 744 101 744 126 718 c 128,-1,8
 151 692 151 692 170 665 c 1,9,10
 190 692 190 692 215 718 c 128,-1,11
 240 744 240 744 263 766 c 1,12,-1
 301 766 l 1,13,-1
 301 753 l 1,14,15
 287 734 287 734 270.5 708 c 128,-1,16
 254 682 254 682 238.5 655.5 c 128,-1,17
 223 629 223 629 214 606 c 1,18,-1
 127 606 l 1,0,1
EndSplineSet
Validated: 1
EndChar

StartChar: macron
Encoding: 588 713 332
Width: 327
Flags: W
LayerCount: 2
Fore
SplineSet
40 617 m 1,0,-1
 40 674 l 1,1,-1
 287 674 l 1,2,-1
 287 617 l 1,3,-1
 40 617 l 1,0,-1
EndSplineSet
Validated: 1
EndChar

StartChar: breve
Encoding: 589 728 333
Width: 325
Flags: W
LayerCount: 2
Fore
SplineSet
163 606 m 256,0,1
 101 606 101 606 71 645.5 c 128,-1,2
 41 685 41 685 40 741 c 1,3,-1
 83 741 l 1,4,5
 89 705 89 705 110.5 689 c 128,-1,6
 132 673 132 673 163 673 c 0,7,8
 193 673 193 673 214.5 689 c 128,-1,9
 236 705 236 705 243 741 c 1,10,-1
 285 741 l 1,11,12
 284 685 284 685 254.5 645.5 c 128,-1,13
 225 606 225 606 163 606 c 256,0,1
EndSplineSet
Validated: 1
EndChar

StartChar: dotaccent
Encoding: 590 729 334
Width: 186
Flags: W
LayerCount: 2
Fore
SplineSet
93 640 m 0,0,1
 70 640 70 640 55 653 c 128,-1,2
 40 666 40 666 40 698 c 0,3,4
 40 731 40 731 55 744 c 128,-1,5
 70 757 70 757 93 757 c 0,6,7
 114 757 114 757 130 744 c 128,-1,8
 146 731 146 731 146 698 c 0,9,10
 146 666 146 666 130 653 c 128,-1,11
 114 640 114 640 93 640 c 0,0,1
EndSplineSet
Validated: 1
EndChar

StartChar: ring
Encoding: 591 730 335
Width: 284
Flags: W
LayerCount: 2
Fore
SplineSet
142 596 m 0,0,1
 99 596 99 596 69 624 c 128,-1,2
 39 652 39 652 39 705 c 256,3,4
 39 758 39 758 69 786 c 128,-1,5
 99 814 99 814 142 814 c 0,6,7
 184 814 184 814 214 786 c 128,-1,8
 244 758 244 758 244 705 c 256,9,10
 244 652 244 652 214 624 c 128,-1,11
 184 596 184 596 142 596 c 0,0,1
142 641 m 0,12,13
 165 641 165 641 182.5 655.5 c 128,-1,14
 200 670 200 670 200 705 c 256,15,16
 200 740 200 740 182.5 754.5 c 128,-1,17
 165 769 165 769 142 769 c 0,18,19
 118 769 118 769 101 754.5 c 128,-1,20
 84 740 84 740 84 705 c 256,21,22
 84 670 84 670 101 655.5 c 128,-1,23
 118 641 118 641 142 641 c 0,12,13
EndSplineSet
Validated: 1
EndChar

StartChar: ogonek
Encoding: 592 731 336
Width: 427
Flags: W
LayerCount: 2
Fore
SplineSet
261 -234 m 0,0,1
 208 -234 208 -234 178 -209.5 c 128,-1,2
 148 -185 148 -185 148 -130 c 0,3,4
 148 -81 148 -81 178 -45.5 c 128,-1,5
 208 -10 208 -10 242 0 c 1,6,-1
 296 0 l 1,7,8
 268 -10 268 -10 242 -41.5 c 128,-1,9
 216 -73 216 -73 216 -121 c 0,10,11
 216 -153 216 -153 231.5 -168 c 128,-1,12
 247 -183 247 -183 273 -183 c 0,13,14
 298 -183 298 -183 327 -172 c 1,15,-1
 327 -220 l 1,16,17
 313 -227 313 -227 294 -230.5 c 128,-1,18
 275 -234 275 -234 261 -234 c 0,0,1
EndSplineSet
Validated: 1
EndChar

StartChar: tilde
Encoding: 593 732 337
Width: 391
Flags: W
LayerCount: 2
Fore
SplineSet
258 606 m 0,0,1
 236 606 236 606 217.5 615.5 c 128,-1,2
 199 625 199 625 183 637.5 c 128,-1,3
 167 650 167 650 152.5 659.5 c 128,-1,4
 138 669 138 669 124 669 c 0,5,6
 101 669 101 669 92.5 652.5 c 128,-1,7
 84 636 84 636 82 616 c 1,8,-1
 40 616 l 1,9,10
 42 645 42 645 52.5 671.5 c 128,-1,11
 63 698 63 698 83 715 c 128,-1,12
 103 732 103 732 134 732 c 0,13,14
 156 732 156 732 174.5 722.5 c 128,-1,15
 193 713 193 713 208.5 700.5 c 128,-1,16
 224 688 224 688 238.5 678.5 c 128,-1,17
 253 669 253 669 267 669 c 0,18,19
 289 669 289 669 298 685.5 c 128,-1,20
 307 702 307 702 309 722 c 1,21,-1
 351 722 l 1,22,23
 348 677 348 677 325.5 641.5 c 128,-1,24
 303 606 303 606 258 606 c 0,0,1
EndSplineSet
Validated: 1
EndChar

StartChar: hungarumlaut
Encoding: 594 733 338
Width: 394
Flags: W
LayerCount: 2
Fore
SplineSet
195 606 m 1,0,-1
 195 619 l 1,1,2
 215 656 215 656 234 694 c 128,-1,3
 253 732 253 732 267 766 c 1,4,-1
 354 766 l 1,5,-1
 354 756 l 1,6,7
 344 739 344 739 323 711 c 128,-1,8
 302 683 302 683 278 654.5 c 128,-1,9
 254 626 254 626 234 606 c 1,10,-1
 195 606 l 1,0,-1
40 606 m 1,11,-1
 40 619 l 1,12,13
 59 656 59 656 78.5 694 c 128,-1,14
 98 732 98 732 111 766 c 1,15,-1
 199 766 l 1,16,-1
 199 756 l 1,17,18
 189 739 189 739 168 711 c 128,-1,19
 147 683 147 683 123 654.5 c 128,-1,20
 99 626 99 626 79 606 c 1,21,-1
 40 606 l 1,11,-1
EndSplineSet
Validated: 1
EndChar

StartChar: tonos
Encoding: 595 900 339
Width: 492
Flags: W
LayerCount: 2
Fore
SplineSet
206 606 m 1,0,-1
 206 621 l 1,1,2
 218 659 218 659 231.5 705.5 c 128,-1,3
 245 752 245 752 253 796 c 1,4,-1
 337 796 l 1,5,-1
 337 784 l 1,6,7
 328 757 328 757 312 725 c 128,-1,8
 296 693 296 693 278 662 c 128,-1,9
 260 631 260 631 243 606 c 1,10,-1
 206 606 l 1,0,-1
EndSplineSet
Validated: 1
EndChar

StartChar: dieresistonos
Encoding: 596 901 340
Width: 492
Flags: W
LayerCount: 2
Fore
SplineSet
214 677 m 1,0,-1
 214 690 l 1,1,2
 223 722 223 722 232.5 761.5 c 128,-1,3
 242 801 242 801 249 837 c 1,4,-1
 325 837 l 1,5,-1
 325 827 l 1,6,7
 313 793 313 793 290 752 c 128,-1,8
 267 711 267 711 245 677 c 1,9,-1
 214 677 l 1,0,-1
153 631 m 0,10,11
 135 631 135 631 123 643.5 c 128,-1,12
 111 656 111 656 111 681 c 256,13,14
 111 706 111 706 123 718 c 128,-1,15
 135 730 135 730 153 730 c 0,16,17
 169 730 169 730 181.5 718 c 128,-1,18
 194 706 194 706 194 681 c 256,19,20
 194 656 194 656 181.5 643.5 c 128,-1,21
 169 631 169 631 153 631 c 0,10,11
339 631 m 256,22,23
 322 631 322 631 309.5 643.5 c 128,-1,24
 297 656 297 656 297 681 c 256,25,26
 297 706 297 706 309.5 718 c 128,-1,27
 322 730 322 730 339 730 c 256,28,29
 356 730 356 730 368.5 718 c 128,-1,30
 381 706 381 706 381 681 c 256,31,32
 381 656 381 656 368.5 643.5 c 128,-1,33
 356 631 356 631 339 631 c 256,22,23
EndSplineSet
Validated: 1
EndChar

StartChar: anoteleia
Encoding: 598 903 342
Width: 232
Flags: W
LayerCount: 2
Fore
SplineSet
116 404 m 256,0,1
 93 404 93 404 76.5 419.5 c 128,-1,2
 60 435 60 435 60 471 c 0,3,4
 60 508 60 508 76.5 523 c 128,-1,5
 93 538 93 538 116 538 c 256,6,7
 139 538 139 538 155.5 523 c 128,-1,8
 172 508 172 508 172 471 c 0,9,10
 172 435 172 435 155.5 419.5 c 128,-1,11
 139 404 139 404 116 404 c 256,0,1
EndSplineSet
Validated: 1
EndChar

StartChar: Gamma
Encoding: 608 915 352
Width: 483
GlyphClass: 2
Flags: W
AnchorPoint: "Anchor-1" 242 714 basechar 0
AnchorPoint: "Anchor-0" 242 0 basechar 0
LayerCount: 2
Fore
SplineSet
31 0 m 1,0,-1
 31 41 l 1,1,-1
 45 41 l 2,2,3
 75 41 75 41 93.5 53.5 c 128,-1,4
 112 66 112 66 112 113 c 2,5,-1
 112 601 l 2,6,7
 112 648 112 648 93 660.5 c 128,-1,8
 74 673 74 673 45 673 c 2,9,-1
 31 673 l 1,10,-1
 31 714 l 1,11,-1
 462 714 l 1,12,-1
 468 540 l 1,13,-1
 421 540 l 1,14,-1
 417 574 l 2,15,16
 412 617 412 617 396.5 641 c 128,-1,17
 381 665 381 665 331 665 c 2,18,-1
 207 665 l 1,19,-1
 207 109 l 2,20,21
 207 65 207 65 227 53 c 128,-1,22
 247 41 247 41 277 41 c 2,23,-1
 304 41 l 1,24,-1
 304 0 l 1,25,-1
 31 0 l 1,0,-1
EndSplineSet
Validated: 1
EndChar

StartChar: uni0394
Encoding: 609 916 353
Width: 533
GlyphClass: 2
Flags: W
AnchorPoint: "Anchor-1" 267 714 basechar 0
AnchorPoint: "Anchor-0" 267 0 basechar 0
LayerCount: 2
Fore
SplineSet
29 0 m 1,0,-1
 29 52 l 1,1,-1
 229 714 l 1,2,-1
 311 714 l 1,3,-1
 504 59 l 1,4,-1
 504 0 l 1,5,-1
 29 0 l 1,0,-1
90 66 m 1,6,-1
 405 66 l 1,7,-1
 293 460 l 2,8,9
 280 505 280 505 268.5 550 c 128,-1,10
 257 595 257 595 250 628 c 1,11,12
 243 594 243 594 233.5 557.5 c 128,-1,13
 224 521 224 521 210 474 c 2,14,-1
 90 66 l 1,6,-1
EndSplineSet
Validated: 1
EndChar

StartChar: Theta
Encoding: 613 920 357
Width: 641
GlyphClass: 2
Flags: W
AnchorPoint: "Anchor-1" 321 714 basechar 0
AnchorPoint: "Anchor-0" 321 0 basechar 0
LayerCount: 2
Fore
SplineSet
320 -10 m 0,0,1
 228 -10 228 -10 167.5 36 c 128,-1,2
 107 82 107 82 77.5 165 c 128,-1,3
 48 248 48 248 48 359 c 256,4,5
 48 470 48 470 77.5 552 c 128,-1,6
 107 634 107 634 168 679.5 c 128,-1,7
 229 725 229 725 321 725 c 0,8,9
 408 725 408 725 468.5 679.5 c 128,-1,10
 529 634 529 634 560.5 551.5 c 128,-1,11
 592 469 592 469 592 358 c 256,12,13
 592 247 592 247 560.5 164.5 c 128,-1,14
 529 82 529 82 468 36 c 128,-1,15
 407 -10 407 -10 320 -10 c 0,0,1
320 43 m 0,16,17
 413 43 413 43 451.5 125.5 c 128,-1,18
 490 208 490 208 490 358 c 256,19,20
 490 508 490 508 452 590 c 128,-1,21
 414 672 414 672 321 672 c 0,22,23
 230 672 230 672 190 590 c 128,-1,24
 150 508 150 508 150 358 c 256,25,26
 150 208 150 208 190 125.5 c 128,-1,27
 230 43 230 43 320 43 c 0,16,17
199 274 m 1,28,-1
 199 453 l 1,29,-1
 235 453 l 1,30,-1
 238 434 l 2,31,32
 243 414 243 414 255 402 c 128,-1,33
 267 390 267 390 303 390 c 2,34,-1
 334 390 l 2,35,36
 368 390 368 390 382.5 402 c 128,-1,37
 397 414 397 414 401 434 c 2,38,-1
 406 453 l 1,39,-1
 441 453 l 1,40,-1
 441 274 l 1,41,-1
 406 274 l 1,42,-1
 401 293 l 2,43,44
 397 313 397 313 382.5 325.5 c 128,-1,45
 368 338 368 338 334 338 c 2,46,-1
 303 338 l 2,47,48
 267 338 267 338 255 326 c 128,-1,49
 243 314 243 314 238 293 c 2,50,-1
 235 274 l 1,51,-1
 199 274 l 1,28,-1
EndSplineSet
Validated: 1
EndChar

StartChar: Lambda
Encoding: 616 923 360
Width: 585
GlyphClass: 2
Flags: W
AnchorPoint: "Anchor-1" 293 714 basechar 0
AnchorPoint: "Anchor-0" 293 0 basechar 0
LayerCount: 2
Fore
SplineSet
0 0 m 1,0,-1
 0 41 l 1,1,-1
 20 41 l 2,2,3
 46 41 46 41 57.5 59 c 128,-1,4
 69 77 69 77 82 121 c 2,5,-1
 264 714 l 1,6,-1
 324 714 l 1,7,-1
 512 96 l 2,8,9
 521 66 521 66 533.5 53.5 c 128,-1,10
 546 41 546 41 567 41 c 2,11,-1
 586 41 l 1,12,-1
 586 0 l 1,13,-1
 344 0 l 1,14,-1
 344 41 l 1,15,-1
 365 41 l 2,16,17
 413 41 413 41 413 84 c 0,18,19
 413 94 413 94 411 104.5 c 128,-1,20
 409 115 409 115 405 128 c 2,21,-1
 309 470 l 2,22,23
 296 517 296 517 287.5 547.5 c 128,-1,24
 279 578 279 578 274 607 c 1,25,26
 269 579 269 579 260.5 546 c 128,-1,27
 252 513 252 513 238 465 c 2,28,-1
 144 146 l 2,29,30
 140 132 140 132 136 116 c 128,-1,31
 132 100 132 100 132 87 c 0,32,33
 132 41 132 41 186 41 c 2,34,-1
 208 41 l 1,35,-1
 208 0 l 1,36,-1
 0 0 l 1,0,-1
EndSplineSet
Validated: 1
EndChar

StartChar: Xi
Encoding: 619 926 363
Width: 532
GlyphClass: 2
Flags: W
AnchorPoint: "Anchor-1" 266 714 basechar 0
AnchorPoint: "Anchor-0" 266 0 basechar 0
LayerCount: 2
Fore
SplineSet
60 541 m 1,0,-1
 65 714 l 1,1,-1
 468 714 l 1,2,-1
 473 541 l 1,3,-1
 428 541 l 1,4,-1
 424 571 l 2,5,6
 421 605 421 605 405.5 625.5 c 128,-1,7
 390 646 390 646 352 646 c 2,8,-1
 181 646 l 2,9,10
 142 646 142 646 127 625.5 c 128,-1,11
 112 605 112 605 108 571 c 2,12,-1
 105 541 l 1,13,-1
 60 541 l 1,0,-1
136 277 m 1,14,-1
 136 458 l 1,15,-1
 171 458 l 1,16,-1
 175 439 l 2,17,18
 181 417 181 417 192 405 c 128,-1,19
 203 393 203 393 242 393 c 2,20,-1
 289 393 l 2,21,22
 324 393 324 393 339 405.5 c 128,-1,23
 354 418 354 418 358 439 c 2,24,-1
 362 458 l 1,25,-1
 398 458 l 1,26,-1
 398 277 l 1,27,-1
 362 277 l 1,28,-1
 358 296 l 2,29,30
 354 317 354 317 339 329.5 c 128,-1,31
 324 342 324 342 289 342 c 2,32,-1
 242 342 l 2,33,34
 203 342 203 342 192 330 c 128,-1,35
 181 318 181 318 175 296 c 2,36,-1
 171 277 l 1,37,-1
 136 277 l 1,14,-1
39 0 m 1,38,-1
 34 186 l 1,39,-1
 79 186 l 1,40,-1
 83 156 l 2,41,42
 87 118 87 118 101.5 100 c 128,-1,43
 116 82 116 82 156 82 c 2,44,-1
 377 82 l 2,45,46
 416 82 416 82 431 100 c 128,-1,47
 446 118 446 118 451 156 c 2,48,-1
 454 186 l 1,49,-1
 498 186 l 1,50,-1
 494 0 l 1,51,-1
 39 0 l 1,38,-1
EndSplineSet
Validated: 1
EndChar

StartChar: Pi
Encoding: 621 928 365
Width: 658
GlyphClass: 2
Flags: W
AnchorPoint: "Anchor-1" 330 714 basechar 0
AnchorPoint: "Anchor-0" 330 0 basechar 0
LayerCount: 2
Fore
SplineSet
31 0 m 1,0,-1
 31 41 l 1,1,-1
 43 41 l 2,2,3
 74 41 74 41 93 53.5 c 128,-1,4
 112 66 112 66 112 113 c 2,5,-1
 112 605 l 2,6,7
 112 649 112 649 92.5 661 c 128,-1,8
 73 673 73 673 43 673 c 2,9,-1
 31 673 l 1,10,-1
 31 714 l 1,11,-1
 627 714 l 1,12,-1
 627 673 l 1,13,-1
 615 673 l 2,14,15
 584 673 584 673 565.5 660.5 c 128,-1,16
 547 648 547 648 547 601 c 2,17,-1
 547 108 l 2,18,19
 547 64 547 64 566 52.5 c 128,-1,20
 585 41 585 41 615 41 c 2,21,-1
 627 41 l 1,22,-1
 627 0 l 1,23,-1
 375 0 l 1,24,-1
 375 41 l 1,25,-1
 384 41 l 2,26,27
 414 41 414 41 432.5 53.5 c 128,-1,28
 451 66 451 66 451 113 c 2,29,-1
 451 665 l 1,30,-1
 207 665 l 1,31,-1
 207 113 l 2,32,33
 207 66 207 66 225.5 53.5 c 128,-1,34
 244 41 244 41 274 41 c 2,35,-1
 284 41 l 1,36,-1
 284 0 l 1,37,-1
 31 0 l 1,0,-1
EndSplineSet
Validated: 1
EndChar

StartChar: Sigma
Encoding: 623 931 367
Width: 525
GlyphClass: 2
Flags: W
AnchorPoint: "Anchor-1" 263 714 basechar 0
AnchorPoint: "Anchor-0" 263 0 basechar 0
LayerCount: 2
Fore
SplineSet
20 0 m 1,0,-1
 20 37 l 1,1,-1
 214 350 l 1,2,-1
 39 682 l 1,3,-1
 39 714 l 1,4,-1
 457 714 l 1,5,-1
 461 538 l 1,6,-1
 415 538 l 1,7,-1
 410 582 l 2,8,9
 406 618 406 618 389 641 c 128,-1,10
 372 664 372 664 333 664 c 2,11,-1
 149 664 l 1,12,-1
 291 388 l 1,13,-1
 291 374 l 1,14,-1
 107 82 l 1,15,-1
 357 82 l 2,16,17
 398 82 398 82 416.5 107.5 c 128,-1,18
 435 133 435 133 440 177 c 2,19,-1
 443 207 l 1,20,-1
 489 207 l 1,21,-1
 482 0 l 1,22,-1
 20 0 l 1,0,-1
EndSplineSet
Validated: 1
EndChar

StartChar: Phi
Encoding: 626 934 370
Width: 672
GlyphClass: 2
Flags: W
AnchorPoint: "Anchor-1" 336 714 basechar 0
AnchorPoint: "Anchor-0" 336 0 basechar 0
LayerCount: 2
Fore
SplineSet
210 0 m 1,0,-1
 210 41 l 1,1,-1
 221 41 l 2,2,3
 252 41 252 41 271.5 53.5 c 128,-1,4
 291 66 291 66 291 114 c 2,5,-1
 291 134 l 1,6,-1
 265 134 l 2,7,8
 180 134 180 134 128.5 165.5 c 128,-1,9
 77 197 77 197 54 250.5 c 128,-1,10
 31 304 31 304 31 369 c 0,11,12
 31 466 31 466 84 528 c 128,-1,13
 137 590 137 590 246 590 c 2,14,-1
 291 590 l 1,15,-1
 291 600 l 2,16,17
 291 648 291 648 271.5 660.5 c 128,-1,18
 252 673 252 673 221 673 c 2,19,-1
 210 673 l 1,20,-1
 210 714 l 1,21,-1
 461 714 l 1,22,-1
 461 673 l 1,23,-1
 450 673 l 2,24,25
 419 673 419 673 399.5 660.5 c 128,-1,26
 380 648 380 648 380 600 c 2,27,-1
 380 590 l 1,28,-1
 426 590 l 2,29,30
 535 590 535 590 588 528 c 128,-1,31
 641 466 641 466 641 369 c 0,32,33
 641 307 641 307 617.5 253.5 c 128,-1,34
 594 200 594 200 542.5 167 c 128,-1,35
 491 134 491 134 406 134 c 2,36,-1
 380 134 l 1,37,-1
 380 114 l 2,38,39
 380 66 380 66 399.5 53.5 c 128,-1,40
 419 41 419 41 450 41 c 2,41,-1
 461 41 l 1,42,-1
 461 0 l 1,43,-1
 210 0 l 1,0,-1
274 180 m 2,44,-1
 291 180 l 1,45,-1
 291 544 l 1,46,-1
 262 544 l 2,47,48
 190 544 190 544 158 497.5 c 128,-1,49
 126 451 126 451 126 367 c 0,50,51
 126 272 126 272 161 226 c 128,-1,52
 196 180 196 180 274 180 c 2,44,-1
380 180 m 1,53,-1
 398 180 l 2,54,55
 475 180 475 180 510 226 c 128,-1,56
 545 272 545 272 545 367 c 0,57,58
 545 451 545 451 513 497.5 c 128,-1,59
 481 544 481 544 409 544 c 2,60,-1
 380 544 l 1,61,-1
 380 180 l 1,53,-1
EndSplineSet
Validated: 1
EndChar

